G75*
G70*
%OFA0B0*%
%FSLAX24Y24*%
%IPPOS*%
%LPD*%
%AMOC8*
5,1,8,0,0,1.08239X$1,22.5*
%
%ADD10OC8,0.0520*%
%ADD11R,0.0554X0.0554*%
%ADD12C,0.0740*%
%ADD13C,0.0594*%
%ADD14C,0.1266*%
%ADD15C,0.0600*%
%ADD16C,0.0520*%
%ADD17R,0.0700X0.0700*%
%ADD18OC8,0.0630*%
%ADD19C,0.0630*%
%ADD20C,0.0250*%
%ADD21C,0.0150*%
%ADD22C,0.0400*%
D10*
X023025Y013496D03*
X023775Y013996D03*
X023775Y012996D03*
X025930Y012766D03*
X025891Y013971D03*
X029891Y013971D03*
X031720Y012959D03*
X029930Y012766D03*
X032073Y014566D03*
X035720Y012959D03*
X036073Y014566D03*
X036880Y017728D03*
X037380Y018478D03*
X037880Y017728D03*
X034168Y019409D03*
X034152Y020842D03*
X035618Y022368D03*
X031618Y022368D03*
X030152Y020842D03*
X030168Y019409D03*
X027974Y019766D03*
X027975Y021617D03*
X023975Y021617D03*
X021835Y021579D03*
X021845Y019706D03*
X023974Y019766D03*
X017845Y019706D03*
X017835Y021579D03*
X026140Y008602D03*
X026140Y007602D03*
X025857Y006327D03*
X025911Y005368D03*
X029014Y007582D03*
X029014Y008582D03*
X030445Y008560D03*
X029857Y006327D03*
X029911Y005368D03*
X034445Y008560D03*
D11*
X032164Y007007D03*
X032164Y005407D03*
D12*
X032415Y009846D03*
X033415Y009846D03*
X034415Y009846D03*
X035415Y009846D03*
X036415Y009846D03*
X037415Y010346D03*
X037415Y011346D03*
X037415Y012346D03*
X037415Y013346D03*
X037415Y014346D03*
X037415Y015346D03*
X036415Y015846D03*
X035415Y015846D03*
X034415Y015846D03*
X033415Y015846D03*
X032415Y015846D03*
X031415Y015846D03*
X030415Y015846D03*
X029415Y015846D03*
X028415Y015846D03*
X027415Y015846D03*
X026415Y015846D03*
X025415Y015846D03*
X027865Y010996D03*
X028865Y010996D03*
X028415Y009846D03*
X029415Y009846D03*
X030415Y009846D03*
X031415Y009846D03*
X031965Y010996D03*
X032965Y010996D03*
X027415Y009846D03*
X026415Y009846D03*
X025415Y009846D03*
D13*
X037088Y019809D02*
X037681Y019809D01*
X037681Y020809D02*
X037088Y020809D01*
D14*
X015703Y007145D03*
X015703Y008995D03*
X021281Y008995D03*
X021281Y007145D03*
D15*
X027665Y024660D02*
X027665Y025260D01*
X028665Y025260D02*
X028665Y024660D01*
D16*
X018474Y009789D02*
X018474Y009269D01*
X018474Y006789D02*
X018474Y006269D01*
X019599Y005562D02*
X020119Y005562D01*
X022599Y005562D02*
X023119Y005562D01*
D17*
X023562Y017724D03*
X024562Y017724D03*
X025562Y017724D03*
X026562Y017724D03*
X027562Y017724D03*
X028562Y017724D03*
X029562Y017724D03*
X030562Y017724D03*
X031562Y017724D03*
X032562Y017724D03*
X033562Y017724D03*
X034562Y017724D03*
X035562Y017724D03*
X035562Y023724D03*
X034562Y023724D03*
X033562Y023724D03*
X032562Y023724D03*
X031562Y023724D03*
X030562Y023724D03*
X029562Y023724D03*
X028562Y023724D03*
X027562Y023724D03*
X026562Y023724D03*
X025562Y023724D03*
X024562Y023724D03*
X023562Y023724D03*
X022562Y023724D03*
X021562Y023724D03*
X020562Y023724D03*
X019562Y023724D03*
X018562Y023724D03*
X017562Y023724D03*
X016562Y023724D03*
X016562Y017724D03*
X017562Y017724D03*
X018562Y017724D03*
X019562Y017724D03*
X020562Y017724D03*
X021562Y017724D03*
X022562Y017724D03*
D18*
X035306Y007932D03*
X034873Y005763D03*
D19*
X035873Y005763D03*
X036306Y007932D03*
D20*
X035845Y006472D02*
X033483Y008834D01*
X033483Y009070D01*
X033404Y009070D01*
X025924Y009070D01*
X025845Y008991D01*
X021357Y008991D01*
X021281Y008995D01*
X021199Y009070D01*
X021121Y009149D01*
X021121Y012220D01*
X017499Y015842D01*
X017499Y017653D01*
X017562Y017724D01*
X018562Y017724D02*
X018601Y017653D01*
X019152Y017102D01*
X023955Y017102D01*
X024507Y017653D01*
X024562Y017724D01*
X027975Y021617D02*
X028050Y021590D01*
X035530Y021590D01*
X037341Y019779D01*
X037385Y019809D01*
X037420Y019700D01*
X037892Y019228D01*
X037892Y017732D01*
X037880Y017728D01*
X033415Y009846D02*
X033483Y009779D01*
X033483Y009070D01*
X033719Y006944D02*
X032223Y006944D01*
X032164Y007007D01*
X032066Y007023D01*
X031278Y007023D01*
X029782Y008519D01*
X029073Y008519D01*
X029014Y008582D01*
X028995Y008598D01*
X026160Y008598D01*
X026140Y008602D01*
X020412Y010094D02*
X020412Y012456D01*
X015845Y017023D01*
X015845Y021984D01*
X017577Y023716D01*
X017562Y023724D01*
X017656Y023716D01*
X018522Y023716D01*
X018562Y023724D01*
X033719Y006944D02*
X034822Y005842D01*
X034873Y005763D01*
X035845Y005842D02*
X035845Y006472D01*
X035845Y005842D02*
X035873Y005763D01*
D21*
X036554Y005763D02*
X036554Y007495D01*
X037971Y008913D01*
X037971Y015999D01*
X036318Y017653D01*
X036318Y019306D01*
X034349Y021275D01*
X030570Y021275D01*
X030176Y020881D01*
X030152Y020842D01*
X030097Y020802D01*
X022302Y020802D01*
X021278Y019779D01*
X017892Y019779D01*
X017845Y019706D01*
X016396Y018991D02*
X019703Y022299D01*
X025136Y022299D01*
X026554Y023716D01*
X026562Y023724D01*
X028680Y024897D02*
X028665Y024960D01*
X028680Y024897D02*
X035373Y024897D01*
X036081Y024188D01*
X036081Y023322D01*
X035609Y022850D01*
X032144Y022850D01*
X031672Y022377D01*
X031618Y022368D01*
X031908Y022062D02*
X031751Y021905D01*
X028286Y021905D01*
X028129Y022062D01*
X024428Y022062D01*
X024034Y021669D01*
X023975Y021617D01*
X028365Y018440D02*
X016318Y018440D01*
X015373Y018519D02*
X015373Y017023D01*
X016711Y015684D01*
X016711Y010094D01*
X016318Y009936D02*
X016711Y009543D01*
X018444Y009543D01*
X018474Y009529D01*
X016318Y009936D02*
X016318Y015684D01*
X014979Y017023D01*
X014979Y017495D01*
X017971Y016550D02*
X017971Y015842D01*
X022696Y011117D01*
X022696Y009700D01*
X023089Y009306D01*
X024900Y009306D01*
X025373Y009779D01*
X025415Y009846D01*
X025215Y010409D02*
X025845Y010409D01*
X026396Y009858D01*
X026415Y009846D01*
X027341Y009858D02*
X027415Y009846D01*
X027341Y009858D02*
X027341Y010173D01*
X025451Y012062D01*
X025451Y013480D01*
X022381Y016550D01*
X020491Y016550D01*
X023404Y016472D02*
X025845Y014031D01*
X025891Y013971D01*
X025215Y015291D02*
X026790Y015291D01*
X027341Y015842D01*
X027415Y015846D01*
X027814Y016393D02*
X032223Y016393D01*
X033483Y017653D01*
X033562Y017724D01*
X032562Y017724D02*
X032538Y017653D01*
X031672Y016787D01*
X027341Y016787D01*
X026475Y015921D01*
X026415Y015846D01*
X025215Y015291D02*
X024822Y015684D01*
X024822Y015999D01*
X025845Y017023D01*
X030885Y017023D01*
X031514Y017653D01*
X031562Y017724D01*
X032853Y016472D02*
X035294Y016472D01*
X036081Y017259D01*
X036081Y018125D01*
X034822Y019385D01*
X034192Y019385D01*
X034168Y019409D01*
X034113Y020802D02*
X034152Y020842D01*
X034113Y020802D02*
X030727Y020802D01*
X028365Y018440D01*
X031593Y015054D02*
X029467Y012928D01*
X029467Y010802D01*
X028444Y009779D01*
X028415Y009846D01*
X029415Y009846D02*
X029467Y009858D01*
X032144Y012535D01*
X032144Y014503D01*
X032073Y014566D01*
X032223Y015054D02*
X031593Y015054D01*
X032223Y015054D02*
X034270Y013007D01*
X035688Y013007D01*
X035720Y012959D01*
X029861Y005369D02*
X027105Y008125D01*
X026318Y007417D02*
X026160Y007574D01*
X026140Y007602D01*
X026318Y007417D02*
X026318Y006157D01*
X025924Y005763D01*
X025924Y005369D01*
X025911Y005368D01*
X029861Y005369D02*
X029911Y005368D01*
X035688Y004897D02*
X036554Y005763D01*
X035688Y004897D02*
X021829Y004897D01*
X023877Y009543D02*
X024349Y009543D01*
X025215Y010409D01*
X025530Y011432D02*
X024034Y009936D01*
X023719Y009700D02*
X023877Y009543D01*
X023719Y009700D02*
X023247Y009700D01*
X023089Y010881D02*
X023089Y012299D01*
X023719Y012928D01*
X023775Y012996D01*
X031908Y022062D02*
X033798Y022062D01*
D22*
X033798Y022062D03*
X032853Y016472D03*
X027814Y016393D03*
X023404Y016472D03*
X020491Y016550D03*
X017971Y016550D03*
X016318Y018440D03*
X016396Y018991D03*
X015373Y018519D03*
X014979Y017495D03*
X025530Y011432D03*
X023089Y010881D03*
X023247Y009700D03*
X024034Y009936D03*
X027105Y008125D03*
X021829Y004897D03*
X020412Y010094D03*
X016711Y010094D03*
M02*
