G75*
G70*
%OFA0B0*%
%FSLAX24Y24*%
%IPPOS*%
%LPD*%
%AMOC8*
5,1,8,0,0,1.08239X$1,22.5*
%
%ADD10C,0.1458*%
%ADD11R,0.0395X0.0710*%
%ADD12R,0.0710X0.0395*%
%ADD13OC8,0.0600*%
%ADD14R,0.0634X0.0634*%
%ADD15C,0.0820*%
%ADD16C,0.0674*%
%ADD17C,0.1346*%
%ADD18C,0.0680*%
%ADD19C,0.0600*%
%ADD20R,0.0780X0.0780*%
%ADD21OC8,0.0710*%
%ADD22C,0.0710*%
%ADD23C,0.0480*%
D10*
X024337Y006776D03*
X037798Y006738D03*
X037783Y023353D03*
D11*
X020957Y015939D03*
X020485Y015939D03*
X020012Y015939D03*
X019540Y015939D03*
X019068Y015939D03*
X018595Y015939D03*
X018123Y015939D03*
X017650Y015939D03*
X017178Y015939D03*
X016705Y015939D03*
X016233Y015939D03*
X015761Y015939D03*
X015761Y010742D03*
X016233Y010742D03*
X016705Y010742D03*
X017178Y010742D03*
X017650Y010742D03*
X018123Y010742D03*
X018595Y010742D03*
X019068Y010742D03*
X019540Y010742D03*
X020012Y010742D03*
X020485Y010742D03*
X020957Y010742D03*
D12*
X022060Y011718D03*
X022060Y012120D03*
X022060Y012593D03*
X022060Y013065D03*
X022060Y013616D03*
X022060Y014089D03*
X022060Y014561D03*
X022060Y014964D03*
X014658Y015230D03*
X014658Y014600D03*
X014658Y013971D03*
D13*
X023025Y013496D03*
X023775Y013996D03*
X023775Y012996D03*
X025930Y012766D03*
X025891Y013971D03*
X029891Y013971D03*
X031720Y012959D03*
X029930Y012766D03*
X032073Y014566D03*
X035720Y012959D03*
X036073Y014566D03*
X036880Y017728D03*
X037380Y018478D03*
X037880Y017728D03*
X034168Y019409D03*
X034152Y020842D03*
X035618Y022368D03*
X031618Y022368D03*
X030152Y020842D03*
X030168Y019409D03*
X027974Y019766D03*
X027975Y021617D03*
X023975Y021617D03*
X021835Y021579D03*
X021845Y019706D03*
X023974Y019766D03*
X017845Y019706D03*
X017835Y021579D03*
X026140Y008602D03*
X026140Y007602D03*
X025857Y006327D03*
X025911Y005368D03*
X029014Y007582D03*
X029014Y008582D03*
X030445Y008560D03*
X029857Y006327D03*
X029911Y005368D03*
X034445Y008560D03*
D14*
X032164Y007007D03*
X032164Y005407D03*
D15*
X032415Y009846D03*
X033415Y009846D03*
X034415Y009846D03*
X035415Y009846D03*
X036415Y009846D03*
X037415Y010346D03*
X037415Y011346D03*
X037415Y012346D03*
X037415Y013346D03*
X037415Y014346D03*
X037415Y015346D03*
X036415Y015846D03*
X035415Y015846D03*
X034415Y015846D03*
X033415Y015846D03*
X032415Y015846D03*
X031415Y015846D03*
X030415Y015846D03*
X029415Y015846D03*
X028415Y015846D03*
X027415Y015846D03*
X026415Y015846D03*
X025415Y015846D03*
X027865Y010996D03*
X028865Y010996D03*
X028415Y009846D03*
X029415Y009846D03*
X030415Y009846D03*
X031415Y009846D03*
X031965Y010996D03*
X032965Y010996D03*
X027415Y009846D03*
X026415Y009846D03*
X025415Y009846D03*
D16*
X037088Y019809D02*
X037681Y019809D01*
X037681Y020809D02*
X037088Y020809D01*
D17*
X015703Y007145D03*
X015703Y008995D03*
X021281Y008995D03*
X021281Y007145D03*
D18*
X027665Y024660D02*
X027665Y025260D01*
X028665Y025260D02*
X028665Y024660D01*
D19*
X018474Y009789D02*
X018474Y009269D01*
X018474Y006789D02*
X018474Y006269D01*
X019599Y005562D02*
X020119Y005562D01*
X022599Y005562D02*
X023119Y005562D01*
D20*
X023562Y017724D03*
X024562Y017724D03*
X025562Y017724D03*
X026562Y017724D03*
X027562Y017724D03*
X028562Y017724D03*
X029562Y017724D03*
X030562Y017724D03*
X031562Y017724D03*
X032562Y017724D03*
X033562Y017724D03*
X034562Y017724D03*
X035562Y017724D03*
X035562Y023724D03*
X034562Y023724D03*
X033562Y023724D03*
X032562Y023724D03*
X031562Y023724D03*
X030562Y023724D03*
X029562Y023724D03*
X028562Y023724D03*
X027562Y023724D03*
X026562Y023724D03*
X025562Y023724D03*
X024562Y023724D03*
X023562Y023724D03*
X022562Y023724D03*
X021562Y023724D03*
X020562Y023724D03*
X019562Y023724D03*
X018562Y023724D03*
X017562Y023724D03*
X016562Y023724D03*
X016562Y017724D03*
X017562Y017724D03*
X018562Y017724D03*
X019562Y017724D03*
X020562Y017724D03*
X021562Y017724D03*
X022562Y017724D03*
D21*
X035306Y007932D03*
X034873Y005763D03*
D22*
X035873Y005763D03*
X036306Y007932D03*
D23*
X027105Y008125D03*
X024034Y009936D03*
X023247Y009700D03*
X023089Y010881D03*
X025530Y011432D03*
X020412Y010094D03*
X016711Y010094D03*
X021829Y004897D03*
X023404Y016472D03*
X020491Y016550D03*
X017971Y016550D03*
X016318Y018440D03*
X016396Y018991D03*
X015373Y018519D03*
X014979Y017495D03*
X027814Y016393D03*
X032853Y016472D03*
X033798Y022062D03*
M02*
