G75*
G70*
%OFA0B0*%
%FSLAX24Y24*%
%IPPOS*%
%LPD*%
%AMOC8*
5,1,8,0,0,1.08239X$1,22.5*
%
%ADD10OC8,0.0520*%
%ADD11R,0.0554X0.0554*%
%ADD12C,0.0740*%
%ADD13C,0.0594*%
%ADD14C,0.1266*%
%ADD15C,0.0520*%
%ADD16R,0.0700X0.0700*%
%ADD17C,0.0250*%
%ADD18C,0.0150*%
%ADD19C,0.0400*%
D10*
X025517Y004974D03*
X025857Y006327D03*
X026140Y007602D03*
X026140Y008602D03*
X029014Y008582D03*
X029014Y007582D03*
X029857Y006327D03*
X029517Y004974D03*
X034626Y004842D03*
X035524Y004709D03*
X036290Y004709D03*
X036290Y008709D03*
X035524Y008709D03*
X034626Y008842D03*
X036019Y010731D03*
X031112Y012373D03*
X030433Y013705D03*
X031466Y014759D03*
X034433Y013705D03*
X036019Y014731D03*
X027466Y014759D03*
X026427Y014928D03*
X027112Y012373D03*
X026427Y010928D03*
X017526Y018566D03*
X019833Y019132D03*
X019538Y020590D03*
X017526Y022566D03*
X015123Y022674D03*
X015123Y018674D03*
X023538Y020590D03*
X023833Y019132D03*
X031849Y023979D03*
X035849Y023979D03*
D11*
X032164Y007007D03*
X032164Y005407D03*
D12*
X032415Y009846D03*
X033415Y009846D03*
X034415Y009846D03*
X035415Y009846D03*
X036415Y009846D03*
X037415Y010346D03*
X037415Y011346D03*
X037415Y012346D03*
X037415Y013346D03*
X037415Y014346D03*
X037415Y015346D03*
X036415Y015846D03*
X035415Y015846D03*
X034415Y015846D03*
X033415Y015846D03*
X032415Y015846D03*
X031415Y015846D03*
X030415Y015846D03*
X029415Y015846D03*
X028415Y015846D03*
X027415Y015846D03*
X026415Y015846D03*
X025415Y015846D03*
X027865Y010996D03*
X028865Y010996D03*
X028415Y009846D03*
X029415Y009846D03*
X030415Y009846D03*
X031415Y009846D03*
X031965Y010996D03*
X032965Y010996D03*
X027415Y009846D03*
X026415Y009846D03*
X025415Y009846D03*
D13*
X036607Y020245D02*
X037201Y020245D01*
X037201Y021245D02*
X036607Y021245D01*
D14*
X015703Y007145D03*
X015703Y008995D03*
X021281Y008995D03*
X021281Y007145D03*
D15*
X018251Y007045D02*
X018251Y006525D01*
X019737Y005339D02*
X020257Y005339D01*
X022737Y005339D02*
X023257Y005339D01*
X023702Y009041D02*
X024222Y009041D01*
X024222Y010041D02*
X023702Y010041D01*
X023702Y011041D02*
X024222Y011041D01*
X018251Y010045D02*
X018251Y009525D01*
X036556Y016657D02*
X037076Y016657D01*
X037076Y017657D02*
X036556Y017657D01*
X036556Y018657D02*
X037076Y018657D01*
D16*
X028274Y017680D03*
X027274Y017680D03*
X026274Y017680D03*
X025274Y017680D03*
X024274Y017680D03*
X023274Y017680D03*
X022274Y017680D03*
X021274Y017680D03*
X020274Y017680D03*
X019274Y017680D03*
X018274Y017680D03*
X017274Y017680D03*
X017274Y023680D03*
X018274Y023680D03*
X019274Y023680D03*
X020274Y023680D03*
X021274Y023680D03*
X022274Y023680D03*
X023274Y023680D03*
X024274Y023680D03*
X025274Y023680D03*
X026274Y023680D03*
X027274Y023680D03*
X028274Y023680D03*
D17*
X025294Y023086D02*
X023877Y023086D01*
X023325Y023637D01*
X023274Y023680D01*
X025294Y023086D02*
X029073Y019306D01*
X029782Y019306D01*
X033168Y015921D01*
X033404Y015921D01*
X033415Y015846D01*
X030570Y014267D02*
X023168Y014267D01*
X023089Y014346D01*
X025215Y016472D01*
X027105Y016472D01*
X027892Y017259D01*
X027892Y017338D01*
X028207Y017653D01*
X028274Y017680D01*
X030570Y014267D02*
X033562Y011275D01*
X033562Y010724D01*
X033483Y010645D01*
X033483Y009858D01*
X033415Y009846D01*
X036290Y008709D02*
X036318Y008755D01*
X036711Y008755D01*
X038050Y010094D01*
X038050Y017417D01*
X036869Y018598D01*
X036816Y018657D01*
X036081Y017417D02*
X036081Y020487D01*
X036869Y021275D01*
X036904Y021245D01*
X036790Y021354D01*
X035924Y022220D01*
X035924Y023952D01*
X035849Y023979D01*
X036081Y017417D02*
X036790Y016708D01*
X036816Y016657D01*
X024900Y008676D02*
X024585Y008991D01*
X024034Y008991D01*
X023962Y009041D01*
X024900Y008676D02*
X026081Y008676D01*
X026140Y008602D01*
X029014Y008582D02*
X029073Y008519D01*
X030570Y007023D01*
X032144Y007023D01*
X032164Y007007D01*
X022459Y010173D02*
X021357Y009070D01*
X021281Y008995D01*
X019861Y009779D02*
X019231Y009779D01*
X018444Y008991D01*
X017105Y008991D01*
X015688Y010409D01*
X015688Y016865D01*
X014585Y017968D01*
X014585Y020960D01*
X017262Y023637D01*
X017274Y023680D01*
X023089Y014346D02*
X022459Y013716D01*
X022459Y010173D01*
D18*
X022774Y009858D02*
X023955Y011039D01*
X023962Y011041D01*
X024034Y011117D01*
X024900Y011117D01*
X027420Y013637D01*
X030412Y013637D01*
X030433Y013705D01*
X030415Y015846D02*
X030412Y015921D01*
X030412Y016944D01*
X027892Y019464D01*
X024664Y019464D01*
X023877Y019070D02*
X023833Y019132D01*
X023877Y019070D02*
X027892Y019070D01*
X029388Y017574D01*
X029388Y015921D01*
X029415Y015846D01*
X028916Y017338D02*
X027420Y015842D01*
X027415Y015846D01*
X025294Y017023D02*
X023877Y015606D01*
X023719Y015606D01*
X023168Y015606D02*
X018995Y015606D01*
X018050Y016550D01*
X017892Y016550D01*
X017184Y016236D02*
X016318Y017102D01*
X016318Y017653D01*
X016711Y017102D02*
X020491Y013322D01*
X020491Y008047D01*
X022302Y009306D02*
X022302Y005133D01*
X022538Y004897D01*
X023404Y004897D01*
X023719Y005212D01*
X023719Y005527D01*
X023168Y006078D01*
X023168Y007338D01*
X023877Y008047D01*
X026318Y008047D01*
X028522Y005842D01*
X034349Y005842D01*
X035451Y004739D01*
X035524Y004709D01*
X029388Y009779D02*
X028759Y009149D01*
X025058Y009149D01*
X025215Y009621D02*
X025373Y009779D01*
X025415Y009846D01*
X025215Y009621D02*
X023640Y009621D01*
X023168Y009149D01*
X023168Y008834D01*
X022932Y008519D02*
X022774Y008676D01*
X022774Y009858D01*
X023962Y010041D02*
X024034Y010094D01*
X024428Y010094D01*
X026633Y012299D01*
X027105Y012299D01*
X027112Y012373D01*
X027656Y011590D02*
X027577Y011511D01*
X026396Y011511D01*
X026427Y010928D02*
X026475Y010881D01*
X027184Y010881D01*
X028207Y009858D01*
X028365Y009858D01*
X028415Y009846D01*
X029388Y009779D02*
X029415Y009846D01*
X027656Y011590D02*
X032381Y011590D01*
X032932Y011039D01*
X032965Y010996D01*
X034034Y010724D02*
X036003Y010724D01*
X036019Y010731D01*
X031415Y015846D02*
X031357Y015921D01*
X031357Y016550D01*
X028050Y019858D01*
X018207Y019858D01*
X016711Y018913D02*
X016711Y017102D01*
X017274Y017680D02*
X017341Y017653D01*
X018837Y016157D01*
X023877Y016157D01*
X024113Y016393D01*
X023404Y016550D02*
X020963Y016550D01*
X018995Y016944D02*
X024349Y016944D01*
X028916Y017338D02*
X028916Y017495D01*
X029625Y019779D02*
X027341Y022062D01*
X027341Y023637D01*
X027274Y023680D01*
X019274Y023680D02*
X019231Y023637D01*
X019231Y021432D01*
X016711Y018913D01*
X015123Y018674D02*
X015136Y018598D01*
X015136Y017889D01*
X016633Y016393D01*
X016633Y010094D01*
X017184Y010094D02*
X017184Y016236D01*
X018286Y017653D02*
X018995Y016944D01*
X018286Y017653D02*
X018274Y017680D01*
X022932Y008519D02*
X022932Y005369D01*
X022997Y005339D01*
X025530Y005369D02*
X025530Y004976D01*
X025517Y004974D01*
X025530Y005369D02*
X026318Y006157D01*
X026318Y007417D01*
X026160Y007574D01*
X026140Y007602D01*
D19*
X025058Y009149D03*
X023168Y008834D03*
X022302Y009306D03*
X020491Y008047D03*
X019861Y009779D03*
X017184Y010094D03*
X016633Y010094D03*
X023168Y015606D03*
X023719Y015606D03*
X024113Y016393D03*
X023404Y016550D03*
X024349Y016944D03*
X025294Y017023D03*
X028916Y017495D03*
X029625Y019779D03*
X024664Y019464D03*
X020963Y016550D03*
X017892Y016550D03*
X016318Y017653D03*
X018207Y019858D03*
X026396Y011511D03*
X034034Y010724D03*
M02*
