G75*
G70*
%OFA0B0*%
%FSLAX24Y24*%
%IPPOS*%
%LPD*%
%AMOC8*
5,1,8,0,0,1.08239X$1,22.5*
%
%ADD10C,0.1458*%
%ADD11OC8,0.0600*%
%ADD12R,0.0634X0.0634*%
%ADD13C,0.0820*%
%ADD14C,0.0674*%
%ADD15C,0.1346*%
%ADD16C,0.0600*%
%ADD17R,0.0780X0.0780*%
%ADD18C,0.0480*%
D10*
X024337Y006776D03*
X037798Y006738D03*
X037783Y023353D03*
D11*
X035849Y023979D03*
X031849Y023979D03*
X023538Y020590D03*
X023833Y019132D03*
X019833Y019132D03*
X017526Y018566D03*
X015123Y018674D03*
X019538Y020590D03*
X017526Y022566D03*
X015123Y022674D03*
X026427Y014928D03*
X027466Y014759D03*
X030433Y013705D03*
X031466Y014759D03*
X034433Y013705D03*
X036019Y014731D03*
X031112Y012373D03*
X027112Y012373D03*
X026427Y010928D03*
X026140Y008602D03*
X026140Y007602D03*
X025857Y006327D03*
X025517Y004974D03*
X029517Y004974D03*
X029857Y006327D03*
X029014Y007582D03*
X029014Y008582D03*
X034626Y008842D03*
X035524Y008709D03*
X036290Y008709D03*
X036019Y010731D03*
X034626Y004842D03*
X035524Y004709D03*
X036290Y004709D03*
D12*
X032164Y005407D03*
X032164Y007007D03*
D13*
X032415Y009846D03*
X033415Y009846D03*
X034415Y009846D03*
X035415Y009846D03*
X036415Y009846D03*
X037415Y010346D03*
X037415Y011346D03*
X037415Y012346D03*
X037415Y013346D03*
X037415Y014346D03*
X037415Y015346D03*
X036415Y015846D03*
X035415Y015846D03*
X034415Y015846D03*
X033415Y015846D03*
X032415Y015846D03*
X031415Y015846D03*
X030415Y015846D03*
X029415Y015846D03*
X028415Y015846D03*
X027415Y015846D03*
X026415Y015846D03*
X025415Y015846D03*
X027865Y010996D03*
X028865Y010996D03*
X028415Y009846D03*
X029415Y009846D03*
X030415Y009846D03*
X031415Y009846D03*
X031965Y010996D03*
X032965Y010996D03*
X027415Y009846D03*
X026415Y009846D03*
X025415Y009846D03*
D14*
X036607Y020245D02*
X037201Y020245D01*
X037201Y021245D02*
X036607Y021245D01*
D15*
X015703Y007145D03*
X015703Y008995D03*
X021281Y008995D03*
X021281Y007145D03*
D16*
X018251Y007045D02*
X018251Y006525D01*
X019737Y005339D02*
X020257Y005339D01*
X022737Y005339D02*
X023257Y005339D01*
X023702Y009041D02*
X024222Y009041D01*
X024222Y010041D02*
X023702Y010041D01*
X023702Y011041D02*
X024222Y011041D01*
X018251Y010045D02*
X018251Y009525D01*
X036556Y016657D02*
X037076Y016657D01*
X037076Y017657D02*
X036556Y017657D01*
X036556Y018657D02*
X037076Y018657D01*
D17*
X028274Y017680D03*
X027274Y017680D03*
X026274Y017680D03*
X025274Y017680D03*
X024274Y017680D03*
X023274Y017680D03*
X022274Y017680D03*
X021274Y017680D03*
X020274Y017680D03*
X019274Y017680D03*
X018274Y017680D03*
X017274Y017680D03*
X017274Y023680D03*
X018274Y023680D03*
X019274Y023680D03*
X020274Y023680D03*
X021274Y023680D03*
X022274Y023680D03*
X023274Y023680D03*
X024274Y023680D03*
X025274Y023680D03*
X026274Y023680D03*
X027274Y023680D03*
X028274Y023680D03*
D18*
X018365Y021039D03*
X025373Y016944D03*
X022696Y014582D03*
X025136Y012850D03*
X024822Y012456D03*
X025924Y012062D03*
X025058Y011196D03*
X027026Y008913D03*
X028129Y008519D03*
X031593Y013243D03*
X037814Y009306D03*
X017656Y009082D03*
X017184Y009700D03*
X016633Y010094D03*
M02*
