G75*
G70*
%OFA0B0*%
%FSLAX24Y24*%
%IPPOS*%
%LPD*%
%AMOC8*
5,1,8,0,0,1.08239X$1,22.5*
%
%ADD10OC8,0.0520*%
%ADD11R,0.0554X0.0554*%
%ADD12C,0.0740*%
%ADD13C,0.0594*%
%ADD14C,0.1266*%
%ADD15C,0.0520*%
%ADD16R,0.0700X0.0700*%
%ADD17C,0.0250*%
%ADD18C,0.0400*%
%ADD19C,0.0150*%
D10*
X025517Y004974D03*
X025857Y006327D03*
X026140Y007602D03*
X026140Y008602D03*
X029014Y008582D03*
X029014Y007582D03*
X029857Y006327D03*
X029517Y004974D03*
X034626Y004842D03*
X035524Y004709D03*
X036290Y004709D03*
X036290Y008709D03*
X035524Y008709D03*
X034626Y008842D03*
X036019Y010731D03*
X031112Y012373D03*
X030433Y013705D03*
X031466Y014759D03*
X034433Y013705D03*
X036019Y014731D03*
X027466Y014759D03*
X026427Y014928D03*
X027112Y012373D03*
X026427Y010928D03*
X017526Y018566D03*
X019833Y019132D03*
X019538Y020590D03*
X017526Y022566D03*
X015123Y022674D03*
X015123Y018674D03*
X023538Y020590D03*
X023833Y019132D03*
X031849Y023979D03*
X035849Y023979D03*
D11*
X032164Y007007D03*
X032164Y005407D03*
D12*
X032415Y009846D03*
X033415Y009846D03*
X034415Y009846D03*
X035415Y009846D03*
X036415Y009846D03*
X032965Y010996D03*
X031965Y010996D03*
X031415Y009846D03*
X030415Y009846D03*
X029415Y009846D03*
X028415Y009846D03*
X027415Y009846D03*
X026415Y009846D03*
X025415Y009846D03*
X027865Y010996D03*
X028865Y010996D03*
X028415Y015846D03*
X029415Y015846D03*
X030415Y015846D03*
X031415Y015846D03*
X032415Y015846D03*
X033415Y015846D03*
X034415Y015846D03*
X035415Y015846D03*
X036415Y015846D03*
X027415Y015846D03*
X026415Y015846D03*
X025415Y015846D03*
D13*
X036607Y020245D02*
X037201Y020245D01*
X037201Y021245D02*
X036607Y021245D01*
D14*
X015703Y007145D03*
X015703Y008995D03*
X021281Y008995D03*
X021281Y007145D03*
D15*
X018931Y006605D02*
X018931Y006085D01*
X019737Y005339D02*
X020257Y005339D01*
X022737Y005339D02*
X023257Y005339D01*
X023702Y009041D02*
X024222Y009041D01*
X024222Y010041D02*
X023702Y010041D01*
X023702Y011041D02*
X024222Y011041D01*
X018931Y009605D02*
X018931Y009085D01*
X036481Y017003D02*
X037001Y017003D01*
X037001Y018003D02*
X036481Y018003D01*
X036481Y019003D02*
X037001Y019003D01*
D16*
X028274Y017680D03*
X027274Y017680D03*
X026274Y017680D03*
X025274Y017680D03*
X024274Y017680D03*
X023274Y017680D03*
X022274Y017680D03*
X021274Y017680D03*
X020274Y017680D03*
X019274Y017680D03*
X018274Y017680D03*
X017274Y017680D03*
X017274Y023680D03*
X018274Y023680D03*
X019274Y023680D03*
X020274Y023680D03*
X021274Y023680D03*
X022274Y023680D03*
X023274Y023680D03*
X024274Y023680D03*
X025274Y023680D03*
X026274Y023680D03*
X027274Y023680D03*
X028274Y023680D03*
D17*
X023274Y023680D02*
X023213Y023675D01*
X023213Y022625D01*
X023143Y022625D01*
X017543Y022625D01*
X017526Y022566D01*
X017263Y023675D02*
X017274Y023680D01*
X017263Y023675D02*
X014603Y021015D01*
X014603Y018495D01*
X015653Y017445D01*
X015653Y010445D01*
X016773Y009325D01*
X021281Y008995D02*
X021323Y009045D01*
X021883Y009605D01*
X021953Y009535D01*
X024893Y009535D01*
X025173Y009255D01*
X032663Y009255D01*
X033223Y009815D01*
X033363Y009815D01*
X033415Y009846D01*
X035463Y008695D02*
X035524Y008709D01*
X035463Y008695D02*
X033853Y007085D01*
X032243Y007085D01*
X032164Y007007D01*
X032103Y007015D01*
X030563Y007015D01*
X029093Y008485D01*
X029014Y008582D01*
X028953Y008625D01*
X026223Y008625D01*
X026140Y008602D01*
X026083Y008625D01*
X025313Y008625D01*
X024963Y008975D01*
X023983Y008975D01*
X023962Y009041D01*
X022513Y010235D02*
X021883Y009605D01*
X022513Y010235D02*
X022513Y013805D01*
X025173Y016465D01*
X027063Y016465D01*
X028253Y017655D01*
X028274Y017680D01*
X024274Y017680D02*
X024263Y017655D01*
X023703Y017095D01*
X022863Y017095D01*
X022793Y017025D01*
X022793Y014715D01*
X022863Y017095D02*
X022303Y017655D01*
X022274Y017680D01*
X022303Y017795D01*
X022303Y020035D01*
X023213Y020945D01*
X023213Y022625D01*
D18*
X024823Y015275D03*
X022793Y014715D03*
X028113Y012825D03*
X030773Y011425D03*
X034553Y012825D03*
X024753Y008205D03*
X017683Y009745D03*
X017193Y010025D03*
X016703Y010025D03*
X016773Y009325D03*
D19*
X017683Y009745D02*
X019223Y008205D01*
X024753Y008205D01*
X026140Y007602D02*
X026153Y007575D01*
X026293Y007435D01*
X026293Y006175D01*
X025523Y005405D01*
X025523Y004985D01*
X025517Y004974D01*
X027415Y009846D02*
X027413Y009885D01*
X026923Y010375D01*
X026363Y010375D01*
X025943Y010795D01*
X025943Y011075D01*
X026223Y011355D01*
X026713Y011355D01*
X027553Y012195D01*
X027553Y012545D01*
X024823Y015275D01*
X027415Y015846D02*
X027483Y015905D01*
X028813Y017235D01*
X028813Y018075D01*
X028323Y018565D01*
X028323Y023675D01*
X028274Y023680D01*
X028673Y024235D02*
X027833Y024235D01*
X027343Y023745D01*
X027274Y023680D01*
X028673Y024235D02*
X029093Y023815D01*
X029093Y016535D01*
X028463Y015905D01*
X028415Y015846D01*
X028113Y012825D02*
X028813Y012825D01*
X030633Y011005D01*
X031193Y011005D01*
X031753Y011565D01*
X032383Y011565D01*
X032943Y011005D01*
X032965Y010996D01*
X033503Y010725D02*
X033153Y010375D01*
X029933Y010375D01*
X029443Y009885D01*
X029415Y009846D01*
X028415Y009846D02*
X028393Y009885D01*
X028183Y009885D01*
X027203Y010865D01*
X026433Y010865D01*
X026427Y010928D01*
X026853Y012335D02*
X024613Y010095D01*
X023983Y010095D01*
X023962Y010041D01*
X026853Y012335D02*
X027063Y012335D01*
X027112Y012373D01*
X030773Y011425D02*
X034553Y015205D01*
X036583Y015205D01*
X037003Y015625D01*
X037003Y016045D01*
X036653Y016395D01*
X036443Y016395D01*
X036023Y016815D01*
X036023Y017235D01*
X028743Y024515D01*
X020063Y024515D01*
X019293Y023745D01*
X019274Y023680D01*
X019538Y020590D02*
X019503Y020525D01*
X018803Y020525D01*
X016003Y017725D01*
X015968Y017690D01*
X016703Y016955D01*
X016703Y010025D01*
X017193Y010025D02*
X017193Y016815D01*
X016703Y017305D01*
X016703Y018075D01*
X017193Y018565D01*
X017473Y018565D01*
X017526Y018566D01*
X015968Y017690D02*
X015163Y018495D01*
X015163Y018635D01*
X015123Y018674D01*
X031893Y022905D02*
X036723Y018075D01*
X036741Y018003D01*
X036793Y017935D01*
X037423Y017305D01*
X037423Y015485D01*
X035673Y013735D01*
X034483Y013735D01*
X034433Y013705D01*
X034553Y012825D02*
X037003Y010375D01*
X037003Y008835D01*
X036303Y008135D01*
X036303Y004775D01*
X036290Y004709D01*
X035953Y010725D02*
X033503Y010725D01*
X035953Y010725D02*
X036019Y010731D01*
X031893Y022905D02*
X031893Y023955D01*
X031849Y023979D01*
M02*
