G75*
G70*
%OFA0B0*%
%FSLAX24Y24*%
%IPPOS*%
%LPD*%
%AMOC8*
5,1,8,0,0,1.08239X$1,22.5*
%
%ADD10C,0.0000*%
%ADD11R,0.0315X0.0630*%
%ADD12R,0.0630X0.0315*%
%ADD13OC8,0.0520*%
%ADD14R,0.0554X0.0554*%
%ADD15C,0.0740*%
%ADD16C,0.0594*%
%ADD17C,0.1266*%
%ADD18C,0.0520*%
%ADD19R,0.0700X0.0700*%
%ADD20C,0.0250*%
%ADD21C,0.0400*%
%ADD22C,0.0150*%
D10*
X011813Y005530D02*
X011769Y024503D01*
X018514Y024503D01*
X018513Y025933D01*
X038782Y025952D01*
X038783Y004043D01*
X018483Y004054D01*
X018483Y005564D01*
X011813Y005530D01*
X023648Y006776D02*
X023650Y006828D01*
X023656Y006880D01*
X023666Y006931D01*
X023679Y006981D01*
X023697Y007031D01*
X023718Y007078D01*
X023742Y007124D01*
X023771Y007168D01*
X023802Y007210D01*
X023836Y007249D01*
X023873Y007286D01*
X023913Y007319D01*
X023956Y007350D01*
X024000Y007377D01*
X024046Y007401D01*
X024095Y007421D01*
X024144Y007437D01*
X024195Y007450D01*
X024246Y007459D01*
X024298Y007464D01*
X024350Y007465D01*
X024402Y007462D01*
X024454Y007455D01*
X024505Y007444D01*
X024555Y007430D01*
X024604Y007411D01*
X024651Y007389D01*
X024696Y007364D01*
X024740Y007335D01*
X024781Y007303D01*
X024820Y007268D01*
X024855Y007230D01*
X024888Y007189D01*
X024918Y007147D01*
X024944Y007102D01*
X024967Y007055D01*
X024986Y007006D01*
X025002Y006956D01*
X025014Y006906D01*
X025022Y006854D01*
X025026Y006802D01*
X025026Y006750D01*
X025022Y006698D01*
X025014Y006646D01*
X025002Y006596D01*
X024986Y006546D01*
X024967Y006497D01*
X024944Y006450D01*
X024918Y006405D01*
X024888Y006363D01*
X024855Y006322D01*
X024820Y006284D01*
X024781Y006249D01*
X024740Y006217D01*
X024696Y006188D01*
X024651Y006163D01*
X024604Y006141D01*
X024555Y006122D01*
X024505Y006108D01*
X024454Y006097D01*
X024402Y006090D01*
X024350Y006087D01*
X024298Y006088D01*
X024246Y006093D01*
X024195Y006102D01*
X024144Y006115D01*
X024095Y006131D01*
X024046Y006151D01*
X024000Y006175D01*
X023956Y006202D01*
X023913Y006233D01*
X023873Y006266D01*
X023836Y006303D01*
X023802Y006342D01*
X023771Y006384D01*
X023742Y006428D01*
X023718Y006474D01*
X023697Y006521D01*
X023679Y006571D01*
X023666Y006621D01*
X023656Y006672D01*
X023650Y006724D01*
X023648Y006776D01*
X037109Y006738D02*
X037111Y006790D01*
X037117Y006842D01*
X037127Y006893D01*
X037140Y006943D01*
X037158Y006993D01*
X037179Y007040D01*
X037203Y007086D01*
X037232Y007130D01*
X037263Y007172D01*
X037297Y007211D01*
X037334Y007248D01*
X037374Y007281D01*
X037417Y007312D01*
X037461Y007339D01*
X037507Y007363D01*
X037556Y007383D01*
X037605Y007399D01*
X037656Y007412D01*
X037707Y007421D01*
X037759Y007426D01*
X037811Y007427D01*
X037863Y007424D01*
X037915Y007417D01*
X037966Y007406D01*
X038016Y007392D01*
X038065Y007373D01*
X038112Y007351D01*
X038157Y007326D01*
X038201Y007297D01*
X038242Y007265D01*
X038281Y007230D01*
X038316Y007192D01*
X038349Y007151D01*
X038379Y007109D01*
X038405Y007064D01*
X038428Y007017D01*
X038447Y006968D01*
X038463Y006918D01*
X038475Y006868D01*
X038483Y006816D01*
X038487Y006764D01*
X038487Y006712D01*
X038483Y006660D01*
X038475Y006608D01*
X038463Y006558D01*
X038447Y006508D01*
X038428Y006459D01*
X038405Y006412D01*
X038379Y006367D01*
X038349Y006325D01*
X038316Y006284D01*
X038281Y006246D01*
X038242Y006211D01*
X038201Y006179D01*
X038157Y006150D01*
X038112Y006125D01*
X038065Y006103D01*
X038016Y006084D01*
X037966Y006070D01*
X037915Y006059D01*
X037863Y006052D01*
X037811Y006049D01*
X037759Y006050D01*
X037707Y006055D01*
X037656Y006064D01*
X037605Y006077D01*
X037556Y006093D01*
X037507Y006113D01*
X037461Y006137D01*
X037417Y006164D01*
X037374Y006195D01*
X037334Y006228D01*
X037297Y006265D01*
X037263Y006304D01*
X037232Y006346D01*
X037203Y006390D01*
X037179Y006436D01*
X037158Y006483D01*
X037140Y006533D01*
X037127Y006583D01*
X037117Y006634D01*
X037111Y006686D01*
X037109Y006738D01*
X037094Y023353D02*
X037096Y023405D01*
X037102Y023457D01*
X037112Y023508D01*
X037125Y023558D01*
X037143Y023608D01*
X037164Y023655D01*
X037188Y023701D01*
X037217Y023745D01*
X037248Y023787D01*
X037282Y023826D01*
X037319Y023863D01*
X037359Y023896D01*
X037402Y023927D01*
X037446Y023954D01*
X037492Y023978D01*
X037541Y023998D01*
X037590Y024014D01*
X037641Y024027D01*
X037692Y024036D01*
X037744Y024041D01*
X037796Y024042D01*
X037848Y024039D01*
X037900Y024032D01*
X037951Y024021D01*
X038001Y024007D01*
X038050Y023988D01*
X038097Y023966D01*
X038142Y023941D01*
X038186Y023912D01*
X038227Y023880D01*
X038266Y023845D01*
X038301Y023807D01*
X038334Y023766D01*
X038364Y023724D01*
X038390Y023679D01*
X038413Y023632D01*
X038432Y023583D01*
X038448Y023533D01*
X038460Y023483D01*
X038468Y023431D01*
X038472Y023379D01*
X038472Y023327D01*
X038468Y023275D01*
X038460Y023223D01*
X038448Y023173D01*
X038432Y023123D01*
X038413Y023074D01*
X038390Y023027D01*
X038364Y022982D01*
X038334Y022940D01*
X038301Y022899D01*
X038266Y022861D01*
X038227Y022826D01*
X038186Y022794D01*
X038142Y022765D01*
X038097Y022740D01*
X038050Y022718D01*
X038001Y022699D01*
X037951Y022685D01*
X037900Y022674D01*
X037848Y022667D01*
X037796Y022664D01*
X037744Y022665D01*
X037692Y022670D01*
X037641Y022679D01*
X037590Y022692D01*
X037541Y022708D01*
X037492Y022728D01*
X037446Y022752D01*
X037402Y022779D01*
X037359Y022810D01*
X037319Y022843D01*
X037282Y022880D01*
X037248Y022919D01*
X037217Y022961D01*
X037188Y023005D01*
X037164Y023051D01*
X037143Y023098D01*
X037125Y023148D01*
X037112Y023198D01*
X037102Y023249D01*
X037096Y023301D01*
X037094Y023353D01*
D11*
X020957Y015939D03*
X020485Y015939D03*
X020012Y015939D03*
X019540Y015939D03*
X019068Y015939D03*
X018595Y015939D03*
X018123Y015939D03*
X017650Y015939D03*
X017178Y015939D03*
X016705Y015939D03*
X016233Y015939D03*
X015761Y015939D03*
X015761Y010742D03*
X016233Y010742D03*
X016705Y010742D03*
X017178Y010742D03*
X017650Y010742D03*
X018123Y010742D03*
X018595Y010742D03*
X019068Y010742D03*
X019540Y010742D03*
X020012Y010742D03*
X020485Y010742D03*
X020957Y010742D03*
D12*
X022060Y011718D03*
X022060Y012120D03*
X022060Y012593D03*
X022060Y013065D03*
X022060Y013616D03*
X022060Y014089D03*
X022060Y014561D03*
X022060Y014964D03*
X014658Y015230D03*
X014658Y014600D03*
X014658Y013971D03*
D13*
X015123Y018674D03*
X017526Y018566D03*
X019833Y019132D03*
X019538Y020590D03*
X017526Y022566D03*
X015123Y022674D03*
X023538Y020590D03*
X023833Y019132D03*
X026427Y014928D03*
X027466Y014759D03*
X030433Y013705D03*
X031466Y014759D03*
X034433Y013705D03*
X036019Y014731D03*
X031112Y012373D03*
X027112Y012373D03*
X026427Y010928D03*
X026140Y008602D03*
X026140Y007602D03*
X025857Y006327D03*
X025517Y004974D03*
X029517Y004974D03*
X029857Y006327D03*
X029014Y007582D03*
X029014Y008582D03*
X034626Y008842D03*
X035524Y008709D03*
X036290Y008709D03*
X036019Y010731D03*
X034626Y004842D03*
X035524Y004709D03*
X036290Y004709D03*
X035849Y023979D03*
X031849Y023979D03*
D14*
X032164Y007007D03*
X032164Y005407D03*
D15*
X032415Y009846D03*
X033415Y009846D03*
X034415Y009846D03*
X035415Y009846D03*
X036415Y009846D03*
X032965Y010996D03*
X031965Y010996D03*
X031415Y009846D03*
X030415Y009846D03*
X029415Y009846D03*
X028415Y009846D03*
X027415Y009846D03*
X026415Y009846D03*
X025415Y009846D03*
X027865Y010996D03*
X028865Y010996D03*
X028415Y015846D03*
X029415Y015846D03*
X030415Y015846D03*
X031415Y015846D03*
X032415Y015846D03*
X033415Y015846D03*
X034415Y015846D03*
X035415Y015846D03*
X036415Y015846D03*
X027415Y015846D03*
X026415Y015846D03*
X025415Y015846D03*
D16*
X036607Y020245D02*
X037201Y020245D01*
X037201Y021245D02*
X036607Y021245D01*
D17*
X021281Y008995D03*
X021281Y007145D03*
X015703Y007145D03*
X015703Y008995D03*
D18*
X018931Y009085D02*
X018931Y009605D01*
X023702Y010041D02*
X024222Y010041D01*
X024222Y011041D02*
X023702Y011041D01*
X023702Y009041D02*
X024222Y009041D01*
X018931Y006605D02*
X018931Y006085D01*
X019737Y005339D02*
X020257Y005339D01*
X022737Y005339D02*
X023257Y005339D01*
X036481Y017003D02*
X037001Y017003D01*
X037001Y018003D02*
X036481Y018003D01*
X036481Y019003D02*
X037001Y019003D01*
D19*
X028274Y017680D03*
X027274Y017680D03*
X026274Y017680D03*
X025274Y017680D03*
X024274Y017680D03*
X023274Y017680D03*
X022274Y017680D03*
X021274Y017680D03*
X020274Y017680D03*
X019274Y017680D03*
X018274Y017680D03*
X017274Y017680D03*
X017274Y023680D03*
X018274Y023680D03*
X019274Y023680D03*
X020274Y023680D03*
X021274Y023680D03*
X022274Y023680D03*
X023274Y023680D03*
X024274Y023680D03*
X025274Y023680D03*
X026274Y023680D03*
X027274Y023680D03*
X028274Y023680D03*
D20*
X035849Y023979D02*
X035883Y023955D01*
X035883Y022205D01*
X036793Y021295D01*
X036904Y021245D01*
X036933Y021225D01*
X037703Y020455D01*
X037703Y019965D01*
X036793Y019055D01*
X036741Y019003D01*
X036863Y020105D02*
X033433Y016675D01*
X033433Y015975D01*
X033415Y015846D01*
X033363Y015835D01*
X032383Y014855D01*
X032453Y014785D01*
X035463Y014785D01*
X035463Y014715D01*
X035463Y009955D01*
X035415Y009846D01*
X035463Y009815D01*
X035463Y008765D01*
X035524Y008709D01*
X036290Y008709D02*
X036303Y008765D01*
X036303Y009745D01*
X036373Y009815D01*
X036415Y009846D01*
X036443Y009955D01*
X037003Y010515D01*
X037003Y016115D01*
X036793Y016325D01*
X036793Y016955D01*
X036741Y017003D01*
X035953Y014785D02*
X035463Y014785D01*
X035953Y014785D02*
X036019Y014731D01*
X032383Y014855D02*
X032313Y014785D01*
X031473Y014785D01*
X031466Y014759D01*
X031403Y014715D01*
X030913Y014225D01*
X026433Y014225D01*
X026153Y014505D01*
X022793Y014505D01*
X022793Y014575D01*
X022793Y014715D01*
X022793Y014505D02*
X022163Y014505D01*
X022060Y014561D01*
X022023Y014505D01*
X021673Y014505D01*
X021533Y014365D01*
X021533Y012125D01*
X021603Y012055D01*
X020973Y011425D01*
X020973Y011285D01*
X020903Y011285D01*
X016003Y011285D01*
X015863Y011145D01*
X015863Y010795D01*
X015761Y010742D01*
X015723Y010725D01*
X015723Y009045D01*
X015703Y008995D01*
X016773Y009325D02*
X017893Y009325D01*
X018663Y010095D01*
X020133Y010095D01*
X020483Y010445D01*
X020483Y010725D01*
X020485Y010742D01*
X020957Y010742D02*
X020973Y010795D01*
X020973Y011285D01*
X021603Y012055D02*
X021673Y012125D01*
X022023Y012125D01*
X022060Y012120D01*
X024333Y017655D02*
X024274Y017680D01*
X024333Y017655D02*
X025243Y017655D01*
X025274Y017680D01*
X017526Y022566D02*
X017473Y022625D01*
X015163Y022625D01*
X015123Y022674D01*
X036863Y020245D02*
X036863Y020105D01*
X036863Y020245D02*
X036904Y020245D01*
D21*
X024823Y015275D03*
X022793Y014715D03*
X028113Y012825D03*
X030773Y011425D03*
X034553Y012825D03*
X024753Y008205D03*
X017683Y009745D03*
X017193Y010025D03*
X016703Y010025D03*
X016773Y009325D03*
D22*
X017683Y009745D02*
X017683Y010725D01*
X017650Y010742D01*
X017193Y010725D02*
X017178Y010742D01*
X017193Y010725D02*
X017193Y010025D01*
X016703Y010025D02*
X016703Y010725D01*
X016705Y010742D01*
X018943Y009395D02*
X018931Y009345D01*
X018943Y009395D02*
X020553Y009395D01*
X021393Y010235D01*
X022373Y010235D01*
X023283Y011145D01*
X023283Y011215D01*
X024893Y012825D01*
X028113Y012825D01*
X029513Y013665D02*
X027203Y011355D01*
X024263Y011355D01*
X023983Y011075D01*
X023962Y011041D01*
X023913Y011005D01*
X023003Y010095D01*
X023003Y005405D01*
X022997Y005339D01*
X022513Y004915D02*
X024823Y004915D01*
X025803Y005895D01*
X027973Y005895D01*
X029443Y007365D01*
X029443Y009815D01*
X029415Y009846D01*
X029023Y010375D02*
X025943Y010375D01*
X025453Y009885D01*
X025415Y009846D01*
X026363Y009815D02*
X026415Y009846D01*
X026363Y009815D02*
X024753Y008205D01*
X025873Y006385D02*
X025857Y006327D01*
X025873Y006385D02*
X027763Y006385D01*
X028953Y007575D01*
X029014Y007582D01*
X029863Y006385D02*
X029857Y006327D01*
X029863Y006385D02*
X029863Y009325D01*
X030353Y009815D01*
X030415Y009846D01*
X031403Y009815D02*
X031415Y009846D01*
X031403Y009815D02*
X031403Y007225D01*
X029583Y005405D01*
X029583Y004985D01*
X029517Y004974D01*
X032164Y005407D02*
X032173Y005405D01*
X032733Y004845D01*
X034623Y004845D01*
X034626Y004842D01*
X035524Y004709D02*
X035533Y004705D01*
X036233Y004705D01*
X036290Y004709D01*
X034626Y008842D02*
X034623Y008905D01*
X033363Y008905D01*
X032453Y009815D01*
X032415Y009846D01*
X031965Y010996D02*
X031963Y011005D01*
X031123Y011845D01*
X031123Y012335D01*
X031112Y012373D01*
X030773Y011425D02*
X029793Y011425D01*
X029443Y011075D01*
X029443Y010795D01*
X029023Y010375D01*
X027903Y011005D02*
X027865Y010996D01*
X027903Y011005D02*
X029723Y012825D01*
X034553Y012825D01*
X030433Y013705D02*
X030423Y013665D01*
X029513Y013665D01*
X027466Y014759D02*
X027413Y014785D01*
X026293Y014785D01*
X026427Y014928D01*
X026363Y014925D01*
X026293Y014855D01*
X024683Y014855D01*
X023143Y016395D01*
X021393Y016395D01*
X020973Y015975D01*
X020957Y015939D01*
X020553Y015975D02*
X020553Y016255D01*
X020973Y016675D01*
X023423Y016675D01*
X024823Y015275D01*
X025415Y015846D02*
X025383Y015905D01*
X024333Y016955D01*
X019013Y016955D01*
X018313Y017655D01*
X018274Y017680D01*
X017823Y018215D02*
X028673Y018215D01*
X028813Y018075D01*
X028813Y017235D01*
X027973Y016395D01*
X026923Y016395D01*
X026433Y015905D01*
X026415Y015846D01*
X029373Y015905D02*
X029415Y015846D01*
X029373Y015905D02*
X029373Y017865D01*
X028113Y019125D01*
X023843Y019125D01*
X023833Y019132D01*
X023563Y020525D02*
X023538Y020590D01*
X023563Y020525D02*
X027063Y020525D01*
X030353Y017235D01*
X030353Y015905D01*
X030415Y015846D01*
X031403Y015905D02*
X031415Y015846D01*
X031403Y015905D02*
X031403Y016535D01*
X026923Y021015D01*
X019363Y021015D01*
X016703Y018355D01*
X016703Y017305D01*
X016843Y017165D01*
X017123Y017165D01*
X018103Y016185D01*
X018103Y015975D01*
X018123Y015939D01*
X020485Y015939D02*
X020553Y015975D01*
X017823Y018215D02*
X017333Y017725D01*
X017274Y017680D01*
X017526Y018566D02*
X017543Y018635D01*
X018033Y019125D01*
X019783Y019125D01*
X019833Y019132D01*
X021281Y007145D02*
X021323Y007085D01*
X021323Y006105D01*
X022513Y004915D01*
X019997Y005339D02*
X019993Y005405D01*
X019083Y006315D01*
X018943Y006315D01*
X018931Y006345D01*
X018873Y006385D01*
X016423Y006385D01*
X015723Y007085D01*
X015703Y007145D01*
M02*
