G75*
G70*
%OFA0B0*%
%FSLAX24Y24*%
%IPPOS*%
%LPD*%
%AMOC8*
5,1,8,0,0,1.08239X$1,22.5*
%
%ADD10C,0.0070*%
%ADD11C,0.0060*%
%ADD12C,0.0080*%
%ADD13R,0.0340X0.0240*%
%ADD14C,0.0050*%
%ADD15C,0.0100*%
%ADD16C,0.0090*%
%ADD17C,0.0040*%
%ADD18R,0.0200X0.0800*%
%ADD19R,0.0250X0.0200*%
%ADD20R,0.0800X0.0200*%
%ADD21R,0.0200X0.0250*%
%ADD22R,0.0240X0.0340*%
D10*
X021654Y024518D02*
X021654Y025309D01*
X022050Y025309D01*
X022181Y025177D01*
X022181Y024913D01*
X022050Y024781D01*
X021654Y024781D01*
X021390Y024781D02*
X020994Y024781D01*
X020862Y024913D01*
X020994Y025045D01*
X021390Y025045D01*
X021390Y025177D02*
X021390Y024781D01*
X021390Y025177D02*
X021258Y025309D01*
X020994Y025309D01*
X020598Y025177D02*
X020598Y024781D01*
X020598Y025177D02*
X020466Y025309D01*
X020202Y025309D01*
X020071Y025177D01*
X019806Y025440D02*
X019674Y025572D01*
X019410Y025572D01*
X019279Y025440D01*
X019279Y024913D01*
X019410Y024781D01*
X019674Y024781D01*
X019806Y024913D01*
X020071Y024781D02*
X020071Y025572D01*
X022446Y025572D02*
X022446Y024781D01*
X022446Y025045D02*
X022842Y025045D01*
X022973Y025177D01*
X022973Y025440D01*
X022842Y025572D01*
X022446Y025572D01*
X022710Y025045D02*
X022973Y024781D01*
X024030Y025309D02*
X024293Y024781D01*
X024557Y025309D01*
X024822Y025309D02*
X025085Y025572D01*
X025085Y024781D01*
X024822Y024781D02*
X025349Y024781D01*
X025614Y024781D02*
X025745Y024781D01*
X025745Y024913D01*
X025614Y024913D01*
X025614Y024781D01*
X026010Y024781D02*
X026537Y024781D01*
X026273Y024781D02*
X026273Y025572D01*
X026010Y025309D01*
D11*
X028162Y025170D02*
X028162Y024670D01*
X028412Y024420D01*
X028912Y024420D01*
X029162Y024670D01*
X029162Y025170D01*
X028912Y025420D01*
X028412Y025420D01*
X028162Y025170D01*
X029162Y025170D02*
X029412Y025420D01*
X029912Y025420D01*
X030162Y025170D01*
X030162Y024670D01*
X029912Y024420D01*
X029412Y024420D01*
X029162Y024670D01*
X032468Y022818D02*
X032618Y022818D01*
X032668Y022768D01*
X034568Y022768D01*
X034618Y022818D01*
X034768Y022818D01*
X034785Y022816D01*
X034802Y022812D01*
X034818Y022805D01*
X034832Y022795D01*
X034845Y022782D01*
X034855Y022768D01*
X034862Y022752D01*
X034866Y022735D01*
X034868Y022718D01*
X034868Y022018D01*
X034866Y022001D01*
X034862Y021984D01*
X034855Y021968D01*
X034845Y021954D01*
X034832Y021941D01*
X034818Y021931D01*
X034802Y021924D01*
X034785Y021920D01*
X034768Y021918D01*
X034618Y021918D01*
X034568Y021968D01*
X032668Y021968D01*
X032618Y021918D01*
X032468Y021918D01*
X032451Y021920D01*
X032434Y021924D01*
X032418Y021931D01*
X032404Y021941D01*
X032391Y021954D01*
X032381Y021968D01*
X032374Y021984D01*
X032370Y022001D01*
X032368Y022018D01*
X032368Y022718D01*
X032370Y022735D01*
X032374Y022752D01*
X032381Y022768D01*
X032391Y022782D01*
X032404Y022795D01*
X032418Y022805D01*
X032434Y022812D01*
X032451Y022816D01*
X032468Y022818D01*
X033152Y021292D02*
X033302Y021292D01*
X033319Y021290D01*
X033336Y021286D01*
X033352Y021279D01*
X033366Y021269D01*
X033379Y021256D01*
X033389Y021242D01*
X033396Y021226D01*
X033400Y021209D01*
X033402Y021192D01*
X033402Y020492D01*
X033400Y020475D01*
X033396Y020458D01*
X033389Y020442D01*
X033379Y020428D01*
X033366Y020415D01*
X033352Y020405D01*
X033336Y020398D01*
X033319Y020394D01*
X033302Y020392D01*
X033152Y020392D01*
X033102Y020442D01*
X031202Y020442D01*
X031152Y020392D01*
X031002Y020392D01*
X030985Y020394D01*
X030968Y020398D01*
X030952Y020405D01*
X030938Y020415D01*
X030925Y020428D01*
X030915Y020442D01*
X030908Y020458D01*
X030904Y020475D01*
X030902Y020492D01*
X030902Y021192D01*
X030904Y021209D01*
X030908Y021226D01*
X030915Y021242D01*
X030925Y021256D01*
X030938Y021269D01*
X030952Y021279D01*
X030968Y021286D01*
X030985Y021290D01*
X031002Y021292D01*
X031152Y021292D01*
X031202Y021242D01*
X033102Y021242D01*
X033152Y021292D01*
X031449Y019759D02*
X031449Y019059D01*
X031447Y019042D01*
X031443Y019025D01*
X031436Y019009D01*
X031426Y018995D01*
X031413Y018982D01*
X031399Y018972D01*
X031383Y018965D01*
X031366Y018961D01*
X031349Y018959D01*
X031199Y018959D01*
X031149Y019009D01*
X029249Y019009D01*
X029199Y018959D01*
X029049Y018959D01*
X029032Y018961D01*
X029015Y018965D01*
X028999Y018972D01*
X028985Y018982D01*
X028972Y018995D01*
X028962Y019009D01*
X028955Y019025D01*
X028951Y019042D01*
X028949Y019059D01*
X028949Y019759D01*
X028951Y019776D01*
X028955Y019793D01*
X028962Y019809D01*
X028972Y019823D01*
X028985Y019836D01*
X028999Y019846D01*
X029015Y019853D01*
X029032Y019857D01*
X029049Y019859D01*
X029199Y019859D01*
X029249Y019809D01*
X031149Y019809D01*
X031199Y019859D01*
X031349Y019859D01*
X031366Y019857D01*
X031383Y019853D01*
X031399Y019846D01*
X031413Y019836D01*
X031426Y019823D01*
X031436Y019809D01*
X031443Y019793D01*
X031447Y019776D01*
X031449Y019759D01*
X028013Y020480D02*
X028013Y021180D01*
X028011Y021197D01*
X028007Y021214D01*
X028000Y021230D01*
X027990Y021244D01*
X027977Y021257D01*
X027963Y021267D01*
X027947Y021274D01*
X027930Y021278D01*
X027913Y021280D01*
X027763Y021280D01*
X027713Y021230D01*
X025813Y021230D01*
X025763Y021280D01*
X025613Y021280D01*
X025596Y021278D01*
X025579Y021274D01*
X025563Y021267D01*
X025549Y021257D01*
X025536Y021244D01*
X025526Y021230D01*
X025519Y021214D01*
X025515Y021197D01*
X025513Y021180D01*
X025513Y020480D01*
X025515Y020463D01*
X025519Y020446D01*
X025526Y020430D01*
X025536Y020416D01*
X025549Y020403D01*
X025563Y020393D01*
X025579Y020386D01*
X025596Y020382D01*
X025613Y020380D01*
X025763Y020380D01*
X025813Y020430D01*
X027713Y020430D01*
X027763Y020380D01*
X027913Y020380D01*
X027930Y020382D01*
X027947Y020386D01*
X027963Y020393D01*
X027977Y020403D01*
X027990Y020416D01*
X028000Y020430D01*
X028007Y020446D01*
X028011Y020463D01*
X028013Y020480D01*
X025943Y019670D02*
X025943Y018970D01*
X025941Y018953D01*
X025937Y018936D01*
X025930Y018920D01*
X025920Y018906D01*
X025907Y018893D01*
X025893Y018883D01*
X025877Y018876D01*
X025860Y018872D01*
X025843Y018870D01*
X025693Y018870D01*
X025643Y018920D01*
X023743Y018920D01*
X023693Y018870D01*
X023543Y018870D01*
X023526Y018872D01*
X023509Y018876D01*
X023493Y018883D01*
X023479Y018893D01*
X023466Y018906D01*
X023456Y018920D01*
X023449Y018936D01*
X023445Y018953D01*
X023443Y018970D01*
X023443Y019670D01*
X023445Y019687D01*
X023449Y019704D01*
X023456Y019720D01*
X023466Y019734D01*
X023479Y019747D01*
X023493Y019757D01*
X023509Y019764D01*
X023526Y019768D01*
X023543Y019770D01*
X023693Y019770D01*
X023743Y019720D01*
X025643Y019720D01*
X025693Y019770D01*
X025843Y019770D01*
X025860Y019768D01*
X025877Y019764D01*
X025893Y019757D01*
X025907Y019747D01*
X025920Y019734D01*
X025930Y019720D01*
X025937Y019704D01*
X025941Y019687D01*
X025943Y019670D01*
X020307Y019356D02*
X020307Y020056D01*
X020305Y020073D01*
X020301Y020090D01*
X020294Y020106D01*
X020284Y020120D01*
X020271Y020133D01*
X020257Y020143D01*
X020241Y020150D01*
X020224Y020154D01*
X020207Y020156D01*
X020057Y020156D01*
X020007Y020106D01*
X018107Y020106D01*
X018057Y020156D01*
X017907Y020156D01*
X017890Y020154D01*
X017873Y020150D01*
X017857Y020143D01*
X017843Y020133D01*
X017830Y020120D01*
X017820Y020106D01*
X017813Y020090D01*
X017809Y020073D01*
X017807Y020056D01*
X017807Y019356D01*
X017809Y019339D01*
X017813Y019322D01*
X017820Y019306D01*
X017830Y019292D01*
X017843Y019279D01*
X017857Y019269D01*
X017873Y019262D01*
X017890Y019258D01*
X017907Y019256D01*
X018057Y019256D01*
X018107Y019306D01*
X020007Y019306D01*
X020057Y019256D01*
X020207Y019256D01*
X020224Y019258D01*
X020241Y019262D01*
X020257Y019269D01*
X020271Y019279D01*
X020284Y019292D01*
X020294Y019306D01*
X020301Y019322D01*
X020305Y019339D01*
X020307Y019356D01*
X020197Y021522D02*
X020047Y021522D01*
X019997Y021572D01*
X018097Y021572D01*
X018047Y021522D01*
X017897Y021522D01*
X017880Y021524D01*
X017863Y021528D01*
X017847Y021535D01*
X017833Y021545D01*
X017820Y021558D01*
X017810Y021572D01*
X017803Y021588D01*
X017799Y021605D01*
X017797Y021622D01*
X017797Y022322D01*
X017799Y022339D01*
X017803Y022356D01*
X017810Y022372D01*
X017820Y022386D01*
X017833Y022399D01*
X017847Y022409D01*
X017863Y022416D01*
X017880Y022420D01*
X017897Y022422D01*
X018047Y022422D01*
X018097Y022372D01*
X019997Y022372D01*
X020047Y022422D01*
X020197Y022422D01*
X020214Y022420D01*
X020231Y022416D01*
X020247Y022409D01*
X020261Y022399D01*
X020274Y022386D01*
X020284Y022372D01*
X020291Y022356D01*
X020295Y022339D01*
X020297Y022322D01*
X020297Y021622D01*
X020295Y021605D01*
X020291Y021588D01*
X020284Y021572D01*
X020274Y021558D01*
X020261Y021545D01*
X020247Y021535D01*
X020231Y021528D01*
X020214Y021524D01*
X020197Y021522D01*
X012062Y021224D02*
X012062Y021124D01*
X012062Y020324D02*
X012062Y020224D01*
X012062Y018224D02*
X036062Y018224D01*
X036062Y017224D01*
X012062Y017224D01*
X012062Y018224D01*
X012062Y023224D02*
X036062Y023224D01*
X036062Y018224D01*
X035223Y014622D02*
X035073Y014622D01*
X035023Y014572D01*
X033123Y014572D01*
X033073Y014622D01*
X032923Y014622D01*
X032906Y014620D01*
X032889Y014616D01*
X032873Y014609D01*
X032859Y014599D01*
X032846Y014586D01*
X032836Y014572D01*
X032829Y014556D01*
X032825Y014539D01*
X032823Y014522D01*
X032823Y013822D01*
X032825Y013805D01*
X032829Y013788D01*
X032836Y013772D01*
X032846Y013758D01*
X032859Y013745D01*
X032873Y013735D01*
X032889Y013728D01*
X032906Y013724D01*
X032923Y013722D01*
X033073Y013722D01*
X033123Y013772D01*
X035023Y013772D01*
X035073Y013722D01*
X035223Y013722D01*
X035240Y013724D01*
X035257Y013728D01*
X035273Y013735D01*
X035287Y013745D01*
X035300Y013758D01*
X035310Y013772D01*
X035317Y013788D01*
X035321Y013805D01*
X035323Y013822D01*
X035323Y014522D01*
X035321Y014539D01*
X035317Y014556D01*
X035310Y014572D01*
X035300Y014586D01*
X035287Y014599D01*
X035273Y014609D01*
X035257Y014616D01*
X035240Y014620D01*
X035223Y014622D01*
X034870Y013016D02*
X034720Y013016D01*
X034670Y012966D01*
X032770Y012966D01*
X032720Y013016D01*
X032570Y013016D01*
X032553Y013014D01*
X032536Y013010D01*
X032520Y013003D01*
X032506Y012993D01*
X032493Y012980D01*
X032483Y012966D01*
X032476Y012950D01*
X032472Y012933D01*
X032470Y012916D01*
X032470Y012216D01*
X032472Y012199D01*
X032476Y012182D01*
X032483Y012166D01*
X032493Y012152D01*
X032506Y012139D01*
X032520Y012129D01*
X032536Y012122D01*
X032553Y012118D01*
X032570Y012116D01*
X032720Y012116D01*
X032770Y012166D01*
X034670Y012166D01*
X034720Y012116D01*
X034870Y012116D01*
X034887Y012118D01*
X034904Y012122D01*
X034920Y012129D01*
X034934Y012139D01*
X034947Y012152D01*
X034957Y012166D01*
X034964Y012182D01*
X034968Y012199D01*
X034970Y012216D01*
X034970Y012916D01*
X034968Y012933D01*
X034964Y012950D01*
X034957Y012966D01*
X034947Y012980D01*
X034934Y012993D01*
X034920Y013003D01*
X034904Y013010D01*
X034887Y013014D01*
X034870Y013016D01*
X029180Y013116D02*
X029180Y012416D01*
X029178Y012399D01*
X029174Y012382D01*
X029167Y012366D01*
X029157Y012352D01*
X029144Y012339D01*
X029130Y012329D01*
X029114Y012322D01*
X029097Y012318D01*
X029080Y012316D01*
X028930Y012316D01*
X028880Y012366D01*
X026980Y012366D01*
X026930Y012316D01*
X026780Y012316D01*
X026763Y012318D01*
X026746Y012322D01*
X026730Y012329D01*
X026716Y012339D01*
X026703Y012352D01*
X026693Y012366D01*
X026686Y012382D01*
X026682Y012399D01*
X026680Y012416D01*
X026680Y013116D01*
X026682Y013133D01*
X026686Y013150D01*
X026693Y013166D01*
X026703Y013180D01*
X026716Y013193D01*
X026730Y013203D01*
X026746Y013210D01*
X026763Y013214D01*
X026780Y013216D01*
X026930Y013216D01*
X026980Y013166D01*
X028880Y013166D01*
X028930Y013216D01*
X029080Y013216D01*
X029097Y013214D01*
X029114Y013210D01*
X029130Y013203D01*
X029144Y013193D01*
X029157Y013180D01*
X029167Y013166D01*
X029174Y013150D01*
X029178Y013133D01*
X029180Y013116D01*
X029041Y013521D02*
X028891Y013521D01*
X028841Y013571D01*
X026941Y013571D01*
X026891Y013521D01*
X026741Y013521D01*
X026724Y013523D01*
X026707Y013527D01*
X026691Y013534D01*
X026677Y013544D01*
X026664Y013557D01*
X026654Y013571D01*
X026647Y013587D01*
X026643Y013604D01*
X026641Y013621D01*
X026641Y014321D01*
X026643Y014338D01*
X026647Y014355D01*
X026654Y014371D01*
X026664Y014385D01*
X026677Y014398D01*
X026691Y014408D01*
X026707Y014415D01*
X026724Y014419D01*
X026741Y014421D01*
X026891Y014421D01*
X026941Y014371D01*
X028841Y014371D01*
X028891Y014421D01*
X029041Y014421D01*
X029058Y014419D01*
X029075Y014415D01*
X029091Y014408D01*
X029105Y014398D01*
X029118Y014385D01*
X029128Y014371D01*
X029135Y014355D01*
X029139Y014338D01*
X029141Y014321D01*
X029141Y013621D01*
X029139Y013604D01*
X029135Y013587D01*
X029128Y013571D01*
X029118Y013557D01*
X029105Y013544D01*
X029091Y013534D01*
X029075Y013527D01*
X029058Y013523D01*
X029041Y013521D01*
X031569Y009010D02*
X031719Y009010D01*
X031769Y008960D01*
X033669Y008960D01*
X033719Y009010D01*
X033869Y009010D01*
X033886Y009008D01*
X033903Y009004D01*
X033919Y008997D01*
X033933Y008987D01*
X033946Y008974D01*
X033956Y008960D01*
X033963Y008944D01*
X033967Y008927D01*
X033969Y008910D01*
X033969Y008210D01*
X033967Y008193D01*
X033963Y008176D01*
X033956Y008160D01*
X033946Y008146D01*
X033933Y008133D01*
X033919Y008123D01*
X033903Y008116D01*
X033886Y008112D01*
X033869Y008110D01*
X033719Y008110D01*
X033669Y008160D01*
X031769Y008160D01*
X031719Y008110D01*
X031569Y008110D01*
X031552Y008112D01*
X031535Y008116D01*
X031519Y008123D01*
X031505Y008133D01*
X031492Y008146D01*
X031482Y008160D01*
X031475Y008176D01*
X031471Y008193D01*
X031469Y008210D01*
X031469Y008910D01*
X031471Y008927D01*
X031475Y008944D01*
X031482Y008960D01*
X031492Y008974D01*
X031505Y008987D01*
X031519Y008997D01*
X031535Y009004D01*
X031552Y009008D01*
X031569Y009010D01*
X029614Y008082D02*
X029612Y008037D01*
X029607Y007991D01*
X029599Y007947D01*
X029587Y007903D01*
X029571Y007860D01*
X029553Y007818D01*
X029531Y007778D01*
X029507Y007740D01*
X029480Y007704D01*
X029450Y007669D01*
X029417Y007638D01*
X029382Y007608D01*
X028414Y008082D02*
X028416Y008129D01*
X028422Y008177D01*
X028431Y008223D01*
X028444Y008269D01*
X028460Y008313D01*
X028481Y008357D01*
X028504Y008398D01*
X028530Y008437D01*
X028560Y008474D01*
X028593Y008509D01*
X028628Y008541D01*
X028665Y008570D01*
X028414Y008082D02*
X028416Y008036D01*
X028421Y007990D01*
X028430Y007944D01*
X028442Y007899D01*
X028458Y007856D01*
X028477Y007814D01*
X028500Y007773D01*
X028525Y007734D01*
X028553Y007698D01*
X028584Y007663D01*
X028618Y007631D01*
X028654Y007602D01*
X029614Y008082D02*
X029612Y008127D01*
X029607Y008173D01*
X029599Y008217D01*
X029587Y008261D01*
X029571Y008304D01*
X029553Y008346D01*
X029531Y008386D01*
X029507Y008424D01*
X029480Y008460D01*
X029450Y008495D01*
X029417Y008526D01*
X029382Y008556D01*
X029007Y006777D02*
X028857Y006777D01*
X028807Y006727D01*
X026907Y006727D01*
X026857Y006777D01*
X026707Y006777D01*
X026690Y006775D01*
X026673Y006771D01*
X026657Y006764D01*
X026643Y006754D01*
X026630Y006741D01*
X026620Y006727D01*
X026613Y006711D01*
X026609Y006694D01*
X026607Y006677D01*
X026607Y005977D01*
X026609Y005960D01*
X026613Y005943D01*
X026620Y005927D01*
X026630Y005913D01*
X026643Y005900D01*
X026657Y005890D01*
X026673Y005883D01*
X026690Y005879D01*
X026707Y005877D01*
X026857Y005877D01*
X026907Y005927D01*
X028807Y005927D01*
X028857Y005877D01*
X029007Y005877D01*
X029061Y005818D02*
X028911Y005818D01*
X028861Y005768D01*
X026961Y005768D01*
X026911Y005818D01*
X026761Y005818D01*
X026744Y005816D01*
X026727Y005812D01*
X026711Y005805D01*
X026697Y005795D01*
X026684Y005782D01*
X026674Y005768D01*
X026667Y005752D01*
X026663Y005735D01*
X026661Y005718D01*
X026661Y005018D01*
X026663Y005001D01*
X026667Y004984D01*
X026674Y004968D01*
X026684Y004954D01*
X026697Y004941D01*
X026711Y004931D01*
X026727Y004924D01*
X026744Y004920D01*
X026761Y004918D01*
X026911Y004918D01*
X026961Y004968D01*
X028861Y004968D01*
X028911Y004918D01*
X029061Y004918D01*
X029078Y004920D01*
X029095Y004924D01*
X029111Y004931D01*
X029125Y004941D01*
X029138Y004954D01*
X029148Y004968D01*
X029155Y004984D01*
X029159Y005001D01*
X029161Y005018D01*
X029161Y005718D01*
X029159Y005735D01*
X029155Y005752D01*
X029148Y005768D01*
X029138Y005782D01*
X029125Y005795D01*
X029111Y005805D01*
X029095Y005812D01*
X029078Y005816D01*
X029061Y005818D01*
X029107Y005977D02*
X029107Y006677D01*
X029105Y006694D01*
X029101Y006711D01*
X029094Y006727D01*
X029084Y006741D01*
X029071Y006754D01*
X029057Y006764D01*
X029041Y006771D01*
X029024Y006775D01*
X029007Y006777D01*
X029107Y005977D02*
X029105Y005960D01*
X029101Y005943D01*
X029094Y005927D01*
X029084Y005913D01*
X029071Y005900D01*
X029057Y005890D01*
X029041Y005883D01*
X029024Y005879D01*
X029007Y005877D01*
X025540Y008102D02*
X025542Y008149D01*
X025548Y008197D01*
X025557Y008243D01*
X025570Y008289D01*
X025586Y008333D01*
X025607Y008377D01*
X025630Y008418D01*
X025656Y008457D01*
X025686Y008494D01*
X025719Y008529D01*
X025754Y008561D01*
X025791Y008590D01*
X026740Y008102D02*
X026738Y008057D01*
X026733Y008011D01*
X026725Y007967D01*
X026713Y007923D01*
X026697Y007880D01*
X026679Y007838D01*
X026657Y007798D01*
X026633Y007760D01*
X026606Y007724D01*
X026576Y007689D01*
X026543Y007658D01*
X026508Y007628D01*
X026740Y008102D02*
X026738Y008147D01*
X026733Y008193D01*
X026725Y008237D01*
X026713Y008281D01*
X026697Y008324D01*
X026679Y008366D01*
X026657Y008406D01*
X026633Y008444D01*
X026606Y008480D01*
X026576Y008515D01*
X026543Y008546D01*
X026508Y008576D01*
X025540Y008102D02*
X025542Y008056D01*
X025547Y008010D01*
X025556Y007964D01*
X025568Y007919D01*
X025584Y007876D01*
X025603Y007834D01*
X025626Y007793D01*
X025651Y007754D01*
X025679Y007718D01*
X025710Y007683D01*
X025744Y007651D01*
X025780Y007622D01*
X022259Y005862D02*
X022259Y005262D01*
X022257Y005245D01*
X022253Y005228D01*
X022246Y005212D01*
X022236Y005198D01*
X022223Y005185D01*
X022209Y005175D01*
X022193Y005168D01*
X022176Y005164D01*
X022159Y005162D01*
X020559Y005162D01*
X020542Y005164D01*
X020525Y005168D01*
X020509Y005175D01*
X020495Y005185D01*
X020482Y005198D01*
X020472Y005212D01*
X020465Y005228D01*
X020461Y005245D01*
X020459Y005262D01*
X020459Y005862D01*
X020461Y005879D01*
X020465Y005896D01*
X020472Y005912D01*
X020482Y005926D01*
X020495Y005939D01*
X020509Y005949D01*
X020525Y005956D01*
X020542Y005960D01*
X020559Y005962D01*
X022159Y005962D01*
X022176Y005960D01*
X022193Y005956D01*
X022209Y005949D01*
X022223Y005939D01*
X022236Y005926D01*
X022246Y005912D01*
X022253Y005896D01*
X022257Y005879D01*
X022259Y005862D01*
X021959Y005562D02*
X021359Y005562D01*
X021359Y005312D01*
X021359Y005562D02*
X021759Y005312D01*
X021759Y005812D01*
X021359Y005562D01*
X021359Y005812D01*
X021359Y005562D02*
X021109Y005562D01*
X018874Y007229D02*
X018874Y008829D01*
X018872Y008846D01*
X018868Y008863D01*
X018861Y008879D01*
X018851Y008893D01*
X018838Y008906D01*
X018824Y008916D01*
X018808Y008923D01*
X018791Y008927D01*
X018774Y008929D01*
X018174Y008929D01*
X018157Y008927D01*
X018140Y008923D01*
X018124Y008916D01*
X018110Y008906D01*
X018097Y008893D01*
X018087Y008879D01*
X018080Y008863D01*
X018076Y008846D01*
X018074Y008829D01*
X018074Y007229D01*
X018076Y007212D01*
X018080Y007195D01*
X018087Y007179D01*
X018097Y007165D01*
X018110Y007152D01*
X018124Y007142D01*
X018140Y007135D01*
X018157Y007131D01*
X018174Y007129D01*
X018774Y007129D01*
X018791Y007131D01*
X018808Y007135D01*
X018824Y007142D01*
X018838Y007152D01*
X018851Y007165D01*
X018861Y007179D01*
X018868Y007195D01*
X018872Y007212D01*
X018874Y007229D01*
X018474Y007779D02*
X018474Y008029D01*
X018724Y008029D01*
X018474Y008029D02*
X018224Y008029D01*
X018474Y008029D02*
X018224Y008429D01*
X018724Y008429D01*
X018474Y008029D01*
X018474Y008629D01*
X032840Y005219D02*
X033267Y005219D01*
X033054Y005006D02*
X033054Y005433D01*
X035074Y005559D02*
X035074Y005709D01*
X035124Y005759D01*
X035124Y007659D01*
X035074Y007709D01*
X035074Y007859D01*
X035076Y007876D01*
X035080Y007893D01*
X035087Y007909D01*
X035097Y007923D01*
X035110Y007936D01*
X035124Y007946D01*
X035140Y007953D01*
X035157Y007957D01*
X035174Y007959D01*
X035874Y007959D01*
X035940Y007959D02*
X036640Y007959D01*
X036657Y007957D01*
X036674Y007953D01*
X036690Y007946D01*
X036704Y007936D01*
X036717Y007923D01*
X036727Y007909D01*
X036734Y007893D01*
X036738Y007876D01*
X036740Y007859D01*
X036740Y007709D01*
X036690Y007659D01*
X036690Y005759D01*
X036740Y005709D01*
X036740Y005559D01*
X036738Y005542D01*
X036734Y005525D01*
X036727Y005509D01*
X036717Y005495D01*
X036704Y005482D01*
X036690Y005472D01*
X036674Y005465D01*
X036657Y005461D01*
X036640Y005459D01*
X035940Y005459D01*
X035874Y005459D02*
X035174Y005459D01*
X035157Y005461D01*
X035140Y005465D01*
X035124Y005472D01*
X035110Y005482D01*
X035097Y005495D01*
X035087Y005509D01*
X035080Y005525D01*
X035076Y005542D01*
X035074Y005559D01*
X035840Y005559D02*
X035840Y005709D01*
X035890Y005759D01*
X035890Y007659D01*
X035840Y007709D01*
X035840Y007859D01*
X035874Y007959D02*
X035891Y007957D01*
X035908Y007953D01*
X035924Y007946D01*
X035938Y007936D01*
X035951Y007923D01*
X035961Y007909D01*
X035968Y007893D01*
X035972Y007876D01*
X035974Y007859D01*
X035974Y007709D01*
X035924Y007659D01*
X035924Y005759D01*
X035974Y005709D01*
X035974Y005559D01*
X035940Y005459D02*
X035923Y005461D01*
X035906Y005465D01*
X035890Y005472D01*
X035876Y005482D01*
X035863Y005495D01*
X035853Y005509D01*
X035846Y005525D01*
X035842Y005542D01*
X035840Y005559D01*
X035874Y005459D02*
X035891Y005461D01*
X035908Y005465D01*
X035924Y005472D01*
X035938Y005482D01*
X035951Y005495D01*
X035961Y005509D01*
X035968Y005525D01*
X035972Y005542D01*
X035974Y005559D01*
X035840Y007859D02*
X035842Y007876D01*
X035846Y007893D01*
X035853Y007909D01*
X035863Y007923D01*
X035876Y007936D01*
X035890Y007946D01*
X035906Y007953D01*
X035923Y007957D01*
X035940Y007959D01*
X036062Y023224D02*
X036062Y024224D01*
X012062Y024224D01*
X012062Y023224D01*
D12*
X011902Y015939D02*
X012296Y015939D01*
X011902Y015939D02*
X011902Y015545D01*
X014343Y015939D02*
X015012Y015939D01*
X021666Y015939D02*
X022060Y015939D01*
X022060Y015545D01*
X024915Y015596D02*
X025165Y015346D01*
X025665Y015346D01*
X025915Y015596D01*
X026165Y015346D01*
X026665Y015346D01*
X026915Y015596D01*
X027165Y015346D01*
X027665Y015346D01*
X027915Y015596D01*
X028165Y015346D01*
X028665Y015346D01*
X028915Y015596D01*
X029165Y015346D01*
X029665Y015346D01*
X029915Y015596D01*
X030165Y015346D01*
X030665Y015346D01*
X030915Y015596D01*
X031165Y015346D01*
X031665Y015346D01*
X031915Y015596D01*
X032165Y015346D01*
X032665Y015346D01*
X032915Y015596D01*
X033165Y015346D01*
X033665Y015346D01*
X033915Y015596D01*
X034165Y015346D01*
X034665Y015346D01*
X034915Y015596D01*
X035165Y015346D01*
X035665Y015346D01*
X035915Y015596D01*
X036165Y015346D01*
X036665Y015346D01*
X036915Y015596D01*
X036915Y015096D01*
X037165Y014846D01*
X036915Y014596D01*
X036915Y014096D01*
X037165Y013846D01*
X036915Y013596D01*
X036915Y013096D01*
X037165Y012846D01*
X036915Y012596D01*
X036915Y012096D01*
X037165Y011846D01*
X036915Y011596D01*
X036915Y011096D01*
X037165Y010846D01*
X036915Y010596D01*
X036915Y010096D01*
X037165Y009846D01*
X037665Y009846D01*
X037915Y010096D01*
X037915Y010596D01*
X037665Y010846D01*
X037915Y011096D01*
X037915Y011596D01*
X037665Y011846D01*
X037915Y012096D01*
X037915Y012596D01*
X037665Y012846D01*
X037915Y013096D01*
X037915Y013596D01*
X037665Y013846D01*
X037915Y014096D01*
X037915Y014596D01*
X037665Y014846D01*
X037915Y015096D01*
X037915Y015596D01*
X037665Y015846D01*
X037165Y015846D01*
X036915Y015596D01*
X036915Y016096D01*
X036665Y016346D01*
X036165Y016346D01*
X035915Y016096D01*
X035665Y016346D01*
X035165Y016346D01*
X034915Y016096D01*
X034665Y016346D01*
X034165Y016346D01*
X033915Y016096D01*
X033665Y016346D01*
X033165Y016346D01*
X032915Y016096D01*
X032665Y016346D01*
X032165Y016346D01*
X031915Y016096D01*
X031665Y016346D01*
X031165Y016346D01*
X030915Y016096D01*
X030665Y016346D01*
X030165Y016346D01*
X029915Y016096D01*
X029665Y016346D01*
X029165Y016346D01*
X028915Y016096D01*
X028665Y016346D01*
X028165Y016346D01*
X027915Y016096D01*
X027665Y016346D01*
X027165Y016346D01*
X026915Y016096D01*
X026665Y016346D01*
X026165Y016346D01*
X025915Y016096D01*
X025665Y016346D01*
X025165Y016346D01*
X024915Y016096D01*
X024915Y015596D01*
X027615Y011496D02*
X027365Y011246D01*
X027365Y010746D01*
X027615Y010496D01*
X028115Y010496D01*
X028365Y010746D01*
X028365Y011246D01*
X028115Y011496D01*
X027615Y011496D01*
X028365Y011246D02*
X028365Y010746D01*
X028615Y010496D01*
X029115Y010496D01*
X029365Y010746D01*
X029365Y011246D01*
X029115Y011496D01*
X028615Y011496D01*
X028365Y011246D01*
X028165Y010346D02*
X027915Y010096D01*
X027665Y010346D01*
X027165Y010346D01*
X026915Y010096D01*
X026665Y010346D01*
X026165Y010346D01*
X025915Y010096D01*
X025665Y010346D01*
X025165Y010346D01*
X024915Y010096D01*
X024915Y009596D01*
X025165Y009346D01*
X025665Y009346D01*
X025915Y009596D01*
X026165Y009346D01*
X026665Y009346D01*
X026915Y009596D01*
X027165Y009346D01*
X027665Y009346D01*
X027915Y009596D01*
X028165Y009346D01*
X028665Y009346D01*
X028915Y009596D01*
X029165Y009346D01*
X029665Y009346D01*
X029915Y009596D01*
X030165Y009346D01*
X030665Y009346D01*
X030915Y009596D01*
X031165Y009346D01*
X031665Y009346D01*
X031915Y009596D01*
X032165Y009346D01*
X032665Y009346D01*
X032915Y009596D01*
X033165Y009346D01*
X033665Y009346D01*
X033915Y009596D01*
X034165Y009346D01*
X034665Y009346D01*
X034915Y009596D01*
X035165Y009346D01*
X035665Y009346D01*
X035915Y009596D01*
X036165Y009346D01*
X036665Y009346D01*
X036915Y009596D01*
X036915Y010096D01*
X036665Y010346D01*
X036165Y010346D01*
X035915Y010096D01*
X035665Y010346D01*
X035165Y010346D01*
X034915Y010096D01*
X034665Y010346D01*
X034165Y010346D01*
X033915Y010096D01*
X033665Y010346D01*
X033165Y010346D01*
X032915Y010096D01*
X032665Y010346D01*
X032165Y010346D01*
X031915Y010096D01*
X031665Y010346D01*
X031165Y010346D01*
X030915Y010096D01*
X030665Y010346D01*
X030165Y010346D01*
X029915Y010096D01*
X029665Y010346D01*
X029165Y010346D01*
X028915Y010096D01*
X028665Y010346D01*
X028165Y010346D01*
X031465Y010746D02*
X031715Y010496D01*
X032215Y010496D01*
X032465Y010746D01*
X032715Y010496D01*
X033215Y010496D01*
X033465Y010746D01*
X033465Y011246D01*
X033215Y011496D01*
X032715Y011496D01*
X032465Y011246D01*
X032215Y011496D01*
X031715Y011496D01*
X031465Y011246D01*
X031465Y010746D01*
X022060Y010742D02*
X021666Y010742D01*
X022060Y010742D02*
X022060Y011136D01*
X015012Y010742D02*
X014343Y010742D01*
X012296Y010742D02*
X011902Y010742D01*
X011902Y011136D01*
D13*
X023273Y019320D03*
X026113Y019320D03*
X025343Y020830D03*
X028183Y020830D03*
X028779Y019409D03*
X030732Y020842D03*
X031619Y019409D03*
X033572Y020842D03*
X032198Y022368D03*
X035038Y022368D03*
X035493Y014172D03*
X035140Y012566D03*
X032653Y014172D03*
X032300Y012566D03*
X029350Y012766D03*
X029311Y013971D03*
X026471Y013971D03*
X026510Y012766D03*
X031299Y008560D03*
X034139Y008560D03*
X029277Y006327D03*
X029331Y005368D03*
X026491Y005368D03*
X026437Y006327D03*
X020477Y019706D03*
X017637Y019706D03*
X017627Y021972D03*
X020467Y021972D03*
D14*
X013703Y008045D02*
X013705Y008143D01*
X013713Y008241D01*
X013725Y008338D01*
X013741Y008435D01*
X013763Y008531D01*
X013789Y008626D01*
X013820Y008719D01*
X013855Y008810D01*
X013895Y008900D01*
X013939Y008988D01*
X013988Y009073D01*
X014040Y009156D01*
X014097Y009236D01*
X014157Y009314D01*
X014221Y009388D01*
X014289Y009459D01*
X014360Y009527D01*
X014434Y009591D01*
X014512Y009651D01*
X014592Y009708D01*
X014675Y009760D01*
X014760Y009809D01*
X014848Y009853D01*
X014938Y009893D01*
X015029Y009928D01*
X015122Y009959D01*
X015217Y009985D01*
X015313Y010007D01*
X015410Y010023D01*
X015507Y010035D01*
X015605Y010043D01*
X015703Y010045D01*
X015801Y010043D01*
X015899Y010035D01*
X015996Y010023D01*
X016093Y010007D01*
X016189Y009985D01*
X016284Y009959D01*
X016377Y009928D01*
X016468Y009893D01*
X016558Y009853D01*
X016646Y009809D01*
X016731Y009760D01*
X016814Y009708D01*
X016894Y009651D01*
X016972Y009591D01*
X017046Y009527D01*
X017117Y009459D01*
X017185Y009388D01*
X017249Y009314D01*
X017309Y009236D01*
X017366Y009156D01*
X017418Y009073D01*
X017467Y008988D01*
X017511Y008900D01*
X017551Y008810D01*
X017586Y008719D01*
X017617Y008626D01*
X017643Y008531D01*
X017665Y008435D01*
X017681Y008338D01*
X017693Y008241D01*
X017701Y008143D01*
X017703Y008045D01*
X017701Y007947D01*
X017693Y007849D01*
X017681Y007752D01*
X017665Y007655D01*
X017643Y007559D01*
X017617Y007464D01*
X017586Y007371D01*
X017551Y007280D01*
X017511Y007190D01*
X017467Y007102D01*
X017418Y007017D01*
X017366Y006934D01*
X017309Y006854D01*
X017249Y006776D01*
X017185Y006702D01*
X017117Y006631D01*
X017046Y006563D01*
X016972Y006499D01*
X016894Y006439D01*
X016814Y006382D01*
X016731Y006330D01*
X016646Y006281D01*
X016558Y006237D01*
X016468Y006197D01*
X016377Y006162D01*
X016284Y006131D01*
X016189Y006105D01*
X016093Y006083D01*
X015996Y006067D01*
X015899Y006055D01*
X015801Y006047D01*
X015703Y006045D01*
X015605Y006047D01*
X015507Y006055D01*
X015410Y006067D01*
X015313Y006083D01*
X015217Y006105D01*
X015122Y006131D01*
X015029Y006162D01*
X014938Y006197D01*
X014848Y006237D01*
X014760Y006281D01*
X014675Y006330D01*
X014592Y006382D01*
X014512Y006439D01*
X014434Y006499D01*
X014360Y006563D01*
X014289Y006631D01*
X014221Y006702D01*
X014157Y006776D01*
X014097Y006854D01*
X014040Y006934D01*
X013988Y007017D01*
X013939Y007102D01*
X013895Y007190D01*
X013855Y007280D01*
X013820Y007371D01*
X013789Y007464D01*
X013763Y007559D01*
X013741Y007655D01*
X013725Y007752D01*
X013713Y007849D01*
X013705Y007947D01*
X013703Y008045D01*
X019049Y007898D02*
X019499Y007898D01*
X019499Y008048D02*
X019499Y007747D01*
X019499Y007512D02*
X019049Y007512D01*
X019274Y007287D01*
X019274Y007587D01*
X019199Y007747D02*
X019049Y007898D01*
X019274Y008208D02*
X019274Y008508D01*
X019199Y008668D02*
X019124Y008668D01*
X019049Y008743D01*
X019049Y008893D01*
X019124Y008969D01*
X019199Y008969D01*
X019274Y008893D01*
X019274Y008743D01*
X019199Y008668D01*
X019274Y008743D02*
X019349Y008668D01*
X019424Y008668D01*
X019499Y008743D01*
X019499Y008893D01*
X019424Y008969D01*
X019349Y008969D01*
X019274Y008893D01*
X019074Y009122D02*
X019074Y009347D01*
X019149Y009422D01*
X019449Y009422D01*
X019524Y009347D01*
X019524Y009122D01*
X019074Y009122D01*
X019149Y009583D02*
X019074Y009658D01*
X019074Y009808D01*
X019149Y009883D01*
X019224Y009883D01*
X019524Y009583D01*
X019524Y009883D01*
X019499Y008433D02*
X019049Y008433D01*
X019274Y008208D01*
X019499Y007127D02*
X019049Y007127D01*
X019049Y006827D02*
X019499Y007127D01*
X019499Y006827D02*
X019049Y006827D01*
X019049Y006516D02*
X019499Y006516D01*
X019499Y006366D02*
X019499Y006667D01*
X019199Y006366D02*
X019049Y006516D01*
X019697Y004963D02*
X019922Y004963D01*
X019997Y004888D01*
X019997Y004587D01*
X019922Y004512D01*
X019697Y004512D01*
X019697Y004963D01*
X020157Y004813D02*
X020307Y004963D01*
X020307Y004512D01*
X020157Y004512D02*
X020457Y004512D01*
X022059Y004537D02*
X022359Y004537D01*
X022209Y004537D02*
X022209Y004987D01*
X022059Y004837D01*
X022519Y004987D02*
X022519Y004537D01*
X022820Y004537D02*
X022820Y004987D01*
X022980Y004762D02*
X023205Y004987D01*
X023205Y004537D01*
X023440Y004537D02*
X023740Y004537D01*
X023590Y004537D02*
X023590Y004987D01*
X023440Y004837D01*
X023280Y004762D02*
X022980Y004762D01*
X022820Y004537D02*
X022519Y004987D01*
X023901Y004762D02*
X024201Y004762D01*
X024361Y004687D02*
X024436Y004762D01*
X024586Y004762D01*
X024661Y004687D01*
X024661Y004612D01*
X024586Y004537D01*
X024436Y004537D01*
X024361Y004612D01*
X024361Y004687D01*
X024436Y004762D02*
X024361Y004837D01*
X024361Y004912D01*
X024436Y004987D01*
X024586Y004987D01*
X024661Y004912D01*
X024661Y004837D01*
X024586Y004762D01*
X024126Y004537D02*
X024126Y004987D01*
X023901Y004762D01*
X027075Y004551D02*
X027375Y004551D01*
X027535Y004401D02*
X027535Y004325D01*
X027535Y004401D02*
X027835Y004701D01*
X027835Y004776D01*
X027535Y004776D01*
X027300Y004776D02*
X027075Y004551D01*
X027300Y004325D02*
X027300Y004776D01*
X027534Y005107D02*
X027534Y005557D01*
X027759Y005557D01*
X027834Y005482D01*
X027834Y005332D01*
X027759Y005257D01*
X027534Y005257D01*
X027684Y005257D02*
X027834Y005107D01*
X027994Y005107D02*
X027994Y005182D01*
X028295Y005482D01*
X028295Y005557D01*
X027994Y005557D01*
X028018Y006052D02*
X027943Y006127D01*
X027943Y006202D01*
X028018Y006277D01*
X028168Y006277D01*
X028243Y006202D01*
X028243Y006127D01*
X028168Y006052D01*
X028018Y006052D01*
X028018Y006277D02*
X027943Y006352D01*
X027943Y006427D01*
X028018Y006502D01*
X028168Y006502D01*
X028243Y006427D01*
X028243Y006352D01*
X028168Y006277D01*
X027783Y006277D02*
X027708Y006202D01*
X027482Y006202D01*
X027482Y006052D02*
X027482Y006502D01*
X027708Y006502D01*
X027783Y006427D01*
X027783Y006277D01*
X027633Y006202D02*
X027783Y006052D01*
X027778Y006908D02*
X027778Y007358D01*
X027553Y007133D01*
X027853Y007133D01*
X028013Y006983D02*
X028013Y006908D01*
X028013Y006983D02*
X028314Y007283D01*
X028314Y007358D01*
X028013Y007358D01*
X028474Y007283D02*
X028474Y006983D01*
X028774Y007283D01*
X028774Y006983D01*
X028699Y006908D01*
X028549Y006908D01*
X028474Y006983D01*
X028474Y007283D02*
X028549Y007358D01*
X028699Y007358D01*
X028774Y007283D01*
X029778Y007854D02*
X030078Y007854D01*
X030239Y007854D02*
X030539Y007854D01*
X030699Y007854D02*
X030924Y007854D01*
X030999Y007930D01*
X030999Y008230D01*
X030924Y008305D01*
X030699Y008305D01*
X030699Y007854D01*
X030389Y008080D02*
X030239Y008080D01*
X030239Y008305D02*
X030239Y007854D01*
X029778Y007854D02*
X029778Y008305D01*
X030239Y008305D02*
X030539Y008305D01*
X031159Y008155D02*
X031310Y008305D01*
X031310Y007854D01*
X031460Y007854D02*
X031159Y007854D01*
X032389Y008342D02*
X032389Y008792D01*
X032614Y008792D01*
X032689Y008717D01*
X032689Y008567D01*
X032614Y008492D01*
X032389Y008492D01*
X032539Y008492D02*
X032689Y008342D01*
X032850Y008417D02*
X032925Y008342D01*
X033075Y008342D01*
X033150Y008417D01*
X033150Y008717D01*
X033075Y008792D01*
X032925Y008792D01*
X032850Y008717D01*
X032850Y008642D01*
X032925Y008567D01*
X033150Y008567D01*
X033688Y008121D02*
X033688Y007671D01*
X033538Y007671D02*
X033839Y007671D01*
X033999Y007746D02*
X034299Y008046D01*
X034299Y007746D01*
X034224Y007671D01*
X034074Y007671D01*
X033999Y007746D01*
X033999Y008046D01*
X034074Y008121D01*
X034224Y008121D01*
X034299Y008046D01*
X034459Y008046D02*
X034459Y007746D01*
X034759Y008046D01*
X034759Y007746D01*
X034684Y007671D01*
X034534Y007671D01*
X034459Y007746D01*
X034459Y008046D02*
X034534Y008121D01*
X034684Y008121D01*
X034759Y008046D01*
X035236Y007543D02*
X035311Y007393D01*
X035461Y007243D01*
X035461Y007468D01*
X035536Y007543D01*
X035611Y007543D01*
X035686Y007468D01*
X035686Y007318D01*
X035611Y007243D01*
X035461Y007243D01*
X035686Y007083D02*
X035686Y006782D01*
X035686Y006932D02*
X035236Y006932D01*
X035386Y006782D01*
X035461Y006622D02*
X035536Y006547D01*
X035536Y006322D01*
X035686Y006322D02*
X035236Y006322D01*
X035236Y006547D01*
X035311Y006622D01*
X035461Y006622D01*
X035536Y006472D02*
X035686Y006622D01*
X036127Y006770D02*
X036577Y006770D01*
X036577Y006620D02*
X036577Y006920D01*
X036577Y007080D02*
X036502Y007080D01*
X036202Y007381D01*
X036127Y007381D01*
X036127Y007080D01*
X036127Y006770D02*
X036277Y006620D01*
X036202Y006460D02*
X036352Y006460D01*
X036427Y006385D01*
X036427Y006160D01*
X036427Y006310D02*
X036577Y006460D01*
X036577Y006160D02*
X036127Y006160D01*
X036127Y006385D01*
X036202Y006460D01*
X034961Y006530D02*
X034511Y006530D01*
X034736Y006305D01*
X034736Y006605D01*
X034811Y006765D02*
X034511Y007066D01*
X034511Y006765D02*
X034961Y006765D01*
X034736Y006840D02*
X034961Y007066D01*
X034961Y006145D02*
X034961Y005844D01*
X034661Y006145D01*
X034586Y006145D01*
X034511Y006070D01*
X034511Y005920D01*
X034586Y005844D01*
X030364Y006207D02*
X030366Y006295D01*
X030373Y006383D01*
X030383Y006471D01*
X030399Y006558D01*
X030418Y006644D01*
X030442Y006730D01*
X030469Y006813D01*
X030501Y006896D01*
X030537Y006977D01*
X030577Y007056D01*
X030620Y007132D01*
X030667Y007207D01*
X030718Y007279D01*
X030773Y007349D01*
X030830Y007416D01*
X030891Y007480D01*
X030955Y007541D01*
X031022Y007598D01*
X031092Y007653D01*
X031164Y007704D01*
X031239Y007751D01*
X031315Y007794D01*
X031394Y007834D01*
X031475Y007870D01*
X031558Y007902D01*
X031641Y007929D01*
X031727Y007953D01*
X031813Y007972D01*
X031900Y007988D01*
X031988Y007998D01*
X032076Y008005D01*
X032164Y008007D01*
X032252Y008005D01*
X032340Y007998D01*
X032428Y007988D01*
X032515Y007972D01*
X032601Y007953D01*
X032687Y007929D01*
X032770Y007902D01*
X032853Y007870D01*
X032934Y007834D01*
X033013Y007794D01*
X033089Y007751D01*
X033164Y007704D01*
X033236Y007653D01*
X033306Y007598D01*
X033373Y007541D01*
X033437Y007480D01*
X033498Y007416D01*
X033555Y007349D01*
X033610Y007279D01*
X033661Y007207D01*
X033708Y007132D01*
X033751Y007056D01*
X033791Y006977D01*
X033827Y006896D01*
X033859Y006813D01*
X033886Y006730D01*
X033910Y006644D01*
X033929Y006558D01*
X033945Y006471D01*
X033955Y006383D01*
X033962Y006295D01*
X033964Y006207D01*
X033962Y006119D01*
X033955Y006031D01*
X033945Y005943D01*
X033929Y005856D01*
X033910Y005770D01*
X033886Y005684D01*
X033859Y005601D01*
X033827Y005518D01*
X033791Y005437D01*
X033751Y005358D01*
X033708Y005282D01*
X033661Y005207D01*
X033610Y005135D01*
X033555Y005065D01*
X033498Y004998D01*
X033437Y004934D01*
X033373Y004873D01*
X033306Y004816D01*
X033236Y004761D01*
X033164Y004710D01*
X033089Y004663D01*
X033013Y004620D01*
X032934Y004580D01*
X032853Y004544D01*
X032770Y004512D01*
X032687Y004485D01*
X032601Y004461D01*
X032515Y004442D01*
X032428Y004426D01*
X032340Y004416D01*
X032252Y004409D01*
X032164Y004407D01*
X032076Y004409D01*
X031988Y004416D01*
X031900Y004426D01*
X031813Y004442D01*
X031727Y004461D01*
X031641Y004485D01*
X031558Y004512D01*
X031475Y004544D01*
X031394Y004580D01*
X031315Y004620D01*
X031239Y004663D01*
X031164Y004710D01*
X031092Y004761D01*
X031022Y004816D01*
X030955Y004873D01*
X030891Y004934D01*
X030830Y004998D01*
X030773Y005065D01*
X030718Y005135D01*
X030667Y005207D01*
X030620Y005282D01*
X030577Y005358D01*
X030537Y005437D01*
X030501Y005518D01*
X030469Y005601D01*
X030442Y005684D01*
X030418Y005770D01*
X030399Y005856D01*
X030383Y005943D01*
X030373Y006031D01*
X030366Y006119D01*
X030364Y006207D01*
X028296Y004701D02*
X027996Y004401D01*
X028071Y004325D01*
X028221Y004325D01*
X028296Y004401D01*
X028296Y004701D01*
X028221Y004776D01*
X028071Y004776D01*
X027996Y004701D01*
X027996Y004401D01*
X026465Y007820D02*
X026540Y007895D01*
X026540Y008195D01*
X026465Y008270D01*
X026240Y008270D01*
X026240Y007820D01*
X026465Y007820D01*
X026080Y007820D02*
X025779Y007820D01*
X025779Y008270D01*
X026080Y008270D01*
X025929Y008045D02*
X025779Y008045D01*
X025619Y007820D02*
X025319Y007820D01*
X025319Y008270D01*
X025159Y008045D02*
X024859Y008045D01*
X024698Y008045D02*
X024623Y007970D01*
X024398Y007970D01*
X024398Y007820D02*
X024398Y008270D01*
X024623Y008270D01*
X024698Y008195D01*
X024698Y008045D01*
X024548Y007970D02*
X024698Y007820D01*
X024238Y007820D02*
X024238Y008270D01*
X023938Y008270D02*
X023938Y007820D01*
X024088Y007970D01*
X024238Y007820D01*
X023778Y008045D02*
X023703Y007970D01*
X023477Y007970D01*
X023477Y007820D02*
X023477Y008270D01*
X023703Y008270D01*
X023778Y008195D01*
X023778Y008045D01*
X024765Y009196D02*
X024765Y016446D01*
X025015Y016446D01*
X038115Y016446D01*
X038115Y009196D01*
X037315Y009196D01*
X024765Y009196D01*
X024085Y010788D02*
X023785Y010788D01*
X024085Y011088D01*
X024085Y011163D01*
X024010Y011238D01*
X023860Y011238D01*
X023785Y011163D01*
X023625Y011238D02*
X023325Y011238D01*
X023475Y011238D02*
X023475Y010788D01*
X024612Y011972D02*
X024612Y013622D01*
X024012Y013350D02*
X024012Y013244D01*
X024400Y013751D02*
X024456Y013724D01*
X024510Y013693D01*
X024562Y013659D01*
X024612Y013622D01*
X024470Y014189D02*
X024470Y014640D01*
X024244Y014415D01*
X024545Y014415D01*
X024084Y014565D02*
X023784Y014265D01*
X023859Y014189D01*
X024009Y014189D01*
X024084Y014265D01*
X024084Y014565D01*
X024009Y014640D01*
X023859Y014640D01*
X023784Y014565D01*
X023784Y014265D01*
X023624Y014265D02*
X023549Y014189D01*
X023399Y014189D01*
X023324Y014265D01*
X023164Y014265D02*
X023088Y014189D01*
X022938Y014189D01*
X022863Y014265D01*
X023013Y014415D02*
X023088Y014415D01*
X023164Y014340D01*
X023164Y014265D01*
X023088Y014415D02*
X023164Y014490D01*
X023164Y014565D01*
X023088Y014640D01*
X022938Y014640D01*
X022863Y014565D01*
X023324Y014565D02*
X023324Y014490D01*
X023399Y014415D01*
X023624Y014415D01*
X023624Y014265D02*
X023624Y014565D01*
X023549Y014640D01*
X023399Y014640D01*
X023324Y014565D01*
X023515Y013747D02*
X023458Y013718D01*
X023402Y013685D01*
X023349Y013650D01*
X023298Y013610D01*
X023250Y013568D01*
X023204Y013523D01*
X023161Y013476D01*
X023121Y013426D01*
X023084Y013373D01*
X023051Y013318D01*
X023020Y013262D01*
X022994Y013203D01*
X022971Y013143D01*
X022951Y013082D01*
X022936Y013020D01*
X022924Y012957D01*
X022916Y012893D01*
X022912Y012829D01*
X022912Y012765D01*
X022916Y012701D01*
X022924Y012637D01*
X022936Y012574D01*
X022951Y012512D01*
X022971Y012451D01*
X022994Y012391D01*
X023020Y012332D01*
X023051Y012276D01*
X023084Y012221D01*
X023121Y012168D01*
X023161Y012118D01*
X023204Y012071D01*
X023250Y012026D01*
X023298Y011984D01*
X023349Y011944D01*
X023402Y011909D01*
X023458Y011876D01*
X023515Y011847D01*
X024012Y012244D02*
X024012Y012350D01*
X024409Y011847D02*
X024463Y011874D01*
X024514Y011904D01*
X024564Y011937D01*
X024612Y011972D01*
X027312Y012471D02*
X027312Y012922D01*
X027538Y012922D01*
X027613Y012847D01*
X027613Y012696D01*
X027538Y012621D01*
X027312Y012621D01*
X027463Y012621D02*
X027613Y012471D01*
X027773Y012471D02*
X028073Y012471D01*
X027923Y012471D02*
X027923Y012922D01*
X027773Y012772D01*
X028233Y012847D02*
X028308Y012922D01*
X028458Y012922D01*
X028533Y012847D01*
X028533Y012772D01*
X028458Y012696D01*
X028533Y012621D01*
X028533Y012546D01*
X028458Y012471D01*
X028308Y012471D01*
X028233Y012546D01*
X028383Y012696D02*
X028458Y012696D01*
X028334Y012164D02*
X028334Y011714D01*
X028334Y011864D02*
X028559Y012014D01*
X028334Y011864D02*
X028559Y011714D01*
X028174Y011789D02*
X028099Y011714D01*
X027948Y011714D01*
X027873Y011789D01*
X028174Y012089D01*
X028174Y011789D01*
X028174Y012089D02*
X028099Y012164D01*
X027948Y012164D01*
X027873Y012089D01*
X027873Y011789D01*
X027713Y011714D02*
X027413Y011714D01*
X027563Y011714D02*
X027563Y012164D01*
X027413Y012014D01*
X027395Y013696D02*
X027395Y014147D01*
X027620Y014147D01*
X027695Y014072D01*
X027695Y013921D01*
X027620Y013846D01*
X027395Y013846D01*
X027545Y013846D02*
X027695Y013696D01*
X027856Y013771D02*
X027931Y013696D01*
X028081Y013696D01*
X028156Y013771D01*
X028156Y013846D01*
X028081Y013921D01*
X028006Y013921D01*
X028081Y013921D02*
X028156Y013996D01*
X028156Y014072D01*
X028081Y014147D01*
X027931Y014147D01*
X027856Y014072D01*
X027818Y014470D02*
X028118Y014470D01*
X027968Y014470D02*
X027968Y014920D01*
X027818Y014770D01*
X027663Y014545D02*
X027663Y014470D01*
X027588Y014470D01*
X027588Y014545D01*
X027663Y014545D01*
X027428Y014545D02*
X027353Y014470D01*
X027203Y014470D01*
X027128Y014545D01*
X027203Y014695D02*
X027128Y014770D01*
X027128Y014845D01*
X027203Y014920D01*
X027353Y014920D01*
X027428Y014845D01*
X027428Y014545D01*
X027428Y014695D02*
X027203Y014695D01*
X026967Y014470D02*
X026667Y014470D01*
X026817Y014470D02*
X026817Y014920D01*
X026667Y014770D01*
X028279Y014620D02*
X028504Y014470D01*
X028279Y014470D02*
X028279Y014920D01*
X028504Y014770D02*
X028279Y014620D01*
X031771Y013416D02*
X031921Y013566D01*
X031921Y013116D01*
X031771Y013116D02*
X032072Y013116D01*
X032232Y013191D02*
X032532Y013491D01*
X032532Y013191D01*
X032457Y013116D01*
X032307Y013116D01*
X032232Y013191D01*
X032232Y013491D01*
X032307Y013566D01*
X032457Y013566D01*
X032532Y013491D01*
X032692Y013566D02*
X032692Y013116D01*
X032692Y013266D02*
X032917Y013416D01*
X032692Y013266D02*
X032917Y013116D01*
X033345Y012741D02*
X033570Y012741D01*
X033645Y012666D01*
X033645Y012516D01*
X033570Y012441D01*
X033345Y012441D01*
X033495Y012441D02*
X033645Y012291D01*
X033805Y012366D02*
X033880Y012291D01*
X034030Y012291D01*
X034105Y012366D01*
X034105Y012441D01*
X034030Y012516D01*
X033805Y012516D01*
X033805Y012366D01*
X033805Y012516D02*
X033955Y012666D01*
X034105Y012741D01*
X034095Y013162D02*
X034395Y013162D01*
X034245Y013162D02*
X034245Y013613D01*
X034095Y013462D01*
X034555Y013538D02*
X034555Y013237D01*
X034856Y013538D01*
X034856Y013237D01*
X034781Y013162D01*
X034630Y013162D01*
X034555Y013237D01*
X034555Y013538D02*
X034630Y013613D01*
X034781Y013613D01*
X034856Y013538D01*
X035016Y013613D02*
X035016Y013162D01*
X035016Y013312D02*
X035241Y013462D01*
X035016Y013312D02*
X035241Y013162D01*
X034463Y013997D02*
X034313Y013997D01*
X034238Y014072D01*
X034538Y014373D01*
X034538Y014072D01*
X034463Y013997D01*
X034238Y014072D02*
X034238Y014373D01*
X034313Y014448D01*
X034463Y014448D01*
X034538Y014373D01*
X034078Y013997D02*
X033777Y013997D01*
X033927Y013997D02*
X033927Y014448D01*
X033777Y014298D01*
X033617Y014373D02*
X033617Y014223D01*
X033542Y014148D01*
X033317Y014148D01*
X033467Y014148D02*
X033617Y013997D01*
X033317Y013997D02*
X033317Y014448D01*
X033542Y014448D01*
X033617Y014373D01*
X033345Y012741D02*
X033345Y012291D01*
X033736Y011962D02*
X033886Y011812D01*
X033886Y011512D01*
X034046Y011512D02*
X034046Y011962D01*
X034271Y011962D01*
X034346Y011887D01*
X034346Y011737D01*
X034271Y011662D01*
X034046Y011662D01*
X034196Y011662D02*
X034346Y011512D01*
X034507Y011512D02*
X034732Y011512D01*
X034807Y011587D01*
X034807Y011887D01*
X034732Y011962D01*
X034507Y011962D01*
X034507Y011512D01*
X034967Y011587D02*
X035042Y011512D01*
X035192Y011512D01*
X035267Y011587D01*
X035267Y011962D01*
X035427Y011962D02*
X035578Y011962D01*
X035502Y011962D02*
X035502Y011512D01*
X035427Y011512D02*
X035578Y011512D01*
X035734Y011512D02*
X035734Y011962D01*
X036035Y011512D01*
X036035Y011962D01*
X036195Y011887D02*
X036270Y011962D01*
X036420Y011962D01*
X036495Y011887D01*
X036495Y011587D01*
X036420Y011512D01*
X036270Y011512D01*
X036195Y011587D01*
X036195Y011887D01*
X034967Y011962D02*
X034967Y011587D01*
X033886Y011737D02*
X033586Y011737D01*
X033586Y011812D02*
X033736Y011962D01*
X033586Y011812D02*
X033586Y011512D01*
X036852Y008645D02*
X037152Y008345D01*
X037077Y008420D02*
X037302Y008645D01*
X037302Y008345D02*
X036852Y008345D01*
X036852Y008110D02*
X037077Y007885D01*
X037077Y008185D01*
X037302Y008110D02*
X036852Y008110D01*
X036927Y007725D02*
X036852Y007650D01*
X036852Y007499D01*
X036927Y007424D01*
X036927Y007725D02*
X037002Y007725D01*
X037302Y007424D01*
X037302Y007725D01*
X033688Y008121D02*
X033538Y007971D01*
X019281Y008045D02*
X019283Y008143D01*
X019291Y008241D01*
X019303Y008338D01*
X019319Y008435D01*
X019341Y008531D01*
X019367Y008626D01*
X019398Y008719D01*
X019433Y008810D01*
X019473Y008900D01*
X019517Y008988D01*
X019566Y009073D01*
X019618Y009156D01*
X019675Y009236D01*
X019735Y009314D01*
X019799Y009388D01*
X019867Y009459D01*
X019938Y009527D01*
X020012Y009591D01*
X020090Y009651D01*
X020170Y009708D01*
X020253Y009760D01*
X020338Y009809D01*
X020426Y009853D01*
X020516Y009893D01*
X020607Y009928D01*
X020700Y009959D01*
X020795Y009985D01*
X020891Y010007D01*
X020988Y010023D01*
X021085Y010035D01*
X021183Y010043D01*
X021281Y010045D01*
X021379Y010043D01*
X021477Y010035D01*
X021574Y010023D01*
X021671Y010007D01*
X021767Y009985D01*
X021862Y009959D01*
X021955Y009928D01*
X022046Y009893D01*
X022136Y009853D01*
X022224Y009809D01*
X022309Y009760D01*
X022392Y009708D01*
X022472Y009651D01*
X022550Y009591D01*
X022624Y009527D01*
X022695Y009459D01*
X022763Y009388D01*
X022827Y009314D01*
X022887Y009236D01*
X022944Y009156D01*
X022996Y009073D01*
X023045Y008988D01*
X023089Y008900D01*
X023129Y008810D01*
X023164Y008719D01*
X023195Y008626D01*
X023221Y008531D01*
X023243Y008435D01*
X023259Y008338D01*
X023271Y008241D01*
X023279Y008143D01*
X023281Y008045D01*
X023279Y007947D01*
X023271Y007849D01*
X023259Y007752D01*
X023243Y007655D01*
X023221Y007559D01*
X023195Y007464D01*
X023164Y007371D01*
X023129Y007280D01*
X023089Y007190D01*
X023045Y007102D01*
X022996Y007017D01*
X022944Y006934D01*
X022887Y006854D01*
X022827Y006776D01*
X022763Y006702D01*
X022695Y006631D01*
X022624Y006563D01*
X022550Y006499D01*
X022472Y006439D01*
X022392Y006382D01*
X022309Y006330D01*
X022224Y006281D01*
X022136Y006237D01*
X022046Y006197D01*
X021955Y006162D01*
X021862Y006131D01*
X021767Y006105D01*
X021671Y006083D01*
X021574Y006067D01*
X021477Y006055D01*
X021379Y006047D01*
X021281Y006045D01*
X021183Y006047D01*
X021085Y006055D01*
X020988Y006067D01*
X020891Y006083D01*
X020795Y006105D01*
X020700Y006131D01*
X020607Y006162D01*
X020516Y006197D01*
X020426Y006237D01*
X020338Y006281D01*
X020253Y006330D01*
X020170Y006382D01*
X020090Y006439D01*
X020012Y006499D01*
X019938Y006563D01*
X019867Y006631D01*
X019799Y006702D01*
X019735Y006776D01*
X019675Y006854D01*
X019618Y006934D01*
X019566Y007017D01*
X019517Y007102D01*
X019473Y007190D01*
X019433Y007280D01*
X019398Y007371D01*
X019367Y007464D01*
X019341Y007559D01*
X019319Y007655D01*
X019303Y007752D01*
X019291Y007849D01*
X019283Y007947D01*
X019281Y008045D01*
X036237Y016820D02*
X036312Y016745D01*
X036237Y016820D02*
X036237Y016970D01*
X036312Y017045D01*
X036387Y017045D01*
X036463Y016970D01*
X036538Y017045D01*
X036613Y017045D01*
X036688Y016970D01*
X036688Y016820D01*
X036613Y016745D01*
X036463Y016895D02*
X036463Y016970D01*
X036387Y017205D02*
X036312Y017205D01*
X036237Y017280D01*
X036237Y017430D01*
X036312Y017505D01*
X036613Y017505D01*
X036688Y017430D01*
X036688Y017280D01*
X036613Y017205D01*
X036463Y017280D02*
X036463Y017505D01*
X036613Y017666D02*
X036312Y017666D01*
X036237Y017741D01*
X036237Y017891D01*
X036312Y017966D01*
X036613Y017666D01*
X036688Y017741D01*
X036688Y017891D01*
X036613Y017966D01*
X036312Y017966D01*
X036463Y018126D02*
X036312Y018276D01*
X036237Y018426D01*
X036463Y018351D02*
X036463Y018126D01*
X036613Y018126D01*
X036688Y018201D01*
X036688Y018351D01*
X036613Y018426D01*
X036538Y018426D01*
X036463Y018351D01*
X036823Y018710D02*
X036823Y017061D01*
X036463Y017280D02*
X036387Y017205D01*
X037423Y017333D02*
X037423Y017438D01*
X037035Y016931D02*
X036979Y016958D01*
X036925Y016989D01*
X036873Y017023D01*
X036823Y017060D01*
X037920Y016935D02*
X037977Y016964D01*
X038033Y016997D01*
X038086Y017032D01*
X038137Y017072D01*
X038185Y017114D01*
X038231Y017159D01*
X038274Y017206D01*
X038314Y017256D01*
X038351Y017309D01*
X038384Y017364D01*
X038415Y017420D01*
X038441Y017479D01*
X038464Y017539D01*
X038484Y017600D01*
X038499Y017662D01*
X038511Y017725D01*
X038519Y017789D01*
X038523Y017853D01*
X038523Y017917D01*
X038519Y017981D01*
X038511Y018045D01*
X038499Y018108D01*
X038484Y018170D01*
X038464Y018231D01*
X038441Y018291D01*
X038415Y018350D01*
X038384Y018406D01*
X038351Y018461D01*
X038314Y018514D01*
X038274Y018564D01*
X038231Y018611D01*
X038185Y018656D01*
X038137Y018698D01*
X038086Y018738D01*
X038033Y018773D01*
X037977Y018806D01*
X037920Y018835D01*
X037423Y018438D02*
X037423Y018333D01*
X037026Y018836D02*
X036972Y018809D01*
X036921Y018779D01*
X036871Y018746D01*
X036823Y018711D01*
X038172Y017108D02*
X038623Y017108D01*
X038623Y016958D02*
X038623Y017259D01*
X038323Y016958D02*
X038172Y017108D01*
X038172Y016798D02*
X038172Y016498D01*
X038172Y016648D02*
X038623Y016648D01*
X032585Y020702D02*
X032510Y020627D01*
X032360Y020627D01*
X032285Y020702D01*
X032285Y020852D02*
X032435Y020927D01*
X032510Y020927D01*
X032585Y020852D01*
X032585Y020702D01*
X032285Y020852D02*
X032285Y021077D01*
X032585Y021077D01*
X032125Y021002D02*
X032125Y020852D01*
X032049Y020777D01*
X031824Y020777D01*
X031824Y020627D02*
X031824Y021077D01*
X032049Y021077D01*
X032125Y021002D01*
X031974Y020777D02*
X032125Y020627D01*
X030900Y021403D02*
X030675Y021553D01*
X030900Y021703D01*
X030675Y021853D02*
X030675Y021403D01*
X030515Y021478D02*
X030515Y021778D01*
X030215Y021478D01*
X030290Y021403D01*
X030440Y021403D01*
X030515Y021478D01*
X030515Y021778D02*
X030440Y021853D01*
X030290Y021853D01*
X030215Y021778D01*
X030215Y021478D01*
X030054Y021403D02*
X029754Y021403D01*
X029904Y021403D02*
X029904Y021853D01*
X029754Y021703D01*
X027734Y021692D02*
X027509Y021542D01*
X027734Y021392D01*
X027509Y021392D02*
X027509Y021842D01*
X027199Y021842D02*
X027199Y021392D01*
X027049Y021392D02*
X027349Y021392D01*
X027049Y021692D02*
X027199Y021842D01*
X026893Y021467D02*
X026893Y021392D01*
X026818Y021392D01*
X026818Y021467D01*
X026893Y021467D01*
X026658Y021467D02*
X026658Y021767D01*
X026583Y021842D01*
X026433Y021842D01*
X026358Y021767D01*
X026358Y021692D01*
X026433Y021617D01*
X026658Y021617D01*
X026658Y021467D02*
X026583Y021392D01*
X026433Y021392D01*
X026358Y021467D01*
X026198Y021392D02*
X025898Y021392D01*
X026048Y021392D02*
X026048Y021842D01*
X025898Y021692D01*
X026059Y021028D02*
X026284Y021028D01*
X026359Y020953D01*
X026359Y020803D01*
X026284Y020728D01*
X026059Y020728D01*
X026209Y020728D02*
X026359Y020578D01*
X026519Y020578D02*
X026819Y020578D01*
X026669Y020578D02*
X026669Y021028D01*
X026519Y020878D01*
X026979Y020803D02*
X027280Y020803D01*
X027205Y021028D02*
X026979Y020803D01*
X027205Y020578D02*
X027205Y021028D01*
X026059Y021028D02*
X026059Y020578D01*
X025243Y020195D02*
X025018Y020045D01*
X025243Y019895D01*
X025018Y019895D02*
X025018Y020345D01*
X024708Y020345D02*
X024557Y020195D01*
X024708Y020345D02*
X024708Y019895D01*
X024858Y019895D02*
X024557Y019895D01*
X024402Y019895D02*
X024327Y019895D01*
X024327Y019970D01*
X024402Y019970D01*
X024402Y019895D01*
X024167Y019970D02*
X024167Y020270D01*
X024092Y020345D01*
X023942Y020345D01*
X023867Y020270D01*
X023867Y020195D01*
X023942Y020120D01*
X024167Y020120D01*
X024167Y019970D02*
X024092Y019895D01*
X023942Y019895D01*
X023867Y019970D01*
X023707Y019895D02*
X023406Y019895D01*
X023557Y019895D02*
X023557Y020345D01*
X023406Y020195D01*
X024097Y019573D02*
X024322Y019573D01*
X024397Y019498D01*
X024397Y019348D01*
X024322Y019273D01*
X024097Y019273D01*
X024247Y019273D02*
X024397Y019123D01*
X024557Y019123D02*
X024858Y019123D01*
X024707Y019123D02*
X024707Y019573D01*
X024557Y019423D01*
X024097Y019573D02*
X024097Y019123D01*
X019693Y019007D02*
X019467Y018856D01*
X019693Y018706D01*
X019467Y018706D02*
X019467Y019157D01*
X019157Y019157D02*
X019007Y019007D01*
X019157Y019157D02*
X019157Y018706D01*
X019007Y018706D02*
X019307Y018706D01*
X018852Y018706D02*
X018852Y018781D01*
X018777Y018781D01*
X018777Y018706D01*
X018852Y018706D01*
X018617Y018781D02*
X018542Y018706D01*
X018391Y018706D01*
X018316Y018781D01*
X018391Y018931D02*
X018617Y018931D01*
X018617Y018781D02*
X018617Y019082D01*
X018542Y019157D01*
X018391Y019157D01*
X018316Y019082D01*
X018316Y019007D01*
X018391Y018931D01*
X018156Y018706D02*
X017856Y018706D01*
X018006Y018706D02*
X018006Y019157D01*
X017856Y019007D01*
X018761Y019531D02*
X018761Y019981D01*
X018987Y019981D01*
X019062Y019906D01*
X019062Y019756D01*
X018987Y019681D01*
X018761Y019681D01*
X018912Y019681D02*
X019062Y019531D01*
X019222Y019531D02*
X019522Y019831D01*
X019522Y019906D01*
X019447Y019981D01*
X019297Y019981D01*
X019222Y019906D01*
X019222Y019531D02*
X019522Y019531D01*
X016062Y020224D02*
X016062Y018724D01*
X012062Y018724D01*
X012062Y018224D01*
X012062Y018724D02*
X010562Y018724D01*
X010562Y020224D01*
X012062Y020224D01*
X012062Y021224D01*
X016062Y021224D01*
X016062Y022724D01*
X012062Y022724D01*
X012062Y023224D01*
X012062Y022724D02*
X010562Y022724D01*
X010562Y021224D01*
X012062Y021224D01*
X012062Y020224D02*
X016062Y020224D01*
X018330Y021728D02*
X018330Y022178D01*
X018555Y022178D01*
X018630Y022103D01*
X018630Y021953D01*
X018555Y021878D01*
X018330Y021878D01*
X018480Y021878D02*
X018630Y021728D01*
X018790Y021728D02*
X019091Y021728D01*
X018941Y021728D02*
X018941Y022178D01*
X018790Y022028D01*
X019251Y021953D02*
X019401Y022028D01*
X019476Y022028D01*
X019551Y021953D01*
X019551Y021803D01*
X019476Y021728D01*
X019326Y021728D01*
X019251Y021803D01*
X019251Y021953D02*
X019251Y022178D01*
X019551Y022178D01*
X019410Y022535D02*
X019185Y022685D01*
X019410Y022835D01*
X019185Y022985D02*
X019185Y022535D01*
X019025Y022610D02*
X018950Y022535D01*
X018800Y022535D01*
X018725Y022610D01*
X018725Y022760D02*
X018875Y022835D01*
X018950Y022835D01*
X019025Y022760D01*
X019025Y022610D01*
X018725Y022760D02*
X018725Y022985D01*
X019025Y022985D01*
X018569Y022610D02*
X018569Y022535D01*
X018494Y022535D01*
X018494Y022610D01*
X018569Y022610D01*
X018334Y022535D02*
X018034Y022535D01*
X018184Y022535D02*
X018184Y022985D01*
X018034Y022835D01*
X029467Y018639D02*
X029618Y018789D01*
X029618Y018339D01*
X029768Y018339D02*
X029467Y018339D01*
X029928Y018414D02*
X029928Y018714D01*
X030003Y018789D01*
X030153Y018789D01*
X030228Y018714D01*
X029928Y018414D01*
X030003Y018339D01*
X030153Y018339D01*
X030228Y018414D01*
X030228Y018714D01*
X030388Y018789D02*
X030388Y018339D01*
X030388Y018489D02*
X030613Y018639D01*
X030388Y018489D02*
X030613Y018339D01*
X030610Y019234D02*
X030610Y019684D01*
X030384Y019459D01*
X030685Y019459D01*
X030224Y019459D02*
X030149Y019384D01*
X029924Y019384D01*
X030074Y019384D02*
X030224Y019234D01*
X030224Y019459D02*
X030224Y019609D01*
X030149Y019684D01*
X029924Y019684D01*
X029924Y019234D01*
X033007Y022143D02*
X033007Y022593D01*
X033233Y022593D01*
X033308Y022518D01*
X033308Y022368D01*
X033233Y022293D01*
X033007Y022293D01*
X033158Y022293D02*
X033308Y022143D01*
X033468Y022143D02*
X033768Y022143D01*
X033618Y022143D02*
X033618Y022593D01*
X033468Y022443D01*
X033928Y022443D02*
X034078Y022593D01*
X034078Y022143D01*
X033928Y022143D02*
X034228Y022143D01*
X034794Y021643D02*
X034944Y021793D01*
X034944Y021343D01*
X034794Y021343D02*
X035094Y021343D01*
X035254Y021418D02*
X035554Y021718D01*
X035554Y021418D01*
X035479Y021343D01*
X035329Y021343D01*
X035254Y021418D01*
X035254Y021718D01*
X035329Y021793D01*
X035479Y021793D01*
X035554Y021718D01*
X035715Y021793D02*
X035715Y021343D01*
X035715Y021493D02*
X035940Y021643D01*
X035715Y021493D02*
X035940Y021343D01*
D15*
X036135Y021309D02*
X037885Y021309D01*
X037885Y019309D01*
X036135Y019309D01*
X036135Y021309D01*
X037885Y021309D02*
X038635Y021309D01*
X038635Y019309D01*
X037885Y019309D01*
X028214Y008082D02*
X028216Y008028D01*
X028221Y007974D01*
X028230Y007921D01*
X028243Y007868D01*
X028259Y007817D01*
X028279Y007767D01*
X028302Y007718D01*
X028328Y007670D01*
X028357Y007625D01*
X028390Y007582D01*
X028425Y007541D01*
X028463Y007502D01*
X028503Y007466D01*
X028546Y007433D01*
X028591Y007403D01*
X028638Y007376D01*
X029411Y007387D02*
X029459Y007417D01*
X029504Y007450D01*
X029547Y007486D01*
X029588Y007524D01*
X029625Y007566D01*
X029660Y007610D01*
X029691Y007656D01*
X029720Y007705D01*
X029744Y007755D01*
X029765Y007807D01*
X029783Y007861D01*
X029796Y007915D01*
X029806Y007970D01*
X029812Y008026D01*
X029814Y008082D01*
X029812Y008135D01*
X029807Y008189D01*
X029798Y008241D01*
X029786Y008293D01*
X029770Y008344D01*
X029751Y008394D01*
X029728Y008443D01*
X029702Y008490D01*
X029674Y008535D01*
X029642Y008578D01*
X029608Y008618D01*
X029570Y008657D01*
X029531Y008693D01*
X028502Y008697D02*
X028462Y008661D01*
X028424Y008622D01*
X028389Y008581D01*
X028357Y008538D01*
X028327Y008493D01*
X028301Y008446D01*
X028279Y008397D01*
X028259Y008346D01*
X028243Y008295D01*
X028230Y008243D01*
X028221Y008189D01*
X028216Y008136D01*
X028214Y008082D01*
X025764Y007396D02*
X025717Y007423D01*
X025672Y007453D01*
X025629Y007486D01*
X025589Y007522D01*
X025551Y007561D01*
X025516Y007602D01*
X025483Y007645D01*
X025454Y007690D01*
X025428Y007738D01*
X025405Y007787D01*
X025385Y007837D01*
X025369Y007888D01*
X025356Y007941D01*
X025347Y007994D01*
X025342Y008048D01*
X025340Y008102D01*
X026537Y007407D02*
X026585Y007437D01*
X026630Y007470D01*
X026673Y007506D01*
X026714Y007544D01*
X026751Y007586D01*
X026786Y007630D01*
X026817Y007676D01*
X026846Y007725D01*
X026870Y007775D01*
X026891Y007827D01*
X026909Y007881D01*
X026922Y007935D01*
X026932Y007990D01*
X026938Y008046D01*
X026940Y008102D01*
X026938Y008155D01*
X026933Y008209D01*
X026924Y008261D01*
X026912Y008313D01*
X026896Y008364D01*
X026877Y008414D01*
X026854Y008463D01*
X026828Y008510D01*
X026800Y008555D01*
X026768Y008598D01*
X026734Y008638D01*
X026696Y008677D01*
X026657Y008713D01*
X025628Y008717D02*
X025588Y008681D01*
X025550Y008642D01*
X025515Y008601D01*
X025483Y008558D01*
X025453Y008513D01*
X025427Y008466D01*
X025405Y008417D01*
X025385Y008366D01*
X025369Y008315D01*
X025356Y008263D01*
X025347Y008209D01*
X025342Y008156D01*
X025340Y008102D01*
D16*
X038264Y020262D02*
X038264Y020776D01*
D17*
X038235Y021602D02*
X038295Y021662D01*
X038355Y021602D01*
X038415Y021662D01*
X038415Y021842D01*
X038543Y021782D02*
X038603Y021842D01*
X038723Y021842D01*
X038783Y021782D01*
X038783Y021722D01*
X038543Y021722D01*
X038543Y021662D02*
X038543Y021782D01*
X038543Y021662D02*
X038603Y021602D01*
X038723Y021602D01*
X038911Y021602D02*
X038911Y021842D01*
X038911Y021722D02*
X039032Y021842D01*
X039092Y021842D01*
X038235Y021602D02*
X038175Y021662D01*
X038175Y021842D01*
X038047Y021782D02*
X037987Y021842D01*
X037867Y021842D01*
X037807Y021782D01*
X037807Y021662D01*
X037867Y021602D01*
X037987Y021602D01*
X038047Y021662D01*
X038047Y021782D01*
X037678Y021782D02*
X037678Y021662D01*
X037618Y021602D01*
X037438Y021602D01*
X037438Y021482D02*
X037438Y021842D01*
X037618Y021842D01*
X037678Y021782D01*
X036942Y021842D02*
X036822Y021602D01*
X036702Y021842D01*
X036573Y021902D02*
X036513Y021962D01*
X036393Y021962D01*
X036333Y021902D01*
X036333Y021842D01*
X036393Y021782D01*
X036573Y021782D01*
X036573Y021662D02*
X036573Y021902D01*
X036573Y021662D02*
X036513Y021602D01*
X036393Y021602D01*
X036333Y021662D01*
D18*
X020709Y005562D03*
D19*
X020334Y005562D03*
X022384Y005562D03*
D20*
X018474Y007379D03*
D21*
X018474Y007004D03*
X018474Y009054D03*
D22*
X035524Y008129D03*
X036290Y008129D03*
X036290Y005289D03*
X035524Y005289D03*
M02*
