%
M48
M72
T01C0.0240
T02C0.0320
T03C0.0354
T04C0.0394
T05C0.0400
T06C0.0433
T07C0.0866
T08C0.1378
%
T01
X16711Y9543
X16711Y10094
X20176Y10094
X23719Y8125
X25530Y10724
X25530Y11275
X26475Y11669
X28050Y14031
X24034Y15291
X17026Y16550
X15530Y18047
X15530Y18834
X31357Y20409
X33562Y19464
T02
X32199Y19409
X34152Y20842
X35618Y22368
X31618Y22368
X30152Y20842
X28763Y20830
X28199Y19409
X26693Y19320
X24763Y20830
X22693Y19320
X21057Y19706
X21047Y21972
X17047Y21972
X17057Y19706
X25891Y13971
X23962Y13797
X23962Y12797
X23962Y11797
X25930Y12766
X29930Y12766
X31720Y12566
X32073Y14172
X29891Y13971
X35720Y12566
X36073Y14172
X37473Y16885
X37473Y17885
X37473Y18885
X36290Y8709
X35524Y8709
X34719Y8560
X30719Y8560
X29014Y8582
X29014Y7582
X29857Y6327
X29911Y5368
X25911Y5368
X25857Y6327
X26140Y7602
X26140Y8602
X22859Y5562
X19859Y5562
X18474Y6529
X18474Y9529
X35524Y4709
X36290Y4709
T03
X32164Y5407
X32164Y7007
T04
X37385Y19809
X37385Y20809
T05
X29662Y24920
X28662Y24920
X28415Y15846
X29415Y15846
X30415Y15846
X31415Y15846
X32415Y15846
X33415Y15846
X34415Y15846
X35415Y15846
X36415Y15846
X37415Y15346
X37415Y14346
X37415Y13346
X37415Y12346
X37415Y11346
X37415Y10346
X36415Y9846
X35415Y9846
X34415Y9846
X33415Y9846
X32415Y9846
X31415Y9846
X30415Y9846
X29415Y9846
X28415Y9846
X27415Y9846
X26415Y9846
X25415Y9846
X27865Y10996
X28865Y10996
X31965Y10996
X32965Y10996
X27415Y15846
X26415Y15846
X25415Y15846
T06
X25562Y17724
X26562Y17724
X27562Y17724
X28562Y17724
X29562Y17724
X30562Y17724
X31562Y17724
X32562Y17724
X33562Y17724
X34562Y17724
X35562Y17724
X35562Y23724
X34562Y23724
X33562Y23724
X32562Y23724
X31562Y23724
X30562Y23724
X29562Y23724
X28562Y23724
X27562Y23724
X26562Y23724
X25562Y23724
X24562Y23724
X23562Y23724
X22562Y23724
X21562Y23724
X20562Y23724
X19562Y23724
X18562Y23724
X17562Y23724
X16562Y23724
X16562Y17724
X17562Y17724
X18562Y17724
X19562Y17724
X20562Y17724
X21562Y17724
X22562Y17724
X23562Y17724
X24562Y17724
T07
X15703Y7145
X15703Y8995
X21281Y8995
X21281Y7145
T08
X24337Y6776
X37798Y6738
X37783Y23353
M30
