G75*
G70*
%OFA0B0*%
%FSLAX24Y24*%
%IPPOS*%
%LPD*%
%AMOC8*
5,1,8,0,0,1.08239X$1,22.5*
%
%ADD10OC8,0.0520*%
%ADD11R,0.0554X0.0554*%
%ADD12C,0.0740*%
%ADD13C,0.0594*%
%ADD14C,0.1266*%
%ADD15C,0.0600*%
%ADD16C,0.0520*%
%ADD17R,0.0700X0.0700*%
%ADD18C,0.0250*%
%ADD19C,0.0400*%
%ADD20C,0.0150*%
D10*
X025911Y005368D03*
X025857Y006327D03*
X026140Y007602D03*
X026140Y008602D03*
X029014Y008582D03*
X029014Y007582D03*
X029857Y006327D03*
X029911Y005368D03*
X030719Y008560D03*
X034719Y008560D03*
X035524Y008709D03*
X036290Y008709D03*
X035720Y012566D03*
X036073Y014172D03*
X032073Y014172D03*
X031720Y012566D03*
X029930Y012766D03*
X029891Y013971D03*
X025891Y013971D03*
X025930Y012766D03*
X026693Y019320D03*
X028199Y019409D03*
X028763Y020830D03*
X030152Y020842D03*
X031618Y022368D03*
X034152Y020842D03*
X035618Y022368D03*
X032199Y019409D03*
X024763Y020830D03*
X022693Y019320D03*
X021057Y019706D03*
X021047Y021972D03*
X017047Y021972D03*
X017057Y019706D03*
X035524Y004709D03*
X036290Y004709D03*
D11*
X032164Y005407D03*
X032164Y007007D03*
D12*
X032415Y009846D03*
X033415Y009846D03*
X034415Y009846D03*
X035415Y009846D03*
X036415Y009846D03*
X037415Y010346D03*
X037415Y011346D03*
X037415Y012346D03*
X037415Y013346D03*
X037415Y014346D03*
X037415Y015346D03*
X036415Y015846D03*
X035415Y015846D03*
X034415Y015846D03*
X033415Y015846D03*
X032415Y015846D03*
X031415Y015846D03*
X030415Y015846D03*
X029415Y015846D03*
X028415Y015846D03*
X027415Y015846D03*
X026415Y015846D03*
X025415Y015846D03*
X027865Y010996D03*
X028865Y010996D03*
X028415Y009846D03*
X029415Y009846D03*
X030415Y009846D03*
X031415Y009846D03*
X031965Y010996D03*
X032965Y010996D03*
X027415Y009846D03*
X026415Y009846D03*
X025415Y009846D03*
D13*
X037088Y019809D02*
X037681Y019809D01*
X037681Y020809D02*
X037088Y020809D01*
D14*
X015703Y007145D03*
X015703Y008995D03*
X021281Y008995D03*
X021281Y007145D03*
D15*
X028662Y024620D02*
X028662Y025220D01*
X029662Y025220D02*
X029662Y024620D01*
D16*
X037213Y018885D02*
X037733Y018885D01*
X037733Y017885D02*
X037213Y017885D01*
X037213Y016885D02*
X037733Y016885D01*
X024222Y013797D02*
X023702Y013797D01*
X023702Y012797D02*
X024222Y012797D01*
X024222Y011797D02*
X023702Y011797D01*
X018474Y009789D02*
X018474Y009269D01*
X018474Y006789D02*
X018474Y006269D01*
X019599Y005562D02*
X020119Y005562D01*
X022599Y005562D02*
X023119Y005562D01*
D17*
X023562Y017724D03*
X024562Y017724D03*
X025562Y017724D03*
X026562Y017724D03*
X027562Y017724D03*
X028562Y017724D03*
X029562Y017724D03*
X030562Y017724D03*
X031562Y017724D03*
X032562Y017724D03*
X033562Y017724D03*
X034562Y017724D03*
X035562Y017724D03*
X035562Y023724D03*
X034562Y023724D03*
X033562Y023724D03*
X032562Y023724D03*
X031562Y023724D03*
X030562Y023724D03*
X029562Y023724D03*
X028562Y023724D03*
X027562Y023724D03*
X026562Y023724D03*
X025562Y023724D03*
X024562Y023724D03*
X023562Y023724D03*
X022562Y023724D03*
X021562Y023724D03*
X020562Y023724D03*
X019562Y023724D03*
X018562Y023724D03*
X017562Y023724D03*
X016562Y023724D03*
X016562Y017724D03*
X017562Y017724D03*
X018562Y017724D03*
X019562Y017724D03*
X020562Y017724D03*
X021562Y017724D03*
X022562Y017724D03*
D18*
X023562Y017102D02*
X023562Y017023D01*
X023562Y015133D01*
X023955Y014739D01*
X024743Y014739D01*
X024743Y014661D01*
X024743Y012613D01*
X024428Y012299D01*
X023483Y012299D01*
X023168Y011984D01*
X023168Y010881D01*
X021357Y009070D01*
X021281Y008995D01*
X020176Y010094D02*
X020176Y012771D01*
X016003Y016944D01*
X016003Y022141D01*
X017577Y023716D01*
X017562Y023724D01*
X017656Y023716D01*
X018522Y023716D01*
X018562Y023724D01*
X021121Y019779D02*
X021057Y019706D01*
X021121Y019779D02*
X022459Y019779D01*
X022538Y019858D01*
X026160Y019858D01*
X026633Y019385D01*
X026693Y019320D01*
X024562Y017724D02*
X024507Y017653D01*
X023955Y017102D01*
X023562Y017102D01*
X019152Y017102D01*
X018601Y017653D01*
X018562Y017724D01*
X024743Y014739D02*
X030727Y014739D01*
X030963Y014976D01*
X032381Y014976D01*
X033562Y013795D01*
X033562Y010724D01*
X033483Y010645D01*
X033483Y009858D01*
X033415Y009846D01*
X030570Y007023D02*
X029073Y008519D01*
X029014Y008582D01*
X028995Y008598D01*
X026160Y008598D01*
X026140Y008602D01*
X026081Y008676D01*
X025766Y008676D01*
X024034Y010409D01*
X024034Y011747D01*
X023962Y011797D01*
X030570Y007023D02*
X032144Y007023D01*
X032164Y007007D01*
X030562Y017724D02*
X030570Y017732D01*
X030570Y020409D01*
D19*
X030570Y020409D03*
X032774Y019464D03*
X024034Y015291D03*
X026475Y014031D03*
X026475Y011669D03*
X025530Y011275D03*
X025530Y010724D03*
X023719Y008125D03*
X020176Y010094D03*
X016711Y010094D03*
X016711Y009543D03*
X017026Y016550D03*
X015530Y018047D03*
X015530Y018834D03*
D20*
X014979Y018283D01*
X014979Y017102D01*
X015609Y016472D01*
X015609Y010645D01*
X016711Y009543D01*
X016711Y010094D02*
X016711Y015763D01*
X015530Y016944D01*
X015530Y018047D01*
X017026Y016550D02*
X021672Y011905D01*
X021711Y011865D01*
X021199Y011354D01*
X021199Y010566D01*
X020176Y009543D01*
X018522Y009543D01*
X018474Y009529D01*
X021281Y007145D02*
X021357Y007180D01*
X022774Y007180D01*
X023719Y008125D01*
X025451Y009779D02*
X025924Y009306D01*
X037184Y009306D01*
X037971Y010094D01*
X037971Y015606D01*
X037656Y015921D01*
X037577Y015921D01*
X036790Y016708D01*
X036790Y018834D01*
X034113Y021511D01*
X028837Y021511D01*
X026633Y023716D01*
X026562Y023724D01*
X029662Y024920D02*
X029703Y024897D01*
X035373Y024897D01*
X036081Y024188D01*
X036081Y023322D01*
X035609Y022850D01*
X032144Y022850D01*
X031672Y022377D01*
X031618Y022368D01*
X030963Y021275D02*
X025215Y021275D01*
X024822Y020881D01*
X024763Y020830D01*
X026869Y018834D02*
X027420Y019385D01*
X028129Y019385D01*
X028199Y019409D01*
X028759Y020173D02*
X017499Y020173D01*
X017105Y019779D01*
X017057Y019706D01*
X022693Y019320D02*
X022696Y019306D01*
X023168Y018834D01*
X026869Y018834D01*
X028759Y020173D02*
X029388Y020802D01*
X030097Y020802D01*
X030152Y020842D01*
X030963Y021275D02*
X032774Y019464D01*
X034192Y020015D02*
X036081Y018125D01*
X036081Y017259D01*
X035215Y016393D01*
X029940Y016393D01*
X029467Y015921D01*
X029415Y015846D01*
X028680Y016393D02*
X026948Y016393D01*
X026475Y015921D01*
X026415Y015846D01*
X025215Y015291D02*
X027814Y015291D01*
X028365Y015842D01*
X028415Y015846D01*
X028680Y016393D02*
X028916Y016629D01*
X031514Y016629D01*
X032538Y017653D01*
X032562Y017724D01*
X031415Y015846D02*
X031357Y015842D01*
X030570Y015054D01*
X025058Y015054D01*
X024822Y015291D01*
X024034Y015291D01*
X024822Y015684D02*
X025215Y015291D01*
X024822Y015684D02*
X024822Y015999D01*
X025451Y016629D01*
X028522Y016629D01*
X029546Y017653D01*
X029562Y017724D01*
X034192Y020015D02*
X034192Y020802D01*
X034152Y020842D01*
X032223Y014661D02*
X031908Y014661D01*
X030727Y013480D01*
X029546Y013480D01*
X027341Y011275D01*
X025530Y011275D01*
X025530Y010724D02*
X027577Y010724D01*
X027814Y010960D01*
X027865Y010996D01*
X026475Y011669D02*
X026475Y014031D01*
X023962Y013797D02*
X023955Y013795D01*
X023640Y013795D01*
X021711Y011865D01*
X025415Y009846D02*
X025451Y009779D01*
X026140Y007602D02*
X026160Y007574D01*
X026318Y007417D01*
X026318Y006157D01*
X025924Y005763D01*
X025924Y005369D01*
X025911Y005368D01*
X029415Y009846D02*
X029467Y009858D01*
X029467Y010960D01*
X032066Y013558D01*
X032066Y014110D01*
X032073Y014172D01*
X032223Y014661D02*
X032932Y013952D01*
X032932Y011039D01*
X032965Y010996D01*
M02*
