G75*
G70*
%OFA0B0*%
%FSLAX24Y24*%
%IPPOS*%
%LPD*%
%AMOC8*
5,1,8,0,0,1.08239X$1,22.5*
%
%ADD10C,0.1458*%
%ADD11OC8,0.0600*%
%ADD12R,0.0634X0.0634*%
%ADD13C,0.0820*%
%ADD14C,0.0674*%
%ADD15C,0.1346*%
%ADD16C,0.0680*%
%ADD17C,0.0600*%
%ADD18R,0.0780X0.0780*%
%ADD19C,0.0480*%
D10*
X024337Y006776D03*
X037798Y006738D03*
X037783Y023353D03*
D11*
X035618Y022368D03*
X034152Y020842D03*
X032199Y019409D03*
X030152Y020842D03*
X028763Y020830D03*
X028199Y019409D03*
X026693Y019320D03*
X024763Y020830D03*
X022693Y019320D03*
X021057Y019706D03*
X021047Y021972D03*
X017047Y021972D03*
X017057Y019706D03*
X025891Y013971D03*
X025930Y012766D03*
X029930Y012766D03*
X031720Y012566D03*
X032073Y014172D03*
X029891Y013971D03*
X035720Y012566D03*
X036073Y014172D03*
X036290Y008709D03*
X035524Y008709D03*
X034719Y008560D03*
X030719Y008560D03*
X029014Y008582D03*
X029014Y007582D03*
X029857Y006327D03*
X029911Y005368D03*
X025911Y005368D03*
X025857Y006327D03*
X026140Y007602D03*
X026140Y008602D03*
X035524Y004709D03*
X036290Y004709D03*
X031618Y022368D03*
D12*
X032164Y007007D03*
X032164Y005407D03*
D13*
X032415Y009846D03*
X033415Y009846D03*
X034415Y009846D03*
X035415Y009846D03*
X036415Y009846D03*
X037415Y010346D03*
X037415Y011346D03*
X037415Y012346D03*
X037415Y013346D03*
X037415Y014346D03*
X037415Y015346D03*
X036415Y015846D03*
X035415Y015846D03*
X034415Y015846D03*
X033415Y015846D03*
X032415Y015846D03*
X031415Y015846D03*
X030415Y015846D03*
X029415Y015846D03*
X028415Y015846D03*
X027415Y015846D03*
X026415Y015846D03*
X025415Y015846D03*
X027865Y010996D03*
X028865Y010996D03*
X028415Y009846D03*
X029415Y009846D03*
X030415Y009846D03*
X031415Y009846D03*
X031965Y010996D03*
X032965Y010996D03*
X027415Y009846D03*
X026415Y009846D03*
X025415Y009846D03*
D14*
X037088Y019809D02*
X037681Y019809D01*
X037681Y020809D02*
X037088Y020809D01*
D15*
X015703Y007145D03*
X015703Y008995D03*
X021281Y008995D03*
X021281Y007145D03*
D16*
X028662Y024620D02*
X028662Y025220D01*
X029662Y025220D02*
X029662Y024620D01*
D17*
X037213Y018885D02*
X037733Y018885D01*
X037733Y017885D02*
X037213Y017885D01*
X037213Y016885D02*
X037733Y016885D01*
X024222Y013797D02*
X023702Y013797D01*
X023702Y012797D02*
X024222Y012797D01*
X024222Y011797D02*
X023702Y011797D01*
X018474Y009789D02*
X018474Y009269D01*
X018474Y006789D02*
X018474Y006269D01*
X019599Y005562D02*
X020119Y005562D01*
X022599Y005562D02*
X023119Y005562D01*
D18*
X023562Y017724D03*
X024562Y017724D03*
X025562Y017724D03*
X026562Y017724D03*
X027562Y017724D03*
X028562Y017724D03*
X029562Y017724D03*
X030562Y017724D03*
X031562Y017724D03*
X032562Y017724D03*
X033562Y017724D03*
X034562Y017724D03*
X035562Y017724D03*
X035562Y023724D03*
X034562Y023724D03*
X033562Y023724D03*
X032562Y023724D03*
X031562Y023724D03*
X030562Y023724D03*
X029562Y023724D03*
X028562Y023724D03*
X027562Y023724D03*
X026562Y023724D03*
X025562Y023724D03*
X024562Y023724D03*
X023562Y023724D03*
X022562Y023724D03*
X021562Y023724D03*
X020562Y023724D03*
X019562Y023724D03*
X018562Y023724D03*
X017562Y023724D03*
X016562Y023724D03*
X016562Y017724D03*
X017562Y017724D03*
X018562Y017724D03*
X019562Y017724D03*
X020562Y017724D03*
X021562Y017724D03*
X022562Y017724D03*
D19*
X024034Y015291D03*
X026475Y014031D03*
X026475Y011669D03*
X025530Y011275D03*
X025530Y010724D03*
X023719Y008125D03*
X020176Y010094D03*
X016711Y010094D03*
X016711Y009543D03*
X017026Y016550D03*
X015530Y018047D03*
X015530Y018834D03*
X030570Y020409D03*
X032774Y019464D03*
M02*
