G75*
G70*
%OFA0B0*%
%FSLAX24Y24*%
%IPPOS*%
%LPD*%
%AMOC8*
5,1,8,0,0,1.08239X$1,22.5*
%
%ADD10C,0.0000*%
%ADD11C,0.0520*%
%ADD12R,0.0315X0.0630*%
%ADD13R,0.0630X0.0315*%
%ADD14OC8,0.0520*%
%ADD15R,0.0554X0.0554*%
%ADD16C,0.0740*%
%ADD17C,0.0594*%
%ADD18C,0.1266*%
%ADD19C,0.0600*%
%ADD20C,0.0250*%
%ADD21C,0.0100*%
%ADD22C,0.0400*%
D10*
X001375Y000100D02*
X001375Y018596D01*
X031295Y018596D01*
X031295Y000100D01*
X001375Y000100D01*
X001574Y000850D02*
X001576Y000897D01*
X001582Y000943D01*
X001592Y000989D01*
X001605Y001034D01*
X001623Y001077D01*
X001644Y001119D01*
X001668Y001159D01*
X001696Y001196D01*
X001727Y001231D01*
X001761Y001264D01*
X001797Y001293D01*
X001836Y001319D01*
X001877Y001342D01*
X001920Y001361D01*
X001964Y001377D01*
X002009Y001389D01*
X002055Y001397D01*
X002102Y001401D01*
X002148Y001401D01*
X002195Y001397D01*
X002241Y001389D01*
X002286Y001377D01*
X002330Y001361D01*
X002373Y001342D01*
X002414Y001319D01*
X002453Y001293D01*
X002489Y001264D01*
X002523Y001231D01*
X002554Y001196D01*
X002582Y001159D01*
X002606Y001119D01*
X002627Y001077D01*
X002645Y001034D01*
X002658Y000989D01*
X002668Y000943D01*
X002674Y000897D01*
X002676Y000850D01*
X002674Y000803D01*
X002668Y000757D01*
X002658Y000711D01*
X002645Y000666D01*
X002627Y000623D01*
X002606Y000581D01*
X002582Y000541D01*
X002554Y000504D01*
X002523Y000469D01*
X002489Y000436D01*
X002453Y000407D01*
X002414Y000381D01*
X002373Y000358D01*
X002330Y000339D01*
X002286Y000323D01*
X002241Y000311D01*
X002195Y000303D01*
X002148Y000299D01*
X002102Y000299D01*
X002055Y000303D01*
X002009Y000311D01*
X001964Y000323D01*
X001920Y000339D01*
X001877Y000358D01*
X001836Y000381D01*
X001797Y000407D01*
X001761Y000436D01*
X001727Y000469D01*
X001696Y000504D01*
X001668Y000541D01*
X001644Y000581D01*
X001623Y000623D01*
X001605Y000666D01*
X001592Y000711D01*
X001582Y000757D01*
X001576Y000803D01*
X001574Y000850D01*
X001624Y017700D02*
X001626Y017747D01*
X001632Y017793D01*
X001642Y017839D01*
X001655Y017884D01*
X001673Y017927D01*
X001694Y017969D01*
X001718Y018009D01*
X001746Y018046D01*
X001777Y018081D01*
X001811Y018114D01*
X001847Y018143D01*
X001886Y018169D01*
X001927Y018192D01*
X001970Y018211D01*
X002014Y018227D01*
X002059Y018239D01*
X002105Y018247D01*
X002152Y018251D01*
X002198Y018251D01*
X002245Y018247D01*
X002291Y018239D01*
X002336Y018227D01*
X002380Y018211D01*
X002423Y018192D01*
X002464Y018169D01*
X002503Y018143D01*
X002539Y018114D01*
X002573Y018081D01*
X002604Y018046D01*
X002632Y018009D01*
X002656Y017969D01*
X002677Y017927D01*
X002695Y017884D01*
X002708Y017839D01*
X002718Y017793D01*
X002724Y017747D01*
X002726Y017700D01*
X002724Y017653D01*
X002718Y017607D01*
X002708Y017561D01*
X002695Y017516D01*
X002677Y017473D01*
X002656Y017431D01*
X002632Y017391D01*
X002604Y017354D01*
X002573Y017319D01*
X002539Y017286D01*
X002503Y017257D01*
X002464Y017231D01*
X002423Y017208D01*
X002380Y017189D01*
X002336Y017173D01*
X002291Y017161D01*
X002245Y017153D01*
X002198Y017149D01*
X002152Y017149D01*
X002105Y017153D01*
X002059Y017161D01*
X002014Y017173D01*
X001970Y017189D01*
X001927Y017208D01*
X001886Y017231D01*
X001847Y017257D01*
X001811Y017286D01*
X001777Y017319D01*
X001746Y017354D01*
X001718Y017391D01*
X001694Y017431D01*
X001673Y017473D01*
X001655Y017516D01*
X001642Y017561D01*
X001632Y017607D01*
X001626Y017653D01*
X001624Y017700D01*
X029224Y017700D02*
X029226Y017747D01*
X029232Y017793D01*
X029242Y017839D01*
X029255Y017884D01*
X029273Y017927D01*
X029294Y017969D01*
X029318Y018009D01*
X029346Y018046D01*
X029377Y018081D01*
X029411Y018114D01*
X029447Y018143D01*
X029486Y018169D01*
X029527Y018192D01*
X029570Y018211D01*
X029614Y018227D01*
X029659Y018239D01*
X029705Y018247D01*
X029752Y018251D01*
X029798Y018251D01*
X029845Y018247D01*
X029891Y018239D01*
X029936Y018227D01*
X029980Y018211D01*
X030023Y018192D01*
X030064Y018169D01*
X030103Y018143D01*
X030139Y018114D01*
X030173Y018081D01*
X030204Y018046D01*
X030232Y018009D01*
X030256Y017969D01*
X030277Y017927D01*
X030295Y017884D01*
X030308Y017839D01*
X030318Y017793D01*
X030324Y017747D01*
X030326Y017700D01*
X030324Y017653D01*
X030318Y017607D01*
X030308Y017561D01*
X030295Y017516D01*
X030277Y017473D01*
X030256Y017431D01*
X030232Y017391D01*
X030204Y017354D01*
X030173Y017319D01*
X030139Y017286D01*
X030103Y017257D01*
X030064Y017231D01*
X030023Y017208D01*
X029980Y017189D01*
X029936Y017173D01*
X029891Y017161D01*
X029845Y017153D01*
X029798Y017149D01*
X029752Y017149D01*
X029705Y017153D01*
X029659Y017161D01*
X029614Y017173D01*
X029570Y017189D01*
X029527Y017208D01*
X029486Y017231D01*
X029447Y017257D01*
X029411Y017286D01*
X029377Y017319D01*
X029346Y017354D01*
X029318Y017391D01*
X029294Y017431D01*
X029273Y017473D01*
X029255Y017516D01*
X029242Y017561D01*
X029232Y017607D01*
X029226Y017653D01*
X029224Y017700D01*
X029224Y000900D02*
X029226Y000947D01*
X029232Y000993D01*
X029242Y001039D01*
X029255Y001084D01*
X029273Y001127D01*
X029294Y001169D01*
X029318Y001209D01*
X029346Y001246D01*
X029377Y001281D01*
X029411Y001314D01*
X029447Y001343D01*
X029486Y001369D01*
X029527Y001392D01*
X029570Y001411D01*
X029614Y001427D01*
X029659Y001439D01*
X029705Y001447D01*
X029752Y001451D01*
X029798Y001451D01*
X029845Y001447D01*
X029891Y001439D01*
X029936Y001427D01*
X029980Y001411D01*
X030023Y001392D01*
X030064Y001369D01*
X030103Y001343D01*
X030139Y001314D01*
X030173Y001281D01*
X030204Y001246D01*
X030232Y001209D01*
X030256Y001169D01*
X030277Y001127D01*
X030295Y001084D01*
X030308Y001039D01*
X030318Y000993D01*
X030324Y000947D01*
X030326Y000900D01*
X030324Y000853D01*
X030318Y000807D01*
X030308Y000761D01*
X030295Y000716D01*
X030277Y000673D01*
X030256Y000631D01*
X030232Y000591D01*
X030204Y000554D01*
X030173Y000519D01*
X030139Y000486D01*
X030103Y000457D01*
X030064Y000431D01*
X030023Y000408D01*
X029980Y000389D01*
X029936Y000373D01*
X029891Y000361D01*
X029845Y000353D01*
X029798Y000349D01*
X029752Y000349D01*
X029705Y000353D01*
X029659Y000361D01*
X029614Y000373D01*
X029570Y000389D01*
X029527Y000408D01*
X029486Y000431D01*
X029447Y000457D01*
X029411Y000486D01*
X029377Y000519D01*
X029346Y000554D01*
X029318Y000591D01*
X029294Y000631D01*
X029273Y000673D01*
X029255Y000716D01*
X029242Y000761D01*
X029232Y000807D01*
X029226Y000853D01*
X029224Y000900D01*
D11*
X025125Y010090D02*
X025125Y010610D01*
X024125Y010610D02*
X024125Y010090D01*
X023125Y010090D02*
X023125Y010610D01*
X022125Y010610D02*
X022125Y010090D01*
X021125Y010090D02*
X021125Y010610D01*
X020125Y010610D02*
X020125Y010090D01*
X019125Y010090D02*
X019125Y010610D01*
X018125Y010610D02*
X018125Y010090D01*
X017125Y010090D02*
X017125Y010610D01*
X016125Y010610D02*
X016125Y010090D01*
X015125Y010090D02*
X015125Y010610D01*
X014125Y010610D02*
X014125Y010090D01*
X013125Y010090D02*
X013125Y010610D01*
X012125Y010610D02*
X012125Y010090D01*
X011125Y010090D02*
X011125Y010610D01*
X010125Y010610D02*
X010125Y010090D01*
X009125Y010090D02*
X009125Y010610D01*
X008125Y010610D02*
X008125Y010090D01*
X007125Y010090D02*
X007125Y010610D01*
X006125Y010610D02*
X006125Y010090D01*
X006125Y016090D02*
X006125Y016610D01*
X007125Y016610D02*
X007125Y016090D01*
X008125Y016090D02*
X008125Y016610D01*
X009125Y016610D02*
X009125Y016090D01*
X010125Y016090D02*
X010125Y016610D01*
X011125Y016610D02*
X011125Y016090D01*
X012125Y016090D02*
X012125Y016610D01*
X013125Y016610D02*
X013125Y016090D01*
X014125Y016090D02*
X014125Y016610D01*
X015125Y016610D02*
X015125Y016090D01*
X016125Y016090D02*
X016125Y016610D01*
X017125Y016610D02*
X017125Y016090D01*
X018125Y016090D02*
X018125Y016610D01*
X019125Y016610D02*
X019125Y016090D01*
X020125Y016090D02*
X020125Y016610D01*
X021125Y016610D02*
X021125Y016090D01*
X022125Y016090D02*
X022125Y016610D01*
X023125Y016610D02*
X023125Y016090D01*
X024125Y016090D02*
X024125Y016610D01*
X025125Y016610D02*
X025125Y016090D01*
D12*
X022723Y006948D03*
X022251Y006948D03*
X021779Y006948D03*
X021306Y006948D03*
X020834Y006948D03*
X020361Y006948D03*
X019889Y006948D03*
X019416Y006948D03*
X018944Y006948D03*
X018471Y006948D03*
X017999Y006948D03*
X017527Y006948D03*
X017527Y001752D03*
X017999Y001752D03*
X018471Y001752D03*
X018944Y001752D03*
X019416Y001752D03*
X019889Y001752D03*
X020361Y001752D03*
X020834Y001752D03*
X021306Y001752D03*
X021779Y001752D03*
X022251Y001752D03*
X022723Y001752D03*
D13*
X023826Y002460D03*
X023826Y003090D03*
X023826Y003720D03*
X016424Y003602D03*
X016424Y003130D03*
X016424Y002727D03*
X016424Y004074D03*
X016424Y004626D03*
X016424Y005098D03*
X016424Y005570D03*
X016424Y005973D03*
D14*
X013625Y005850D03*
X009625Y005850D03*
X008625Y004850D03*
X007625Y005850D03*
X006625Y006850D03*
X004625Y004850D03*
X003625Y005850D03*
X002625Y006850D03*
X015625Y012350D03*
X015625Y014350D03*
X019625Y014350D03*
X021125Y014850D03*
X021125Y013350D03*
X019625Y012350D03*
X025125Y013350D03*
X025125Y014850D03*
X026525Y014900D03*
X026525Y010900D03*
X026125Y008350D03*
X029125Y005850D03*
X029125Y004850D03*
X029125Y003350D03*
X029125Y002350D03*
X022125Y008350D03*
X021125Y008350D03*
X017125Y008350D03*
D15*
X029125Y014050D03*
X029125Y015650D03*
D16*
X014625Y007850D03*
X013625Y008350D03*
X012625Y008350D03*
X011625Y008350D03*
X010625Y008350D03*
X009625Y008350D03*
X008625Y008350D03*
X007625Y008350D03*
X006625Y008350D03*
X005625Y008350D03*
X004625Y008350D03*
X003625Y008350D03*
X002625Y008350D03*
X005075Y003500D03*
X006075Y003500D03*
X005625Y002350D03*
X004625Y002350D03*
X003625Y002350D03*
X002625Y002350D03*
X006625Y002350D03*
X007625Y002350D03*
X008625Y002350D03*
X009625Y002350D03*
X010625Y002350D03*
X011625Y002350D03*
X012625Y002350D03*
X013625Y002350D03*
X014625Y002850D03*
X014625Y003850D03*
X014625Y004850D03*
X014625Y005850D03*
X014625Y006850D03*
X010175Y003500D03*
X009175Y003500D03*
D17*
X026575Y017303D02*
X026575Y017897D01*
X027575Y017897D02*
X027575Y017303D01*
D18*
X029125Y010000D03*
X029125Y008150D03*
D19*
X029275Y011800D02*
X029275Y012400D01*
X030275Y012400D02*
X030275Y011800D01*
D20*
X028625Y012950D02*
X026625Y010950D01*
X026525Y010900D01*
X026625Y010750D01*
X023425Y007550D01*
X023025Y007550D01*
X022825Y007350D01*
X022825Y006950D01*
X022723Y006948D01*
X020625Y007950D02*
X020425Y007750D01*
X020625Y007950D02*
X020625Y011150D01*
X025025Y015550D01*
X025625Y015550D01*
X027425Y017350D01*
X027425Y017550D01*
X027575Y017600D01*
X025425Y017150D02*
X019825Y017150D01*
X019625Y016950D01*
X019625Y015750D01*
X019425Y015550D01*
X014825Y015550D01*
X014025Y016350D01*
X014125Y016350D01*
X019625Y014350D02*
X020025Y014750D01*
X020025Y016350D01*
X020125Y016350D01*
X021025Y013350D02*
X021125Y013350D01*
X021025Y013350D02*
X020025Y012350D01*
X020025Y010350D01*
X020125Y010350D01*
X020225Y010350D01*
X017625Y007750D01*
X017625Y006950D01*
X017527Y006948D01*
X017425Y006750D01*
X017425Y006350D01*
X017025Y005950D01*
X017025Y005550D01*
X016425Y005550D01*
X016424Y005570D01*
X017025Y005550D02*
X017025Y003350D01*
X016825Y003150D01*
X016425Y003150D01*
X016424Y003130D01*
X016225Y003150D01*
X016025Y003150D01*
X014425Y001550D01*
X013425Y001550D01*
X012625Y002350D01*
X011425Y003550D01*
X013625Y005750D01*
X013625Y005850D01*
X017999Y006948D02*
X018025Y006950D01*
X018025Y007350D01*
X020025Y009350D01*
X018225Y010350D02*
X018125Y010350D01*
X018225Y010350D02*
X018225Y010950D01*
X019625Y012350D01*
X020025Y012350D01*
X028625Y012950D02*
X028625Y014550D01*
X029025Y014950D01*
X029025Y015550D01*
X029125Y015650D01*
X020425Y006150D02*
X017225Y002950D01*
X029125Y003350D02*
X029225Y003350D01*
X029225Y004750D01*
X029125Y004850D01*
X008125Y016350D02*
X008025Y016350D01*
X007225Y016350D01*
X007125Y016350D01*
D21*
X008625Y016750D02*
X008625Y015150D01*
X002025Y008550D01*
X002025Y002950D01*
X002625Y002350D01*
X004625Y002350D02*
X006025Y000950D01*
X017425Y000950D01*
X018025Y001550D01*
X018025Y001750D01*
X017999Y001752D01*
X017625Y001950D02*
X017527Y001752D01*
X017625Y001950D02*
X017625Y002150D01*
X017825Y002350D01*
X018425Y002350D01*
X018425Y002950D01*
X019025Y002950D02*
X020825Y004750D01*
X020825Y006750D01*
X020834Y006948D01*
X021225Y006950D02*
X021306Y006948D01*
X021225Y006950D02*
X021225Y007750D01*
X021825Y007750D02*
X021825Y006950D01*
X021779Y006948D01*
X022625Y005950D02*
X019025Y002350D01*
X018425Y002350D01*
X017225Y002350D02*
X017225Y001350D01*
X017025Y001150D01*
X010825Y001150D01*
X009625Y002350D01*
X008625Y002350D02*
X008625Y003750D01*
X012225Y007350D01*
X010425Y007350D02*
X008025Y004950D01*
X004625Y004950D01*
X004625Y004850D01*
X006625Y006850D02*
X006625Y006950D01*
X006625Y008350D01*
X006225Y008950D02*
X005625Y008350D01*
X006225Y008950D02*
X017825Y008950D01*
X019025Y010150D01*
X019025Y010350D01*
X019125Y010350D01*
X017625Y010950D02*
X017625Y009350D01*
X017125Y008350D02*
X017025Y008350D01*
X016025Y007350D01*
X016025Y006350D01*
X015025Y005350D01*
X014225Y005350D01*
X012625Y003750D01*
X010825Y003950D02*
X010825Y003350D01*
X010625Y003150D01*
X010625Y002350D01*
X010825Y003950D02*
X014225Y007350D01*
X015025Y007350D01*
X015425Y007750D01*
X014225Y010350D02*
X014125Y010350D01*
X014225Y010350D02*
X017825Y013950D01*
X019825Y013950D01*
X020025Y014150D01*
X020025Y014350D01*
X021025Y015350D01*
X023825Y015350D01*
X021125Y014850D02*
X021025Y014750D01*
X021025Y014350D01*
X017625Y010950D01*
X021125Y008350D02*
X021225Y008350D01*
X021425Y008350D01*
X021825Y008750D01*
X024025Y008750D01*
X027225Y009950D02*
X029225Y011950D01*
X029275Y012100D01*
X027225Y009950D02*
X027225Y001350D01*
X026425Y000550D01*
X022625Y000550D01*
X021825Y001350D01*
X021825Y001750D01*
X021779Y001752D01*
X020625Y000950D02*
X020425Y000950D01*
X020025Y000550D01*
X018425Y000550D01*
X018025Y000950D01*
X019825Y000950D02*
X020225Y001350D01*
X020225Y001750D01*
X020361Y001752D01*
X019025Y004150D02*
X017225Y002350D01*
X009625Y005150D02*
X006825Y002350D01*
X006625Y002350D01*
X005825Y002350D02*
X005625Y002350D01*
X005825Y002350D02*
X008225Y004750D01*
X008625Y004750D01*
X008625Y004850D01*
X009625Y005150D02*
X009625Y005750D01*
X009625Y005850D01*
X007625Y005850D02*
X007625Y005950D01*
X007625Y008350D01*
X006225Y009550D02*
X005825Y009550D01*
X004625Y008350D01*
X003625Y008350D02*
X005625Y010350D01*
X005625Y010750D01*
X009825Y014950D01*
X018225Y014950D01*
X018225Y014350D02*
X016225Y014350D01*
X015825Y013950D01*
X012625Y013950D01*
X011625Y012950D01*
X008825Y012950D01*
X006625Y010750D01*
X006625Y009950D01*
X006225Y009550D01*
X007125Y010350D02*
X007225Y010350D01*
X008025Y010350D01*
X008125Y010350D01*
X009625Y015350D02*
X002625Y008350D01*
X013025Y014350D02*
X015625Y014350D01*
X016125Y016350D02*
X016225Y016350D01*
X017025Y017150D01*
X019025Y017150D01*
X019225Y017350D01*
X019225Y017750D01*
X019025Y017950D01*
X009825Y017950D01*
X008625Y016750D01*
X009625Y016750D02*
X009625Y015350D01*
X009625Y016750D02*
X010425Y017550D01*
X018825Y017550D01*
X025025Y013350D02*
X025125Y013350D01*
X025025Y013350D02*
X022625Y010950D01*
D22*
X022625Y010950D03*
X020025Y009350D03*
X017625Y009350D03*
X015425Y007750D03*
X012225Y007350D03*
X010425Y007350D03*
X012625Y003750D03*
X017225Y002950D03*
X018425Y002950D03*
X019025Y002950D03*
X019025Y004150D03*
X020425Y006150D03*
X022625Y005950D03*
X021825Y007750D03*
X021225Y007750D03*
X020425Y007750D03*
X024025Y008750D03*
X018225Y014350D03*
X018225Y014950D03*
X018825Y017550D03*
X023825Y015350D03*
X025425Y017150D03*
X013025Y014350D03*
X018025Y000950D03*
X019825Y000950D03*
X020625Y000950D03*
M02*
