G75*
G70*
%OFA0B0*%
%FSLAX24Y24*%
%IPPOS*%
%LPD*%
%AMOC8*
5,1,8,0,0,1.08239X$1,22.5*
%
%ADD10C,0.0520*%
%ADD11OC8,0.0520*%
%ADD12R,0.0554X0.0554*%
%ADD13C,0.0740*%
%ADD14C,0.0594*%
%ADD15C,0.1266*%
%ADD16C,0.0600*%
%ADD17C,0.0250*%
%ADD18C,0.0100*%
%ADD19C,0.0400*%
D10*
X006125Y010090D02*
X006125Y010610D01*
X007125Y010610D02*
X007125Y010090D01*
X008125Y010090D02*
X008125Y010610D01*
X009125Y010610D02*
X009125Y010090D01*
X010125Y010090D02*
X010125Y010610D01*
X011125Y010610D02*
X011125Y010090D01*
X012125Y010090D02*
X012125Y010610D01*
X013125Y010610D02*
X013125Y010090D01*
X014125Y010090D02*
X014125Y010610D01*
X015125Y010610D02*
X015125Y010090D01*
X016125Y010090D02*
X016125Y010610D01*
X017125Y010610D02*
X017125Y010090D01*
X018125Y010090D02*
X018125Y010610D01*
X019125Y010610D02*
X019125Y010090D01*
X020125Y010090D02*
X020125Y010610D01*
X021125Y010610D02*
X021125Y010090D01*
X022125Y010090D02*
X022125Y010610D01*
X023125Y010610D02*
X023125Y010090D01*
X024125Y010090D02*
X024125Y010610D01*
X025125Y010610D02*
X025125Y010090D01*
X025125Y016090D02*
X025125Y016610D01*
X024125Y016610D02*
X024125Y016090D01*
X023125Y016090D02*
X023125Y016610D01*
X022125Y016610D02*
X022125Y016090D01*
X021125Y016090D02*
X021125Y016610D01*
X020125Y016610D02*
X020125Y016090D01*
X019125Y016090D02*
X019125Y016610D01*
X018125Y016610D02*
X018125Y016090D01*
X017125Y016090D02*
X017125Y016610D01*
X016125Y016610D02*
X016125Y016090D01*
X015125Y016090D02*
X015125Y016610D01*
X014125Y016610D02*
X014125Y016090D01*
X013125Y016090D02*
X013125Y016610D01*
X012125Y016610D02*
X012125Y016090D01*
X011125Y016090D02*
X011125Y016610D01*
X010125Y016610D02*
X010125Y016090D01*
X009125Y016090D02*
X009125Y016610D01*
X008125Y016610D02*
X008125Y016090D01*
X007125Y016090D02*
X007125Y016610D01*
X006125Y016610D02*
X006125Y016090D01*
D11*
X015625Y014350D03*
X015625Y012350D03*
X019625Y012350D03*
X021125Y013350D03*
X019625Y014350D03*
X021125Y014850D03*
X025125Y014850D03*
X026525Y014900D03*
X025125Y013350D03*
X026525Y010900D03*
X026125Y008350D03*
X029125Y005850D03*
X029125Y004850D03*
X029125Y003350D03*
X029125Y002350D03*
X022125Y008350D03*
X021125Y008350D03*
X017125Y008350D03*
X013625Y005850D03*
X009625Y005850D03*
X008625Y004850D03*
X007625Y005850D03*
X006625Y006850D03*
X004625Y004850D03*
X003625Y005850D03*
X002625Y006850D03*
D12*
X029125Y014050D03*
X029125Y015650D03*
D13*
X002625Y002350D03*
X003625Y002350D03*
X004625Y002350D03*
X005625Y002350D03*
X006625Y002350D03*
X007625Y002350D03*
X008625Y002350D03*
X009625Y002350D03*
X010625Y002350D03*
X011625Y002350D03*
X012625Y002350D03*
X013625Y002350D03*
X014625Y002850D03*
X014625Y003850D03*
X014625Y004850D03*
X014625Y005850D03*
X014625Y006850D03*
X014625Y007850D03*
X013625Y008350D03*
X012625Y008350D03*
X011625Y008350D03*
X010625Y008350D03*
X009625Y008350D03*
X008625Y008350D03*
X007625Y008350D03*
X006625Y008350D03*
X005625Y008350D03*
X004625Y008350D03*
X003625Y008350D03*
X002625Y008350D03*
X005075Y003500D03*
X006075Y003500D03*
X009175Y003500D03*
X010175Y003500D03*
D14*
X026575Y017303D02*
X026575Y017897D01*
X027575Y017897D02*
X027575Y017303D01*
D15*
X029125Y010000D03*
X029125Y008150D03*
D16*
X029275Y011800D02*
X029275Y012400D01*
X030275Y012400D02*
X030275Y011800D01*
D17*
X030275Y012100D02*
X030225Y012150D01*
X030225Y013950D01*
X029625Y014550D01*
X028825Y014550D01*
X026625Y016750D01*
X025825Y016750D01*
X025425Y017150D01*
X026425Y017550D02*
X026575Y017600D01*
X026425Y017750D01*
X021425Y017750D01*
X020025Y016350D01*
X020125Y016350D01*
X020025Y014350D02*
X019625Y014350D01*
X020025Y014350D02*
X021025Y013350D01*
X021125Y013350D01*
X019625Y011150D02*
X017025Y013750D01*
X015425Y013750D01*
X013625Y015550D01*
X008825Y015550D01*
X008225Y016150D01*
X008225Y016350D01*
X008125Y016350D01*
X014025Y016350D02*
X014125Y016350D01*
X014025Y016350D02*
X015425Y014950D01*
X015825Y014950D01*
X017025Y013750D01*
X019625Y011150D02*
X019625Y009750D01*
X020025Y009350D01*
X018125Y010350D02*
X018025Y010350D01*
X017225Y010350D01*
X017125Y010350D01*
X020425Y007750D02*
X020425Y006150D01*
X017225Y002950D02*
X015825Y002950D01*
X014425Y001550D01*
X013625Y002350D01*
X013625Y005850D02*
X013625Y005950D01*
X013025Y005950D01*
X010625Y008350D01*
X026525Y010900D02*
X026625Y010750D01*
X028225Y009150D01*
X028225Y007550D01*
X030025Y005750D01*
X029225Y004950D01*
X029125Y004850D01*
X029125Y015650D02*
X029025Y015750D01*
X028225Y015750D01*
X026425Y017550D01*
D18*
X026625Y016350D02*
X029025Y013950D01*
X029125Y014050D01*
X029225Y012150D02*
X026625Y014750D01*
X026525Y014900D01*
X025225Y014950D02*
X025125Y014850D01*
X025225Y014950D02*
X026625Y016350D01*
X023825Y015350D02*
X028225Y010950D01*
X028225Y009750D01*
X029025Y008950D01*
X029025Y008150D01*
X029125Y008150D01*
X030025Y008350D02*
X030025Y006150D01*
X030425Y005750D01*
X030425Y002950D01*
X029425Y001950D01*
X027825Y001950D01*
X026425Y000550D01*
X021025Y000550D01*
X020625Y000950D01*
X020225Y000750D02*
X020025Y000550D01*
X005425Y000550D01*
X003625Y002350D01*
X006625Y002350D02*
X008025Y000950D01*
X018025Y000950D01*
X019825Y000950D02*
X017425Y003350D01*
X013625Y003350D01*
X008625Y008350D01*
X009625Y008950D02*
X008225Y010350D01*
X008125Y010350D01*
X009625Y008950D02*
X012625Y008950D01*
X013625Y009950D01*
X015425Y008150D01*
X015425Y007750D01*
X015025Y007350D02*
X012225Y007350D01*
X011225Y007350D02*
X013225Y005350D01*
X016025Y005350D01*
X018425Y002950D01*
X019025Y002950D02*
X019025Y002350D01*
X020225Y001150D01*
X020225Y000750D01*
X019025Y003350D02*
X015025Y007350D01*
X017625Y005550D02*
X019025Y004150D01*
X019025Y003350D02*
X022225Y006550D01*
X022225Y008350D01*
X022125Y008350D01*
X021825Y007950D02*
X021625Y008150D01*
X021625Y008950D01*
X020625Y009950D01*
X020625Y010750D01*
X015625Y015750D01*
X015625Y016750D01*
X015225Y017150D01*
X014025Y017150D01*
X013625Y016750D01*
X013625Y015950D01*
X014025Y015550D01*
X014425Y015550D01*
X015625Y014350D01*
X013025Y014350D02*
X012425Y014950D01*
X008625Y014950D01*
X008425Y015150D01*
X002025Y008750D01*
X002025Y008150D01*
X003625Y006550D01*
X003625Y005950D01*
X003625Y005850D01*
X002625Y006850D02*
X002625Y006950D01*
X002625Y007150D01*
X001825Y007950D01*
X001825Y008950D01*
X008425Y015550D01*
X008825Y015150D01*
X012825Y015150D01*
X015625Y012350D01*
X016825Y011150D01*
X018225Y011150D01*
X018625Y010750D01*
X018625Y009950D01*
X019025Y009550D01*
X019225Y009550D01*
X021025Y007750D01*
X021225Y007750D01*
X021825Y007750D02*
X021825Y007950D01*
X024025Y008750D02*
X026425Y008750D01*
X029225Y005950D01*
X029125Y005850D01*
X028625Y005950D02*
X026225Y008350D01*
X026125Y008350D01*
X029125Y010000D02*
X029225Y009950D01*
X029225Y009150D01*
X030025Y008350D01*
X028625Y005950D02*
X028625Y004550D01*
X030025Y003150D01*
X029225Y002350D01*
X029125Y002350D01*
X022625Y005950D02*
X022625Y010950D01*
X022025Y011150D02*
X018225Y014950D01*
X018225Y014350D02*
X021025Y011550D01*
X021025Y010350D01*
X021125Y010350D01*
X022025Y010350D02*
X022125Y010350D01*
X022025Y010350D02*
X022025Y011150D01*
X023025Y010350D02*
X023125Y010350D01*
X023025Y010350D02*
X023025Y012350D01*
X019625Y015750D01*
X019625Y016750D01*
X018825Y017550D01*
X029225Y012150D02*
X029275Y012100D01*
X017625Y009350D02*
X017625Y005550D01*
X012625Y003750D02*
X012025Y003750D01*
X011625Y004150D01*
X009025Y004150D01*
X007425Y002550D01*
X007625Y002350D01*
X010425Y007350D02*
X011225Y007350D01*
X013625Y009950D02*
X014025Y010350D01*
X014125Y010350D01*
D19*
X017625Y009350D03*
X020025Y009350D03*
X020425Y007750D03*
X021225Y007750D03*
X021825Y007750D03*
X024025Y008750D03*
X022625Y010950D03*
X018225Y014350D03*
X018225Y014950D03*
X018825Y017550D03*
X023825Y015350D03*
X025425Y017150D03*
X013025Y014350D03*
X015425Y007750D03*
X012225Y007350D03*
X010425Y007350D03*
X012625Y003750D03*
X017225Y002950D03*
X018425Y002950D03*
X019025Y002950D03*
X019025Y004150D03*
X020425Y006150D03*
X022625Y005950D03*
X020625Y000950D03*
X019825Y000950D03*
X018025Y000950D03*
M02*
