%
M48
M72
T01C0.0240
T02C0.0320
T03C0.0354
T04C0.0394
T05C0.0400
T06C0.0866
T07C0.1102
%
T01
X10425Y7350
X12225Y7350
X15425Y7750
X17625Y9350
X20025Y9350
X20425Y7750
X21225Y7750
X21825Y7750
X24025Y8750
X22625Y10950
X18225Y14350
X18225Y14950
X18825Y17550
X23825Y15350
X25425Y17150
X13025Y14350
X20425Y6150
X22625Y5950
X19025Y4150
X19025Y2950
X18425Y2950
X17225Y2950
X18025Y950
X19825Y950
X20625Y950
X12625Y3750
T02
X13625Y5850
X9625Y5850
X8625Y4850
X7625Y5850
X6625Y6850
X4625Y4850
X3625Y5850
X2625Y6850
X6125Y10350
X7125Y10350
X8125Y10350
X9125Y10350
X10125Y10350
X11125Y10350
X12125Y10350
X13125Y10350
X14125Y10350
X15125Y10350
X16125Y10350
X17125Y10350
X18125Y10350
X19125Y10350
X20125Y10350
X21125Y10350
X22125Y10350
X23125Y10350
X24125Y10350
X25125Y10350
X26525Y10900
X26125Y8350
X29125Y5850
X29125Y4850
X29125Y3350
X29125Y2350
X22125Y8350
X21125Y8350
X17125Y8350
X15625Y12350
X15625Y14350
X15125Y16350
X16125Y16350
X17125Y16350
X18125Y16350
X19125Y16350
X20125Y16350
X21125Y16350
X22125Y16350
X23125Y16350
X24125Y16350
X25125Y16350
X26525Y14900
X25125Y14850
X25125Y13350
X21125Y13350
X19625Y12350
X19625Y14350
X21125Y14850
X14125Y16350
X13125Y16350
X12125Y16350
X11125Y16350
X10125Y16350
X9125Y16350
X8125Y16350
X7125Y16350
X6125Y16350
T03
X29125Y15650
X29125Y14050
T04
X27575Y17600
X26575Y17600
T05
X29275Y12100
X30275Y12100
X14625Y7850
X13625Y8350
X12625Y8350
X11625Y8350
X10625Y8350
X9625Y8350
X8625Y8350
X7625Y8350
X6625Y8350
X5625Y8350
X4625Y8350
X3625Y8350
X2625Y8350
X5075Y3500
X6075Y3500
X5625Y2350
X4625Y2350
X3625Y2350
X2625Y2350
X6625Y2350
X7625Y2350
X8625Y2350
X9625Y2350
X10625Y2350
X11625Y2350
X12625Y2350
X13625Y2350
X14625Y2850
X14625Y3850
X14625Y4850
X14625Y5850
X14625Y6850
X10175Y3500
X9175Y3500
T06
X29125Y8150
X29125Y10000
T07
X2125Y850
X2175Y17700
X29775Y17700
X29775Y900
M30
