G75*
G70*
%OFA0B0*%
%FSLAX24Y24*%
%IPPOS*%
%LPD*%
%AMOC8*
5,1,8,0,0,1.08239X$1,22.5*
%
%ADD10C,0.1182*%
%ADD11C,0.0600*%
%ADD12R,0.0395X0.0710*%
%ADD13R,0.0710X0.0395*%
%ADD14OC8,0.0600*%
%ADD15R,0.0634X0.0634*%
%ADD16C,0.0820*%
%ADD17C,0.0674*%
%ADD18C,0.1346*%
%ADD19C,0.0680*%
%ADD20C,0.0480*%
D10*
X002125Y000850D03*
X002175Y017700D03*
X029775Y017700D03*
X029775Y000900D03*
D11*
X025125Y010090D02*
X025125Y010610D01*
X024125Y010610D02*
X024125Y010090D01*
X023125Y010090D02*
X023125Y010610D01*
X022125Y010610D02*
X022125Y010090D01*
X021125Y010090D02*
X021125Y010610D01*
X020125Y010610D02*
X020125Y010090D01*
X019125Y010090D02*
X019125Y010610D01*
X018125Y010610D02*
X018125Y010090D01*
X017125Y010090D02*
X017125Y010610D01*
X016125Y010610D02*
X016125Y010090D01*
X015125Y010090D02*
X015125Y010610D01*
X014125Y010610D02*
X014125Y010090D01*
X013125Y010090D02*
X013125Y010610D01*
X012125Y010610D02*
X012125Y010090D01*
X011125Y010090D02*
X011125Y010610D01*
X010125Y010610D02*
X010125Y010090D01*
X009125Y010090D02*
X009125Y010610D01*
X008125Y010610D02*
X008125Y010090D01*
X007125Y010090D02*
X007125Y010610D01*
X006125Y010610D02*
X006125Y010090D01*
X006125Y016090D02*
X006125Y016610D01*
X007125Y016610D02*
X007125Y016090D01*
X008125Y016090D02*
X008125Y016610D01*
X009125Y016610D02*
X009125Y016090D01*
X010125Y016090D02*
X010125Y016610D01*
X011125Y016610D02*
X011125Y016090D01*
X012125Y016090D02*
X012125Y016610D01*
X013125Y016610D02*
X013125Y016090D01*
X014125Y016090D02*
X014125Y016610D01*
X015125Y016610D02*
X015125Y016090D01*
X016125Y016090D02*
X016125Y016610D01*
X017125Y016610D02*
X017125Y016090D01*
X018125Y016090D02*
X018125Y016610D01*
X019125Y016610D02*
X019125Y016090D01*
X020125Y016090D02*
X020125Y016610D01*
X021125Y016610D02*
X021125Y016090D01*
X022125Y016090D02*
X022125Y016610D01*
X023125Y016610D02*
X023125Y016090D01*
X024125Y016090D02*
X024125Y016610D01*
X025125Y016610D02*
X025125Y016090D01*
D12*
X022723Y006948D03*
X022251Y006948D03*
X021779Y006948D03*
X021306Y006948D03*
X020834Y006948D03*
X020361Y006948D03*
X019889Y006948D03*
X019416Y006948D03*
X018944Y006948D03*
X018471Y006948D03*
X017999Y006948D03*
X017527Y006948D03*
X017527Y001752D03*
X017999Y001752D03*
X018471Y001752D03*
X018944Y001752D03*
X019416Y001752D03*
X019889Y001752D03*
X020361Y001752D03*
X020834Y001752D03*
X021306Y001752D03*
X021779Y001752D03*
X022251Y001752D03*
X022723Y001752D03*
D13*
X023826Y002460D03*
X023826Y003090D03*
X023826Y003720D03*
X016424Y003602D03*
X016424Y003130D03*
X016424Y002727D03*
X016424Y004074D03*
X016424Y004626D03*
X016424Y005098D03*
X016424Y005570D03*
X016424Y005973D03*
D14*
X013625Y005850D03*
X009625Y005850D03*
X008625Y004850D03*
X007625Y005850D03*
X006625Y006850D03*
X004625Y004850D03*
X003625Y005850D03*
X002625Y006850D03*
X015625Y012350D03*
X015625Y014350D03*
X019625Y014350D03*
X021125Y014850D03*
X021125Y013350D03*
X019625Y012350D03*
X025125Y013350D03*
X025125Y014850D03*
X026525Y014900D03*
X026525Y010900D03*
X026125Y008350D03*
X029125Y005850D03*
X029125Y004850D03*
X029125Y003350D03*
X029125Y002350D03*
X022125Y008350D03*
X021125Y008350D03*
X017125Y008350D03*
D15*
X029125Y014050D03*
X029125Y015650D03*
D16*
X014625Y007850D03*
X013625Y008350D03*
X012625Y008350D03*
X011625Y008350D03*
X010625Y008350D03*
X009625Y008350D03*
X008625Y008350D03*
X007625Y008350D03*
X006625Y008350D03*
X005625Y008350D03*
X004625Y008350D03*
X003625Y008350D03*
X002625Y008350D03*
X005075Y003500D03*
X006075Y003500D03*
X005625Y002350D03*
X004625Y002350D03*
X003625Y002350D03*
X002625Y002350D03*
X006625Y002350D03*
X007625Y002350D03*
X008625Y002350D03*
X009625Y002350D03*
X010625Y002350D03*
X011625Y002350D03*
X012625Y002350D03*
X013625Y002350D03*
X014625Y002850D03*
X014625Y003850D03*
X014625Y004850D03*
X014625Y005850D03*
X014625Y006850D03*
X010175Y003500D03*
X009175Y003500D03*
D17*
X026575Y017303D02*
X026575Y017897D01*
X027575Y017897D02*
X027575Y017303D01*
D18*
X029125Y010000D03*
X029125Y008150D03*
D19*
X029275Y011800D02*
X029275Y012400D01*
X030275Y012400D02*
X030275Y011800D01*
D20*
X024025Y008750D03*
X021825Y007750D03*
X021225Y007750D03*
X020425Y007750D03*
X020025Y009350D03*
X017625Y009350D03*
X015425Y007750D03*
X012225Y007350D03*
X010425Y007350D03*
X012625Y003750D03*
X017225Y002950D03*
X018425Y002950D03*
X019025Y002950D03*
X019025Y004150D03*
X020425Y006150D03*
X022625Y005950D03*
X022625Y010950D03*
X018225Y014350D03*
X018225Y014950D03*
X018825Y017550D03*
X023825Y015350D03*
X025425Y017150D03*
X013025Y014350D03*
X018025Y000950D03*
X019825Y000950D03*
X020625Y000950D03*
M02*
