%
M48
M72
T01C0.0240
T02C0.0320
T03C0.0354
T04C0.0394
T05C0.0400
T06C0.0433
T07C0.0866
T08C0.1378
%
T01
X16711Y10094
X17262Y10094
X20412Y10094
X22538Y10960
X24034Y9779
X23010Y9543
X25688Y8125
X17656Y7889
X25845Y14582
X30412Y16550
X31751Y16629
X30727Y20802
X18444Y16550
X17105Y17102
X15530Y18440
X16003Y18676
X14507Y17338
X16633Y20566
T02
X17845Y19706
X17835Y21579
X21835Y21579
X23975Y21617
X23974Y19766
X21845Y19706
X27974Y19766
X30168Y19409
X30152Y20842
X31618Y22368
X34152Y20842
X34168Y19409
X37473Y18885
X37473Y17885
X37473Y16885
X36073Y14566
X35720Y12959
X32073Y14566
X29891Y13971
X31720Y12959
X29930Y12766
X25930Y12766
X23962Y12797
X23962Y11797
X23962Y13797
X25891Y13971
X18474Y9529
X18474Y6529
X19859Y5562
X22859Y5562
X25911Y5368
X25857Y6327
X26140Y7602
X26140Y8602
X29014Y8582
X30445Y8560
X29014Y7582
X29857Y6327
X29911Y5368
X34873Y5763
X35873Y5763
X36306Y7932
X35306Y7932
X34445Y8560
X27975Y21617
X35618Y22368
T03
X32164Y7007
X32164Y5407
T04
X37385Y19809
X37385Y20809
T05
X36415Y15846
X35415Y15846
X34415Y15846
X33415Y15846
X32415Y15846
X31415Y15846
X30415Y15846
X29415Y15846
X28415Y15846
X27415Y15846
X26415Y15846
X25415Y15846
X27865Y10996
X28865Y10996
X28415Y9846
X29415Y9846
X30415Y9846
X31415Y9846
X32415Y9846
X33415Y9846
X34415Y9846
X35415Y9846
X36415Y9846
X37415Y10346
X37415Y11346
X37415Y12346
X37415Y13346
X37415Y14346
X37415Y15346
X32965Y10996
X31965Y10996
X27415Y9846
X26415Y9846
X25415Y9846
X27665Y24960
X28665Y24960
T06
X28562Y23724
X29562Y23724
X30562Y23724
X31562Y23724
X32562Y23724
X33562Y23724
X34562Y23724
X35562Y23724
X27562Y23724
X26562Y23724
X25562Y23724
X24562Y23724
X23562Y23724
X22562Y23724
X21562Y23724
X20562Y23724
X19562Y23724
X18562Y23724
X17562Y23724
X16562Y23724
X16562Y17724
X17562Y17724
X18562Y17724
X19562Y17724
X20562Y17724
X21562Y17724
X22562Y17724
X23562Y17724
X24562Y17724
X25562Y17724
X26562Y17724
X27562Y17724
X28562Y17724
X29562Y17724
X30562Y17724
X31562Y17724
X32562Y17724
X33562Y17724
X34562Y17724
X35562Y17724
T07
X15703Y7145
X15703Y8995
X21281Y8995
X21281Y7145
T08
X24337Y6776
X37798Y6738
X37783Y23353
M30
