G75*
G70*
%OFA0B0*%
%FSLAX24Y24*%
%IPPOS*%
%LPD*%
%AMOC8*
5,1,8,0,0,1.08239X$1,22.5*
%
%ADD10C,0.0000*%
%ADD11R,0.0315X0.0630*%
%ADD12R,0.0630X0.0315*%
%ADD13OC8,0.0520*%
%ADD14R,0.0554X0.0554*%
%ADD15C,0.0740*%
%ADD16C,0.0594*%
%ADD17C,0.1266*%
%ADD18C,0.0600*%
%ADD19C,0.0520*%
%ADD20R,0.0700X0.0700*%
%ADD21C,0.0250*%
%ADD22C,0.0400*%
%ADD23C,0.0150*%
D10*
X011768Y005535D02*
X011769Y024503D01*
X018514Y024503D01*
X018513Y025933D01*
X038782Y025952D01*
X038783Y004043D01*
X018483Y004054D01*
X018483Y005564D01*
X011768Y005535D01*
X023648Y006776D02*
X023650Y006828D01*
X023656Y006880D01*
X023666Y006931D01*
X023679Y006981D01*
X023697Y007031D01*
X023718Y007078D01*
X023742Y007124D01*
X023771Y007168D01*
X023802Y007210D01*
X023836Y007249D01*
X023873Y007286D01*
X023913Y007319D01*
X023956Y007350D01*
X024000Y007377D01*
X024046Y007401D01*
X024095Y007421D01*
X024144Y007437D01*
X024195Y007450D01*
X024246Y007459D01*
X024298Y007464D01*
X024350Y007465D01*
X024402Y007462D01*
X024454Y007455D01*
X024505Y007444D01*
X024555Y007430D01*
X024604Y007411D01*
X024651Y007389D01*
X024696Y007364D01*
X024740Y007335D01*
X024781Y007303D01*
X024820Y007268D01*
X024855Y007230D01*
X024888Y007189D01*
X024918Y007147D01*
X024944Y007102D01*
X024967Y007055D01*
X024986Y007006D01*
X025002Y006956D01*
X025014Y006906D01*
X025022Y006854D01*
X025026Y006802D01*
X025026Y006750D01*
X025022Y006698D01*
X025014Y006646D01*
X025002Y006596D01*
X024986Y006546D01*
X024967Y006497D01*
X024944Y006450D01*
X024918Y006405D01*
X024888Y006363D01*
X024855Y006322D01*
X024820Y006284D01*
X024781Y006249D01*
X024740Y006217D01*
X024696Y006188D01*
X024651Y006163D01*
X024604Y006141D01*
X024555Y006122D01*
X024505Y006108D01*
X024454Y006097D01*
X024402Y006090D01*
X024350Y006087D01*
X024298Y006088D01*
X024246Y006093D01*
X024195Y006102D01*
X024144Y006115D01*
X024095Y006131D01*
X024046Y006151D01*
X024000Y006175D01*
X023956Y006202D01*
X023913Y006233D01*
X023873Y006266D01*
X023836Y006303D01*
X023802Y006342D01*
X023771Y006384D01*
X023742Y006428D01*
X023718Y006474D01*
X023697Y006521D01*
X023679Y006571D01*
X023666Y006621D01*
X023656Y006672D01*
X023650Y006724D01*
X023648Y006776D01*
X037109Y006738D02*
X037111Y006790D01*
X037117Y006842D01*
X037127Y006893D01*
X037140Y006943D01*
X037158Y006993D01*
X037179Y007040D01*
X037203Y007086D01*
X037232Y007130D01*
X037263Y007172D01*
X037297Y007211D01*
X037334Y007248D01*
X037374Y007281D01*
X037417Y007312D01*
X037461Y007339D01*
X037507Y007363D01*
X037556Y007383D01*
X037605Y007399D01*
X037656Y007412D01*
X037707Y007421D01*
X037759Y007426D01*
X037811Y007427D01*
X037863Y007424D01*
X037915Y007417D01*
X037966Y007406D01*
X038016Y007392D01*
X038065Y007373D01*
X038112Y007351D01*
X038157Y007326D01*
X038201Y007297D01*
X038242Y007265D01*
X038281Y007230D01*
X038316Y007192D01*
X038349Y007151D01*
X038379Y007109D01*
X038405Y007064D01*
X038428Y007017D01*
X038447Y006968D01*
X038463Y006918D01*
X038475Y006868D01*
X038483Y006816D01*
X038487Y006764D01*
X038487Y006712D01*
X038483Y006660D01*
X038475Y006608D01*
X038463Y006558D01*
X038447Y006508D01*
X038428Y006459D01*
X038405Y006412D01*
X038379Y006367D01*
X038349Y006325D01*
X038316Y006284D01*
X038281Y006246D01*
X038242Y006211D01*
X038201Y006179D01*
X038157Y006150D01*
X038112Y006125D01*
X038065Y006103D01*
X038016Y006084D01*
X037966Y006070D01*
X037915Y006059D01*
X037863Y006052D01*
X037811Y006049D01*
X037759Y006050D01*
X037707Y006055D01*
X037656Y006064D01*
X037605Y006077D01*
X037556Y006093D01*
X037507Y006113D01*
X037461Y006137D01*
X037417Y006164D01*
X037374Y006195D01*
X037334Y006228D01*
X037297Y006265D01*
X037263Y006304D01*
X037232Y006346D01*
X037203Y006390D01*
X037179Y006436D01*
X037158Y006483D01*
X037140Y006533D01*
X037127Y006583D01*
X037117Y006634D01*
X037111Y006686D01*
X037109Y006738D01*
X037094Y023353D02*
X037096Y023405D01*
X037102Y023457D01*
X037112Y023508D01*
X037125Y023558D01*
X037143Y023608D01*
X037164Y023655D01*
X037188Y023701D01*
X037217Y023745D01*
X037248Y023787D01*
X037282Y023826D01*
X037319Y023863D01*
X037359Y023896D01*
X037402Y023927D01*
X037446Y023954D01*
X037492Y023978D01*
X037541Y023998D01*
X037590Y024014D01*
X037641Y024027D01*
X037692Y024036D01*
X037744Y024041D01*
X037796Y024042D01*
X037848Y024039D01*
X037900Y024032D01*
X037951Y024021D01*
X038001Y024007D01*
X038050Y023988D01*
X038097Y023966D01*
X038142Y023941D01*
X038186Y023912D01*
X038227Y023880D01*
X038266Y023845D01*
X038301Y023807D01*
X038334Y023766D01*
X038364Y023724D01*
X038390Y023679D01*
X038413Y023632D01*
X038432Y023583D01*
X038448Y023533D01*
X038460Y023483D01*
X038468Y023431D01*
X038472Y023379D01*
X038472Y023327D01*
X038468Y023275D01*
X038460Y023223D01*
X038448Y023173D01*
X038432Y023123D01*
X038413Y023074D01*
X038390Y023027D01*
X038364Y022982D01*
X038334Y022940D01*
X038301Y022899D01*
X038266Y022861D01*
X038227Y022826D01*
X038186Y022794D01*
X038142Y022765D01*
X038097Y022740D01*
X038050Y022718D01*
X038001Y022699D01*
X037951Y022685D01*
X037900Y022674D01*
X037848Y022667D01*
X037796Y022664D01*
X037744Y022665D01*
X037692Y022670D01*
X037641Y022679D01*
X037590Y022692D01*
X037541Y022708D01*
X037492Y022728D01*
X037446Y022752D01*
X037402Y022779D01*
X037359Y022810D01*
X037319Y022843D01*
X037282Y022880D01*
X037248Y022919D01*
X037217Y022961D01*
X037188Y023005D01*
X037164Y023051D01*
X037143Y023098D01*
X037125Y023148D01*
X037112Y023198D01*
X037102Y023249D01*
X037096Y023301D01*
X037094Y023353D01*
D11*
X020957Y015939D03*
X020485Y015939D03*
X020012Y015939D03*
X019540Y015939D03*
X019068Y015939D03*
X018595Y015939D03*
X018123Y015939D03*
X017650Y015939D03*
X017178Y015939D03*
X016705Y015939D03*
X016233Y015939D03*
X015761Y015939D03*
X015761Y010742D03*
X016233Y010742D03*
X016705Y010742D03*
X017178Y010742D03*
X017650Y010742D03*
X018123Y010742D03*
X018595Y010742D03*
X019068Y010742D03*
X019540Y010742D03*
X020012Y010742D03*
X020485Y010742D03*
X020957Y010742D03*
D12*
X022060Y011718D03*
X022060Y012120D03*
X022060Y012593D03*
X022060Y013065D03*
X022060Y013616D03*
X022060Y014089D03*
X022060Y014561D03*
X022060Y014964D03*
X014658Y015230D03*
X014658Y014600D03*
X014658Y013971D03*
D13*
X022693Y019320D03*
X021057Y019706D03*
X021047Y021972D03*
X024763Y020830D03*
X026693Y019320D03*
X028199Y019409D03*
X028763Y020830D03*
X030152Y020842D03*
X031618Y022368D03*
X034152Y020842D03*
X035618Y022368D03*
X032199Y019409D03*
X032073Y014172D03*
X031720Y012566D03*
X029930Y012766D03*
X029891Y013971D03*
X025891Y013971D03*
X025930Y012766D03*
X026140Y008602D03*
X026140Y007602D03*
X025857Y006327D03*
X025911Y005368D03*
X029014Y007582D03*
X029014Y008582D03*
X030719Y008560D03*
X029857Y006327D03*
X029911Y005368D03*
X035524Y004709D03*
X036290Y004709D03*
X036290Y008709D03*
X035524Y008709D03*
X034719Y008560D03*
X035720Y012566D03*
X036073Y014172D03*
X017057Y019706D03*
X017047Y021972D03*
D14*
X032164Y007007D03*
X032164Y005407D03*
D15*
X032415Y009846D03*
X033415Y009846D03*
X034415Y009846D03*
X035415Y009846D03*
X036415Y009846D03*
X037415Y010346D03*
X037415Y011346D03*
X037415Y012346D03*
X037415Y013346D03*
X037415Y014346D03*
X037415Y015346D03*
X036415Y015846D03*
X035415Y015846D03*
X034415Y015846D03*
X033415Y015846D03*
X032415Y015846D03*
X031415Y015846D03*
X030415Y015846D03*
X029415Y015846D03*
X028415Y015846D03*
X027415Y015846D03*
X026415Y015846D03*
X025415Y015846D03*
X027865Y010996D03*
X028865Y010996D03*
X028415Y009846D03*
X029415Y009846D03*
X030415Y009846D03*
X031415Y009846D03*
X031965Y010996D03*
X032965Y010996D03*
X027415Y009846D03*
X026415Y009846D03*
X025415Y009846D03*
D16*
X037088Y019809D02*
X037681Y019809D01*
X037681Y020809D02*
X037088Y020809D01*
D17*
X021281Y008995D03*
X021281Y007145D03*
X015703Y007145D03*
X015703Y008995D03*
D18*
X028662Y024620D02*
X028662Y025220D01*
X029662Y025220D02*
X029662Y024620D01*
D19*
X037213Y018885D02*
X037733Y018885D01*
X037733Y017885D02*
X037213Y017885D01*
X037213Y016885D02*
X037733Y016885D01*
X024222Y013797D02*
X023702Y013797D01*
X023702Y012797D02*
X024222Y012797D01*
X024222Y011797D02*
X023702Y011797D01*
X018474Y009789D02*
X018474Y009269D01*
X018474Y006789D02*
X018474Y006269D01*
X019599Y005562D02*
X020119Y005562D01*
X022599Y005562D02*
X023119Y005562D01*
D20*
X023562Y017724D03*
X024562Y017724D03*
X025562Y017724D03*
X026562Y017724D03*
X027562Y017724D03*
X028562Y017724D03*
X029562Y017724D03*
X030562Y017724D03*
X031562Y017724D03*
X032562Y017724D03*
X033562Y017724D03*
X034562Y017724D03*
X035562Y017724D03*
X035562Y023724D03*
X034562Y023724D03*
X033562Y023724D03*
X032562Y023724D03*
X031562Y023724D03*
X030562Y023724D03*
X029562Y023724D03*
X028562Y023724D03*
X027562Y023724D03*
X026562Y023724D03*
X025562Y023724D03*
X024562Y023724D03*
X023562Y023724D03*
X022562Y023724D03*
X021562Y023724D03*
X020562Y023724D03*
X019562Y023724D03*
X018562Y023724D03*
X017562Y023724D03*
X016562Y023724D03*
X016562Y017724D03*
X017562Y017724D03*
X018562Y017724D03*
X019562Y017724D03*
X020562Y017724D03*
X021562Y017724D03*
X022562Y017724D03*
D21*
X018562Y017724D02*
X018522Y017732D01*
X017577Y017732D01*
X017562Y017724D01*
X021987Y014503D02*
X022060Y014561D01*
X021987Y014503D02*
X021672Y014503D01*
X021514Y014346D01*
X021514Y012141D01*
X021593Y012062D01*
X020963Y011432D01*
X020963Y011275D01*
X016003Y011275D01*
X015845Y011117D01*
X015845Y010802D01*
X015761Y010742D01*
X015766Y010724D01*
X015766Y009070D01*
X015703Y008995D01*
X020176Y010094D02*
X020412Y010330D01*
X020412Y010724D01*
X020485Y010742D01*
X020957Y010742D02*
X020963Y010802D01*
X020963Y011275D01*
X021593Y012062D02*
X021672Y012141D01*
X021987Y012141D01*
X022060Y012120D01*
X022144Y012141D01*
X022459Y012141D01*
X022774Y011826D01*
X023955Y011826D01*
X023962Y011797D01*
X029891Y013971D02*
X029940Y014031D01*
X031199Y014031D01*
X032381Y015212D01*
X032774Y015212D01*
X033404Y015842D01*
X033415Y015846D01*
X033562Y015842D01*
X034192Y016472D01*
X035766Y016472D01*
X036711Y017417D01*
X037971Y017417D01*
X038207Y017653D01*
X038207Y020094D01*
X037499Y020802D01*
X037385Y020809D01*
X037341Y020881D01*
X035924Y022299D01*
X035688Y022299D01*
X035618Y022368D01*
X035530Y022456D01*
X035136Y022850D01*
X032932Y022850D01*
X032932Y022771D01*
X031357Y020409D01*
X030333Y019936D02*
X037262Y019936D01*
X037341Y019858D01*
X037385Y019809D01*
X037420Y019700D01*
X037420Y018913D01*
X037473Y018885D01*
X037473Y016885D02*
X037499Y016865D01*
X037499Y016078D01*
X038050Y015527D01*
X038050Y010094D01*
X037656Y009700D01*
X036475Y009700D01*
X036415Y009846D01*
X036396Y009779D01*
X036318Y009700D01*
X036318Y008755D01*
X036290Y008709D01*
X035524Y008709D02*
X035451Y008755D01*
X035451Y009070D01*
X034270Y009070D01*
X032223Y007023D01*
X032164Y007007D01*
X035451Y009070D02*
X035451Y009779D01*
X035415Y009846D01*
X035451Y009936D01*
X036239Y010724D01*
X036239Y012771D01*
X036160Y012850D01*
X036160Y014110D01*
X036073Y014172D01*
X036003Y014188D01*
X035058Y014188D01*
X033483Y015763D01*
X033415Y015846D01*
X030562Y017724D02*
X029940Y017102D01*
X029152Y017102D01*
X028601Y017653D01*
X028562Y017724D01*
X028522Y017732D01*
X027656Y017732D01*
X027562Y017724D01*
X027577Y017732D01*
X026711Y018598D01*
X026711Y019306D01*
X026693Y019320D01*
X028763Y020830D02*
X028837Y020802D01*
X029467Y020802D01*
X030333Y019936D01*
X031436Y022850D02*
X032932Y022850D01*
X031436Y022850D02*
X030562Y023724D01*
X028662Y024920D02*
X028601Y024897D01*
X025688Y024897D01*
X024585Y023795D01*
X024562Y023724D01*
X024507Y023873D01*
X024034Y024346D01*
X019152Y024346D01*
X018601Y023795D01*
X018562Y023724D01*
D22*
X015530Y018834D03*
X015530Y018047D03*
X017026Y016550D03*
X024034Y015291D03*
X028050Y014031D03*
X026475Y011669D03*
X025530Y011275D03*
X025530Y010724D03*
X023719Y008125D03*
X020176Y010094D03*
X016711Y010094D03*
X016711Y009543D03*
X033562Y019464D03*
X031357Y020409D03*
D23*
X032199Y019409D02*
X032223Y019385D01*
X033325Y018283D01*
X035924Y018283D01*
X036081Y018125D01*
X036081Y017259D01*
X035609Y016787D01*
X031357Y016787D01*
X030491Y015921D01*
X030415Y015846D01*
X030255Y016393D02*
X027892Y016393D01*
X027420Y015921D01*
X027415Y015846D01*
X026711Y014818D02*
X025354Y014857D01*
X023622Y016747D01*
X020963Y016708D01*
X020491Y016236D01*
X020491Y015999D01*
X020485Y015939D01*
X020957Y015939D02*
X020963Y015999D01*
X020963Y016157D01*
X021278Y016472D01*
X023404Y016472D01*
X025845Y014031D01*
X025891Y013971D01*
X025924Y013952D01*
X026396Y013480D01*
X029861Y013480D01*
X030727Y012613D01*
X031672Y012613D01*
X031720Y012566D01*
X030255Y012692D02*
X031908Y011039D01*
X031965Y010996D01*
X033168Y010409D02*
X028995Y010409D01*
X028444Y009858D01*
X028415Y009846D01*
X029388Y009779D02*
X029415Y009846D01*
X029388Y009779D02*
X027735Y008125D01*
X023719Y008125D01*
X023168Y008362D02*
X025530Y010724D01*
X025530Y011275D02*
X022932Y008676D01*
X022932Y005606D01*
X022859Y005562D01*
X023168Y006236D02*
X023168Y008362D01*
X021908Y008204D02*
X025373Y011669D01*
X025688Y011669D01*
X026396Y010960D01*
X026396Y009858D01*
X026415Y009846D01*
X027341Y009858D02*
X027341Y010409D01*
X026475Y011275D01*
X026475Y011669D01*
X025930Y012766D02*
X025924Y012771D01*
X024034Y012771D01*
X023962Y012797D01*
X026711Y014031D02*
X026711Y014818D01*
X026711Y014031D02*
X028050Y014031D01*
X029930Y012766D02*
X029940Y012692D01*
X030255Y012692D01*
X033168Y010409D02*
X035294Y012535D01*
X035688Y012535D01*
X035720Y012566D01*
X032415Y009846D02*
X032381Y009779D01*
X031199Y008598D01*
X030727Y008598D01*
X030719Y008560D01*
X030333Y008283D02*
X030255Y008362D01*
X030255Y008755D01*
X031357Y009858D01*
X031415Y009846D01*
X030415Y009846D02*
X030412Y009779D01*
X029861Y009228D01*
X029861Y006393D01*
X029857Y006327D01*
X030333Y006157D02*
X030333Y008283D01*
X029014Y007582D02*
X028995Y007574D01*
X027814Y006393D01*
X025924Y006393D01*
X025857Y006327D01*
X024664Y004739D02*
X023168Y006236D01*
X024664Y004739D02*
X035451Y004739D01*
X035524Y004709D01*
X035530Y004739D01*
X036239Y004739D01*
X036290Y004709D01*
X034664Y007889D02*
X032223Y005448D01*
X032164Y005407D01*
X030333Y006157D02*
X029940Y005763D01*
X029940Y005369D01*
X029911Y005368D01*
X034664Y007889D02*
X034664Y008519D01*
X034719Y008560D01*
X027415Y009846D02*
X027341Y009858D01*
X021908Y008204D02*
X018916Y008204D01*
X017656Y009464D01*
X017656Y010724D01*
X017650Y010742D01*
X017178Y010742D02*
X017105Y010724D01*
X017105Y009936D01*
X016711Y009543D01*
X016711Y010094D02*
X016711Y010724D01*
X016705Y010742D01*
X015703Y007145D02*
X015766Y007102D01*
X016318Y006550D01*
X018444Y006550D01*
X018474Y006529D01*
X018522Y006472D01*
X018916Y006472D01*
X019782Y005606D01*
X019859Y005562D01*
X018522Y015291D02*
X024034Y015291D01*
X025373Y015921D02*
X025415Y015846D01*
X025373Y015921D02*
X024270Y017023D01*
X016318Y017023D01*
X016003Y017338D01*
X016003Y018125D01*
X016160Y018283D01*
X022302Y018283D01*
X023798Y019779D01*
X026869Y019779D01*
X027656Y018991D01*
X032223Y018991D01*
X033483Y017732D01*
X033562Y017724D01*
X031562Y017724D02*
X031514Y017653D01*
X030255Y016393D01*
X033562Y019464D02*
X035136Y019464D01*
X036711Y017889D01*
X037420Y017889D01*
X037473Y017885D01*
X031618Y022368D02*
X031593Y022377D01*
X031514Y022456D01*
X016869Y022456D01*
X014743Y020330D01*
X014743Y017810D01*
X016003Y016550D01*
X016318Y016550D01*
X016633Y016236D01*
X016633Y015999D01*
X016705Y015939D01*
X017026Y016550D02*
X016790Y016787D01*
X016160Y016787D01*
X014979Y017968D01*
X014979Y018834D01*
X017026Y020881D01*
X017026Y021905D01*
X017047Y021972D01*
X017057Y019706D02*
X017026Y019700D01*
X016790Y019700D01*
X015924Y018834D01*
X015530Y018834D01*
X015530Y018047D02*
X016711Y019228D01*
X022538Y019228D01*
X022617Y019306D01*
X022693Y019320D01*
X024763Y020830D02*
X024743Y020881D01*
X023719Y021905D01*
X021121Y021905D01*
X021047Y021972D01*
X018123Y015939D02*
X018129Y015921D01*
X018129Y015684D01*
X018522Y015291D01*
M02*
