G75*
G70*
%OFA0B0*%
%FSLAX24Y24*%
%IPPOS*%
%LPD*%
%AMOC8*
5,1,8,0,0,1.08239X$1,22.5*
%
%ADD10C,0.0000*%
%ADD11R,0.0315X0.0630*%
%ADD12R,0.0630X0.0315*%
%ADD13OC8,0.0520*%
%ADD14R,0.0554X0.0554*%
%ADD15C,0.0740*%
%ADD16C,0.0594*%
%ADD17C,0.1266*%
%ADD18C,0.0520*%
%ADD19R,0.0700X0.0700*%
%ADD20C,0.0250*%
%ADD21C,0.0150*%
%ADD22C,0.0400*%
D10*
X011813Y005530D02*
X011769Y024503D01*
X018514Y024503D01*
X018513Y025933D01*
X038782Y025952D01*
X038783Y004043D01*
X018483Y004054D01*
X018483Y005564D01*
X011813Y005530D01*
X023648Y006776D02*
X023650Y006828D01*
X023656Y006880D01*
X023666Y006931D01*
X023679Y006981D01*
X023697Y007031D01*
X023718Y007078D01*
X023742Y007124D01*
X023771Y007168D01*
X023802Y007210D01*
X023836Y007249D01*
X023873Y007286D01*
X023913Y007319D01*
X023956Y007350D01*
X024000Y007377D01*
X024046Y007401D01*
X024095Y007421D01*
X024144Y007437D01*
X024195Y007450D01*
X024246Y007459D01*
X024298Y007464D01*
X024350Y007465D01*
X024402Y007462D01*
X024454Y007455D01*
X024505Y007444D01*
X024555Y007430D01*
X024604Y007411D01*
X024651Y007389D01*
X024696Y007364D01*
X024740Y007335D01*
X024781Y007303D01*
X024820Y007268D01*
X024855Y007230D01*
X024888Y007189D01*
X024918Y007147D01*
X024944Y007102D01*
X024967Y007055D01*
X024986Y007006D01*
X025002Y006956D01*
X025014Y006906D01*
X025022Y006854D01*
X025026Y006802D01*
X025026Y006750D01*
X025022Y006698D01*
X025014Y006646D01*
X025002Y006596D01*
X024986Y006546D01*
X024967Y006497D01*
X024944Y006450D01*
X024918Y006405D01*
X024888Y006363D01*
X024855Y006322D01*
X024820Y006284D01*
X024781Y006249D01*
X024740Y006217D01*
X024696Y006188D01*
X024651Y006163D01*
X024604Y006141D01*
X024555Y006122D01*
X024505Y006108D01*
X024454Y006097D01*
X024402Y006090D01*
X024350Y006087D01*
X024298Y006088D01*
X024246Y006093D01*
X024195Y006102D01*
X024144Y006115D01*
X024095Y006131D01*
X024046Y006151D01*
X024000Y006175D01*
X023956Y006202D01*
X023913Y006233D01*
X023873Y006266D01*
X023836Y006303D01*
X023802Y006342D01*
X023771Y006384D01*
X023742Y006428D01*
X023718Y006474D01*
X023697Y006521D01*
X023679Y006571D01*
X023666Y006621D01*
X023656Y006672D01*
X023650Y006724D01*
X023648Y006776D01*
X037109Y006738D02*
X037111Y006790D01*
X037117Y006842D01*
X037127Y006893D01*
X037140Y006943D01*
X037158Y006993D01*
X037179Y007040D01*
X037203Y007086D01*
X037232Y007130D01*
X037263Y007172D01*
X037297Y007211D01*
X037334Y007248D01*
X037374Y007281D01*
X037417Y007312D01*
X037461Y007339D01*
X037507Y007363D01*
X037556Y007383D01*
X037605Y007399D01*
X037656Y007412D01*
X037707Y007421D01*
X037759Y007426D01*
X037811Y007427D01*
X037863Y007424D01*
X037915Y007417D01*
X037966Y007406D01*
X038016Y007392D01*
X038065Y007373D01*
X038112Y007351D01*
X038157Y007326D01*
X038201Y007297D01*
X038242Y007265D01*
X038281Y007230D01*
X038316Y007192D01*
X038349Y007151D01*
X038379Y007109D01*
X038405Y007064D01*
X038428Y007017D01*
X038447Y006968D01*
X038463Y006918D01*
X038475Y006868D01*
X038483Y006816D01*
X038487Y006764D01*
X038487Y006712D01*
X038483Y006660D01*
X038475Y006608D01*
X038463Y006558D01*
X038447Y006508D01*
X038428Y006459D01*
X038405Y006412D01*
X038379Y006367D01*
X038349Y006325D01*
X038316Y006284D01*
X038281Y006246D01*
X038242Y006211D01*
X038201Y006179D01*
X038157Y006150D01*
X038112Y006125D01*
X038065Y006103D01*
X038016Y006084D01*
X037966Y006070D01*
X037915Y006059D01*
X037863Y006052D01*
X037811Y006049D01*
X037759Y006050D01*
X037707Y006055D01*
X037656Y006064D01*
X037605Y006077D01*
X037556Y006093D01*
X037507Y006113D01*
X037461Y006137D01*
X037417Y006164D01*
X037374Y006195D01*
X037334Y006228D01*
X037297Y006265D01*
X037263Y006304D01*
X037232Y006346D01*
X037203Y006390D01*
X037179Y006436D01*
X037158Y006483D01*
X037140Y006533D01*
X037127Y006583D01*
X037117Y006634D01*
X037111Y006686D01*
X037109Y006738D01*
X037094Y023353D02*
X037096Y023405D01*
X037102Y023457D01*
X037112Y023508D01*
X037125Y023558D01*
X037143Y023608D01*
X037164Y023655D01*
X037188Y023701D01*
X037217Y023745D01*
X037248Y023787D01*
X037282Y023826D01*
X037319Y023863D01*
X037359Y023896D01*
X037402Y023927D01*
X037446Y023954D01*
X037492Y023978D01*
X037541Y023998D01*
X037590Y024014D01*
X037641Y024027D01*
X037692Y024036D01*
X037744Y024041D01*
X037796Y024042D01*
X037848Y024039D01*
X037900Y024032D01*
X037951Y024021D01*
X038001Y024007D01*
X038050Y023988D01*
X038097Y023966D01*
X038142Y023941D01*
X038186Y023912D01*
X038227Y023880D01*
X038266Y023845D01*
X038301Y023807D01*
X038334Y023766D01*
X038364Y023724D01*
X038390Y023679D01*
X038413Y023632D01*
X038432Y023583D01*
X038448Y023533D01*
X038460Y023483D01*
X038468Y023431D01*
X038472Y023379D01*
X038472Y023327D01*
X038468Y023275D01*
X038460Y023223D01*
X038448Y023173D01*
X038432Y023123D01*
X038413Y023074D01*
X038390Y023027D01*
X038364Y022982D01*
X038334Y022940D01*
X038301Y022899D01*
X038266Y022861D01*
X038227Y022826D01*
X038186Y022794D01*
X038142Y022765D01*
X038097Y022740D01*
X038050Y022718D01*
X038001Y022699D01*
X037951Y022685D01*
X037900Y022674D01*
X037848Y022667D01*
X037796Y022664D01*
X037744Y022665D01*
X037692Y022670D01*
X037641Y022679D01*
X037590Y022692D01*
X037541Y022708D01*
X037492Y022728D01*
X037446Y022752D01*
X037402Y022779D01*
X037359Y022810D01*
X037319Y022843D01*
X037282Y022880D01*
X037248Y022919D01*
X037217Y022961D01*
X037188Y023005D01*
X037164Y023051D01*
X037143Y023098D01*
X037125Y023148D01*
X037112Y023198D01*
X037102Y023249D01*
X037096Y023301D01*
X037094Y023353D01*
D11*
X020957Y015939D03*
X020485Y015939D03*
X020012Y015939D03*
X019540Y015939D03*
X019068Y015939D03*
X018595Y015939D03*
X018123Y015939D03*
X017650Y015939D03*
X017178Y015939D03*
X016705Y015939D03*
X016233Y015939D03*
X015761Y015939D03*
X015761Y010742D03*
X016233Y010742D03*
X016705Y010742D03*
X017178Y010742D03*
X017650Y010742D03*
X018123Y010742D03*
X018595Y010742D03*
X019068Y010742D03*
X019540Y010742D03*
X020012Y010742D03*
X020485Y010742D03*
X020957Y010742D03*
D12*
X022060Y011718D03*
X022060Y012120D03*
X022060Y012593D03*
X022060Y013065D03*
X022060Y013616D03*
X022060Y014089D03*
X022060Y014561D03*
X022060Y014964D03*
X014658Y015230D03*
X014658Y014600D03*
X014658Y013971D03*
D13*
X015123Y018674D03*
X017526Y018566D03*
X019833Y019132D03*
X019538Y020590D03*
X017526Y022566D03*
X015123Y022674D03*
X023538Y020590D03*
X023833Y019132D03*
X026427Y014928D03*
X027466Y014759D03*
X030433Y013705D03*
X031466Y014759D03*
X034433Y013705D03*
X036019Y014731D03*
X031112Y012373D03*
X027112Y012373D03*
X026427Y010928D03*
X026140Y008602D03*
X026140Y007602D03*
X025857Y006327D03*
X025517Y004974D03*
X029517Y004974D03*
X029857Y006327D03*
X029014Y007582D03*
X029014Y008582D03*
X034626Y008842D03*
X035524Y008709D03*
X036290Y008709D03*
X036019Y010731D03*
X034626Y004842D03*
X035524Y004709D03*
X036290Y004709D03*
X035849Y023979D03*
X031849Y023979D03*
D14*
X032164Y007007D03*
X032164Y005407D03*
D15*
X032415Y009846D03*
X033415Y009846D03*
X034415Y009846D03*
X035415Y009846D03*
X036415Y009846D03*
X037415Y010346D03*
X037415Y011346D03*
X037415Y012346D03*
X037415Y013346D03*
X037415Y014346D03*
X037415Y015346D03*
X036415Y015846D03*
X035415Y015846D03*
X034415Y015846D03*
X033415Y015846D03*
X032415Y015846D03*
X031415Y015846D03*
X030415Y015846D03*
X029415Y015846D03*
X028415Y015846D03*
X027415Y015846D03*
X026415Y015846D03*
X025415Y015846D03*
X027865Y010996D03*
X028865Y010996D03*
X028415Y009846D03*
X029415Y009846D03*
X030415Y009846D03*
X031415Y009846D03*
X031965Y010996D03*
X032965Y010996D03*
X027415Y009846D03*
X026415Y009846D03*
X025415Y009846D03*
D16*
X036607Y020245D02*
X037201Y020245D01*
X037201Y021245D02*
X036607Y021245D01*
D17*
X021281Y008995D03*
X021281Y007145D03*
X015703Y007145D03*
X015703Y008995D03*
D18*
X018251Y009525D02*
X018251Y010045D01*
X018251Y007045D02*
X018251Y006525D01*
X019737Y005339D02*
X020257Y005339D01*
X022737Y005339D02*
X023257Y005339D01*
X023702Y009041D02*
X024222Y009041D01*
X024222Y010041D02*
X023702Y010041D01*
X023702Y011041D02*
X024222Y011041D01*
X036556Y016657D02*
X037076Y016657D01*
X037076Y017657D02*
X036556Y017657D01*
X036556Y018657D02*
X037076Y018657D01*
D19*
X028274Y017680D03*
X027274Y017680D03*
X026274Y017680D03*
X025274Y017680D03*
X024274Y017680D03*
X023274Y017680D03*
X022274Y017680D03*
X021274Y017680D03*
X020274Y017680D03*
X019274Y017680D03*
X018274Y017680D03*
X017274Y017680D03*
X017274Y023680D03*
X018274Y023680D03*
X019274Y023680D03*
X020274Y023680D03*
X021274Y023680D03*
X022274Y023680D03*
X023274Y023680D03*
X024274Y023680D03*
X025274Y023680D03*
X026274Y023680D03*
X027274Y023680D03*
X028274Y023680D03*
D20*
X023274Y023680D02*
X023247Y023637D01*
X022302Y022692D01*
X022381Y022613D01*
X022381Y017968D01*
X022274Y017680D01*
X022617Y017889D01*
X022617Y014739D01*
X022459Y014582D01*
X022144Y014582D01*
X022060Y014561D01*
X021987Y014503D01*
X021672Y014503D01*
X021514Y014346D01*
X021514Y012141D01*
X021593Y012062D01*
X020963Y011432D01*
X020963Y011275D01*
X016003Y011275D01*
X015845Y011117D01*
X015845Y010802D01*
X015761Y010742D01*
X015766Y010724D01*
X015766Y009070D01*
X015703Y008995D01*
X019861Y009779D02*
X020412Y010330D01*
X020412Y010724D01*
X020485Y010742D01*
X020957Y010742D02*
X020963Y010802D01*
X020963Y011275D01*
X021593Y012062D02*
X021672Y012141D01*
X021987Y012141D01*
X022060Y012120D01*
X026140Y008602D02*
X026160Y008598D01*
X028995Y008598D01*
X029014Y008582D01*
X032164Y007007D02*
X032223Y007023D01*
X033719Y007023D01*
X035373Y008676D01*
X035524Y008709D01*
X035451Y008755D01*
X035451Y009779D01*
X035415Y009846D01*
X035451Y009936D01*
X035451Y014739D01*
X036003Y014739D01*
X036019Y014731D01*
X035451Y014739D02*
X032459Y014739D01*
X032381Y014818D01*
X033404Y015842D01*
X033415Y015846D01*
X033483Y015921D01*
X033483Y016314D01*
X036869Y019700D01*
X036869Y020173D01*
X036904Y020245D01*
X032381Y014818D02*
X031514Y014818D01*
X031466Y014759D01*
X025274Y017680D02*
X025215Y017732D01*
X024349Y017732D01*
X024274Y017680D01*
X024270Y017732D01*
X023719Y018283D01*
X022853Y018283D01*
X022302Y017732D01*
X022274Y017680D01*
X022302Y022692D02*
X017577Y022692D01*
X017526Y022566D01*
X017499Y022613D01*
X015136Y022613D01*
X015123Y022674D01*
X036318Y009700D02*
X036396Y009779D01*
X036415Y009846D01*
X036318Y009700D02*
X036318Y008755D01*
X036290Y008709D01*
D21*
X034626Y008842D02*
X034585Y008913D01*
X033325Y008913D01*
X032459Y009779D01*
X032415Y009846D01*
X033168Y010409D02*
X030018Y010409D01*
X029467Y009858D01*
X029415Y009846D01*
X029073Y010409D02*
X027971Y010409D01*
X027420Y009858D01*
X027415Y009846D01*
X026948Y009306D02*
X026475Y009779D01*
X026415Y009846D01*
X026948Y009306D02*
X028916Y009306D01*
X029467Y008755D01*
X029467Y007417D01*
X027892Y005842D01*
X025766Y005842D01*
X024822Y004897D01*
X022223Y004897D01*
X017656Y009464D01*
X017656Y010724D01*
X017650Y010742D01*
X017184Y010724D02*
X017178Y010742D01*
X017184Y010724D02*
X017184Y010094D01*
X016633Y010094D02*
X016633Y010724D01*
X016705Y010742D01*
X018251Y009785D02*
X018286Y009779D01*
X019310Y009779D01*
X020885Y008204D01*
X021987Y008204D01*
X023404Y009621D01*
X024428Y009621D01*
X026318Y011511D01*
X026396Y011511D01*
X025451Y011669D02*
X025451Y012771D01*
X025688Y013007D01*
X027105Y013007D01*
X027814Y012299D01*
X027814Y011039D01*
X027865Y010996D01*
X029073Y010409D02*
X029467Y010802D01*
X029467Y011196D01*
X027420Y013243D01*
X025530Y013243D01*
X023168Y015606D01*
X023719Y015606D02*
X025058Y014267D01*
X030491Y014267D01*
X031042Y013716D01*
X034428Y013716D01*
X034433Y013705D01*
X031112Y012373D02*
X031121Y012299D01*
X031121Y011826D01*
X031908Y011039D01*
X031965Y010996D01*
X033168Y010409D02*
X033483Y010724D01*
X034034Y010724D01*
X031415Y009846D02*
X031357Y009779D01*
X031357Y007180D01*
X029546Y005369D01*
X029546Y004976D01*
X029517Y004974D01*
X029857Y006327D02*
X029861Y006393D01*
X029861Y009228D01*
X030412Y009779D01*
X030415Y009846D01*
X029014Y007582D02*
X028995Y007574D01*
X027814Y006393D01*
X025924Y006393D01*
X025857Y006327D01*
X023089Y007180D02*
X025058Y009149D01*
X023168Y008834D02*
X022302Y007968D01*
X020727Y007968D01*
X020648Y008047D01*
X020491Y008047D01*
X021281Y007145D02*
X021357Y007180D01*
X023089Y007180D01*
X022302Y009306D02*
X023562Y010566D01*
X024349Y010566D01*
X025451Y011669D01*
X027466Y014759D02*
X027420Y014818D01*
X026554Y014818D01*
X026475Y014897D01*
X026427Y014928D01*
X026396Y014976D01*
X024979Y014976D01*
X023404Y016550D01*
X024113Y016393D02*
X025215Y015291D01*
X025845Y015291D01*
X026396Y015842D01*
X026415Y015846D01*
X025415Y015846D02*
X025373Y015921D01*
X024349Y016944D01*
X025294Y017023D02*
X028995Y017023D01*
X029310Y017338D01*
X029310Y019543D01*
X029231Y019621D01*
X029231Y021354D01*
X031829Y023952D01*
X031849Y023979D01*
X031908Y023952D01*
X035136Y023952D01*
X037656Y021432D01*
X037656Y018519D01*
X036869Y017732D01*
X036816Y017657D01*
X029625Y017102D02*
X028444Y015921D01*
X028415Y015846D01*
X029625Y017102D02*
X029625Y019779D01*
X028286Y018598D02*
X028916Y017968D01*
X028916Y017495D01*
X028286Y018598D02*
X028286Y023637D01*
X028274Y023680D01*
X024664Y019464D02*
X023562Y020566D01*
X023538Y020590D01*
X019833Y019132D02*
X019782Y019070D01*
X018050Y019070D01*
X017577Y018598D01*
X017526Y018566D01*
X017499Y018519D01*
X017184Y018519D01*
X016318Y017653D01*
X016081Y017102D02*
X014664Y018519D01*
X014664Y018834D01*
X015688Y019858D01*
X018207Y019858D01*
X018207Y019306D02*
X015766Y019306D01*
X015136Y018676D01*
X015123Y018674D01*
X016081Y017102D02*
X020963Y017102D01*
X021357Y016708D01*
X021357Y015606D01*
X021199Y015448D01*
X018365Y015448D01*
X018129Y015684D01*
X018129Y015921D01*
X018123Y015939D01*
X017892Y016550D02*
X020097Y016550D01*
X020412Y016236D01*
X020412Y015999D01*
X020485Y015939D01*
X020957Y015939D02*
X020963Y015999D01*
X020963Y016550D01*
X018207Y019306D02*
X019467Y020566D01*
X019538Y020590D01*
X015703Y007145D02*
X015766Y007102D01*
X016081Y006787D01*
X018207Y006787D01*
X018251Y006785D01*
X018286Y006708D01*
X018601Y006708D01*
X019940Y005369D01*
X019997Y005339D01*
X032164Y005407D02*
X032223Y005369D01*
X032696Y004897D01*
X034585Y004897D01*
X034626Y004842D01*
X035524Y004709D02*
X035530Y004739D01*
X036239Y004739D01*
X036290Y004709D01*
D22*
X034034Y010724D03*
X026396Y011511D03*
X025058Y009149D03*
X023168Y008834D03*
X022302Y009306D03*
X020491Y008047D03*
X019861Y009779D03*
X017184Y010094D03*
X016633Y010094D03*
X023168Y015606D03*
X023719Y015606D03*
X024113Y016393D03*
X023404Y016550D03*
X024349Y016944D03*
X025294Y017023D03*
X028916Y017495D03*
X029625Y019779D03*
X024664Y019464D03*
X020963Y016550D03*
X017892Y016550D03*
X016318Y017653D03*
X018207Y019858D03*
M02*
