%
M48
M72
T01C0.0240
T02C0.0320
T03C0.0354
T04C0.0394
T05C0.0400
T06C0.0433
T07C0.0866
T08C0.1378
%
T01
X16633Y10094
X17184Y9700
X17656Y9082
X25058Y11196
X25924Y12062
X24822Y12456
X25136Y12850
X22696Y14582
X25373Y16944
X31593Y13243
X37814Y9306
X28129Y8519
X27026Y8913
X18365Y21039
T02
X19538Y20590
X19833Y19132
X17526Y18566
X15123Y18674
X15123Y22674
X17526Y22566
X23538Y20590
X23833Y19132
X26427Y14928
X27466Y14759
X30433Y13705
X31466Y14759
X34433Y13705
X36019Y14731
X36816Y16657
X36816Y17657
X36816Y18657
X35849Y23979
X31849Y23979
X31112Y12373
X27112Y12373
X26427Y10928
X23962Y11041
X23962Y10041
X23962Y9041
X26140Y8602
X26140Y7602
X25857Y6327
X25517Y4974
X22997Y5339
X19997Y5339
X18251Y6785
X18251Y9785
X29014Y8582
X29014Y7582
X29857Y6327
X29517Y4974
X34626Y4842
X35524Y4709
X36290Y4709
X36290Y8709
X35524Y8709
X34626Y8842
X36019Y10731
T03
X32164Y7007
X32164Y5407
T04
X36904Y20245
X36904Y21245
T05
X36415Y15846
X35415Y15846
X34415Y15846
X33415Y15846
X32415Y15846
X31415Y15846
X30415Y15846
X29415Y15846
X28415Y15846
X27415Y15846
X26415Y15846
X25415Y15846
X27865Y10996
X28865Y10996
X28415Y9846
X29415Y9846
X30415Y9846
X31415Y9846
X32415Y9846
X33415Y9846
X34415Y9846
X35415Y9846
X36415Y9846
X37415Y10346
X37415Y11346
X37415Y12346
X37415Y13346
X37415Y14346
X37415Y15346
X32965Y10996
X31965Y10996
X27415Y9846
X26415Y9846
X25415Y9846
T06
X25274Y17680
X24274Y17680
X23274Y17680
X22274Y17680
X21274Y17680
X20274Y17680
X19274Y17680
X18274Y17680
X17274Y17680
X26274Y17680
X27274Y17680
X28274Y17680
X28274Y23680
X27274Y23680
X26274Y23680
X25274Y23680
X24274Y23680
X23274Y23680
X22274Y23680
X21274Y23680
X20274Y23680
X19274Y23680
X18274Y23680
X17274Y23680
T07
X15703Y7145
X15703Y8995
X21281Y8995
X21281Y7145
T08
X24337Y6776
X37798Y6738
X37783Y23353
M30
