G75*
G70*
%OFA0B0*%
%FSLAX24Y24*%
%IPPOS*%
%LPD*%
%AMOC8*
5,1,8,0,0,1.08239X$1,22.5*
%
%ADD10OC8,0.0520*%
%ADD11R,0.0554X0.0554*%
%ADD12C,0.0740*%
%ADD13C,0.0594*%
%ADD14C,0.1266*%
%ADD15C,0.0520*%
%ADD16R,0.0700X0.0700*%
%ADD17C,0.0250*%
%ADD18C,0.0150*%
%ADD19C,0.0400*%
D10*
X025517Y004974D03*
X025857Y006327D03*
X026140Y007602D03*
X026140Y008602D03*
X029014Y008582D03*
X029014Y007582D03*
X029857Y006327D03*
X029517Y004974D03*
X034626Y004842D03*
X035524Y004709D03*
X036290Y004709D03*
X036290Y008709D03*
X035524Y008709D03*
X034626Y008842D03*
X036019Y010731D03*
X031112Y012373D03*
X030433Y013705D03*
X031466Y014759D03*
X034433Y013705D03*
X036019Y014731D03*
X027466Y014759D03*
X026427Y014928D03*
X027112Y012373D03*
X026427Y010928D03*
X017526Y018566D03*
X019833Y019132D03*
X019538Y020590D03*
X017526Y022566D03*
X015123Y022674D03*
X015123Y018674D03*
X023538Y020590D03*
X023833Y019132D03*
X031849Y023979D03*
X035849Y023979D03*
D11*
X032164Y007007D03*
X032164Y005407D03*
D12*
X032415Y009846D03*
X033415Y009846D03*
X034415Y009846D03*
X035415Y009846D03*
X036415Y009846D03*
X037415Y010346D03*
X037415Y011346D03*
X037415Y012346D03*
X037415Y013346D03*
X037415Y014346D03*
X037415Y015346D03*
X036415Y015846D03*
X035415Y015846D03*
X034415Y015846D03*
X033415Y015846D03*
X032415Y015846D03*
X031415Y015846D03*
X030415Y015846D03*
X029415Y015846D03*
X028415Y015846D03*
X027415Y015846D03*
X026415Y015846D03*
X025415Y015846D03*
X027865Y010996D03*
X028865Y010996D03*
X028415Y009846D03*
X029415Y009846D03*
X030415Y009846D03*
X031415Y009846D03*
X031965Y010996D03*
X032965Y010996D03*
X027415Y009846D03*
X026415Y009846D03*
X025415Y009846D03*
D13*
X036607Y020245D02*
X037201Y020245D01*
X037201Y021245D02*
X036607Y021245D01*
D14*
X015703Y007145D03*
X015703Y008995D03*
X021281Y008995D03*
X021281Y007145D03*
D15*
X018251Y007045D02*
X018251Y006525D01*
X019737Y005339D02*
X020257Y005339D01*
X022737Y005339D02*
X023257Y005339D01*
X023702Y009041D02*
X024222Y009041D01*
X024222Y010041D02*
X023702Y010041D01*
X023702Y011041D02*
X024222Y011041D01*
X018251Y010045D02*
X018251Y009525D01*
X036556Y016657D02*
X037076Y016657D01*
X037076Y017657D02*
X036556Y017657D01*
X036556Y018657D02*
X037076Y018657D01*
D16*
X028274Y017680D03*
X027274Y017680D03*
X026274Y017680D03*
X025274Y017680D03*
X024274Y017680D03*
X023274Y017680D03*
X022274Y017680D03*
X021274Y017680D03*
X020274Y017680D03*
X019274Y017680D03*
X018274Y017680D03*
X017274Y017680D03*
X017274Y023680D03*
X018274Y023680D03*
X019274Y023680D03*
X020274Y023680D03*
X021274Y023680D03*
X022274Y023680D03*
X023274Y023680D03*
X024274Y023680D03*
X025274Y023680D03*
X026274Y023680D03*
X027274Y023680D03*
X028274Y023680D03*
D17*
X027971Y021354D02*
X025609Y021354D01*
X023325Y023637D01*
X023274Y023680D01*
X027971Y021354D02*
X033404Y015921D01*
X033415Y015846D01*
X031593Y013243D02*
X030570Y014267D01*
X023168Y014267D01*
X023089Y014346D01*
X025215Y016472D01*
X027105Y016472D01*
X027892Y017259D01*
X027892Y017338D01*
X028207Y017653D01*
X028274Y017680D01*
X023089Y014346D02*
X022459Y013716D01*
X022459Y010173D01*
X021357Y009070D01*
X021281Y008995D01*
X015703Y008995D02*
X015688Y009070D01*
X015688Y017023D01*
X014349Y018362D01*
X014349Y021905D01*
X015058Y022613D01*
X015123Y022674D01*
X035849Y023979D02*
X035924Y022377D01*
X035924Y021275D01*
X036869Y021275D01*
X036904Y021245D01*
X035924Y021275D02*
X035924Y017574D01*
X036790Y016708D01*
X036816Y016657D01*
X038050Y017417D02*
X038050Y010094D01*
X037656Y009700D01*
X036554Y009700D01*
X036475Y009779D01*
X036415Y009846D01*
X032164Y007007D02*
X032144Y007023D01*
X030648Y008519D01*
X029073Y008519D01*
X029014Y008582D01*
X038050Y017417D02*
X036869Y018598D01*
X036816Y018657D01*
D18*
X031357Y016314D02*
X031357Y015921D01*
X031415Y015846D01*
X031357Y016314D02*
X026633Y021039D01*
X018365Y021039D01*
X018759Y020566D02*
X015885Y017692D01*
X016633Y016944D01*
X016633Y010094D01*
X016239Y009936D02*
X020412Y005763D01*
X021672Y005763D01*
X022538Y004897D01*
X023404Y004897D01*
X023719Y005212D01*
X023719Y005684D01*
X023168Y006236D01*
X023168Y007338D01*
X024900Y009070D01*
X026869Y009070D01*
X027026Y008913D01*
X027184Y009306D02*
X025136Y009306D01*
X024822Y009621D01*
X024822Y010015D01*
X026160Y011354D01*
X027499Y011354D01*
X027814Y011039D01*
X027865Y010996D01*
X027184Y010881D02*
X028207Y009858D01*
X028365Y009858D01*
X028415Y009846D01*
X029073Y009306D02*
X037814Y009306D01*
X036019Y010731D02*
X036003Y010724D01*
X033483Y010724D01*
X033168Y010409D01*
X030018Y010409D01*
X029467Y009858D01*
X029415Y009846D01*
X029073Y009306D02*
X028286Y008519D01*
X028129Y008519D01*
X027420Y008125D02*
X027420Y009070D01*
X027184Y009306D01*
X027420Y008125D02*
X029703Y005842D01*
X034349Y005842D01*
X035451Y004739D01*
X035524Y004709D01*
X026318Y006157D02*
X026318Y007417D01*
X026160Y007574D01*
X026140Y007602D01*
X026318Y006157D02*
X025530Y005369D01*
X025530Y004976D01*
X025517Y004974D01*
X022997Y005339D02*
X022932Y005369D01*
X022932Y009070D01*
X023247Y009385D01*
X023247Y010330D01*
X023955Y011039D01*
X023962Y011041D01*
X024822Y011432D02*
X025058Y011196D01*
X024822Y011432D02*
X024822Y012456D01*
X025136Y012850D02*
X025924Y012062D01*
X026711Y012299D02*
X027105Y012299D01*
X027112Y012373D01*
X026711Y012299D02*
X024507Y010094D01*
X024034Y010094D01*
X023962Y010041D01*
X023010Y009543D02*
X023010Y011511D01*
X024743Y013243D01*
X030885Y013243D01*
X032932Y011196D01*
X032932Y011039D01*
X032965Y010996D01*
X027184Y010881D02*
X026475Y010881D01*
X026427Y010928D01*
X023010Y009543D02*
X021672Y008204D01*
X020885Y008204D01*
X019310Y009779D01*
X018286Y009779D01*
X018251Y009785D01*
X017656Y010094D02*
X022144Y014582D01*
X022696Y014582D01*
X025373Y016944D02*
X018050Y016944D01*
X017341Y017653D01*
X017274Y017680D01*
X016711Y018047D02*
X017184Y018519D01*
X017499Y018519D01*
X017526Y018566D01*
X016711Y018047D02*
X016711Y017259D01*
X017184Y016787D01*
X017184Y009700D01*
X017656Y010094D02*
X017656Y009082D01*
X016239Y009936D02*
X016239Y016944D01*
X014664Y018519D01*
X014664Y018834D01*
X019231Y023401D01*
X019231Y023637D01*
X019274Y023680D01*
X019538Y020590D02*
X019467Y020566D01*
X018759Y020566D01*
X015123Y018674D02*
X015136Y018598D01*
X015136Y018440D01*
X015885Y017692D01*
X023538Y020590D02*
X023562Y020566D01*
X026711Y020566D01*
X030412Y016865D01*
X030412Y015921D01*
X030415Y015846D01*
X029415Y015846D02*
X029388Y015921D01*
X029388Y017495D01*
X027814Y019070D01*
X023877Y019070D01*
X023833Y019132D01*
D19*
X025373Y016944D03*
X022696Y014582D03*
X025136Y012850D03*
X024822Y012456D03*
X025924Y012062D03*
X025058Y011196D03*
X027026Y008913D03*
X028129Y008519D03*
X031593Y013243D03*
X037814Y009306D03*
X018365Y021039D03*
X016633Y010094D03*
X017184Y009700D03*
X017656Y009082D03*
M02*
